<?xml version="1.0" encoding="utf-8"?>
<svg xmlns="http://www.w3.org/2000/svg" xmlns:xlink="http://www.w3.org/1999/xlink" width="600" height="400" viewBox="0 0 2400 1600">
<defs>
  <clipPath id="clip900">
    <rect x="0" y="0" width="2400" height="1600"/>
  </clipPath>
</defs>
<path clip-path="url(#clip900)" d="M0 1600 L2400 1600 L2400 0 L0 0  Z" fill="#ffffff" fill-rule="evenodd" fill-opacity="1"/>
<defs>
  <clipPath id="clip901">
    <rect x="210" y="123" width="2143" height="1301"/>
  </clipPath>
</defs>
<path clip-path="url(#clip900)" d="M613.599 1423.18 L1913.31 1423.18 L1913.31 123.472 L613.599 123.472  Z" fill="#ffffff" fill-rule="evenodd" fill-opacity="1"/>
<defs>
  <clipPath id="clip902">
    <rect x="613" y="123" width="1301" height="1301"/>
  </clipPath>
</defs>
<polyline clip-path="url(#clip902)" style="stroke:#000000; stroke-linecap:round; stroke-linejoin:round; stroke-width:2; stroke-opacity:0.1; fill:none" points="776.062,1423.18 776.062,123.472 "/>
<polyline clip-path="url(#clip902)" style="stroke:#000000; stroke-linecap:round; stroke-linejoin:round; stroke-width:2; stroke-opacity:0.1; fill:none" points="1100.99,1423.18 1100.99,123.472 "/>
<polyline clip-path="url(#clip902)" style="stroke:#000000; stroke-linecap:round; stroke-linejoin:round; stroke-width:2; stroke-opacity:0.1; fill:none" points="1425.92,1423.18 1425.92,123.472 "/>
<polyline clip-path="url(#clip902)" style="stroke:#000000; stroke-linecap:round; stroke-linejoin:round; stroke-width:2; stroke-opacity:0.1; fill:none" points="1750.84,1423.18 1750.84,123.472 "/>
<polyline clip-path="url(#clip902)" style="stroke:#000000; stroke-linecap:round; stroke-linejoin:round; stroke-width:2; stroke-opacity:0.1; fill:none" points="613.599,1260.72 1913.31,1260.72 "/>
<polyline clip-path="url(#clip902)" style="stroke:#000000; stroke-linecap:round; stroke-linejoin:round; stroke-width:2; stroke-opacity:0.1; fill:none" points="613.599,935.789 1913.31,935.789 "/>
<polyline clip-path="url(#clip902)" style="stroke:#000000; stroke-linecap:round; stroke-linejoin:round; stroke-width:2; stroke-opacity:0.1; fill:none" points="613.599,610.863 1913.31,610.863 "/>
<polyline clip-path="url(#clip902)" style="stroke:#000000; stroke-linecap:round; stroke-linejoin:round; stroke-width:2; stroke-opacity:0.1; fill:none" points="613.599,285.936 1913.31,285.936 "/>
<polyline clip-path="url(#clip900)" style="stroke:#000000; stroke-linecap:round; stroke-linejoin:round; stroke-width:4; stroke-opacity:1; fill:none" points="613.599,1423.18 1913.31,1423.18 "/>
<polyline clip-path="url(#clip900)" style="stroke:#000000; stroke-linecap:round; stroke-linejoin:round; stroke-width:4; stroke-opacity:1; fill:none" points="776.062,1423.18 776.062,1404.28 "/>
<polyline clip-path="url(#clip900)" style="stroke:#000000; stroke-linecap:round; stroke-linejoin:round; stroke-width:4; stroke-opacity:1; fill:none" points="1100.99,1423.18 1100.99,1404.28 "/>
<polyline clip-path="url(#clip900)" style="stroke:#000000; stroke-linecap:round; stroke-linejoin:round; stroke-width:4; stroke-opacity:1; fill:none" points="1425.92,1423.18 1425.92,1404.28 "/>
<polyline clip-path="url(#clip900)" style="stroke:#000000; stroke-linecap:round; stroke-linejoin:round; stroke-width:4; stroke-opacity:1; fill:none" points="1750.84,1423.18 1750.84,1404.28 "/>
<path clip-path="url(#clip900)" d="M776.062 1454.1 Q772.451 1454.1 770.622 1457.66 Q768.817 1461.2 768.817 1468.33 Q768.817 1475.44 770.622 1479.01 Q772.451 1482.55 776.062 1482.55 Q779.696 1482.55 781.502 1479.01 Q783.33 1475.44 783.33 1468.33 Q783.33 1461.2 781.502 1457.66 Q779.696 1454.1 776.062 1454.1 M776.062 1450.39 Q781.872 1450.39 784.928 1455 Q788.006 1459.58 788.006 1468.33 Q788.006 1477.06 784.928 1481.67 Q781.872 1486.25 776.062 1486.25 Q770.252 1486.25 767.173 1481.67 Q764.118 1477.06 764.118 1468.33 Q764.118 1459.58 767.173 1455 Q770.252 1450.39 776.062 1450.39 Z" fill="#000000" fill-rule="nonzero" fill-opacity="1" /><path clip-path="url(#clip900)" d="M1091.37 1481.64 L1099.01 1481.64 L1099.01 1455.28 L1090.7 1456.95 L1090.7 1452.69 L1098.96 1451.02 L1103.64 1451.02 L1103.64 1481.64 L1111.28 1481.64 L1111.28 1485.58 L1091.37 1485.58 L1091.37 1481.64 Z" fill="#000000" fill-rule="nonzero" fill-opacity="1" /><path clip-path="url(#clip900)" d="M1420.57 1481.64 L1436.89 1481.64 L1436.89 1485.58 L1414.94 1485.58 L1414.94 1481.64 Q1417.61 1478.89 1422.19 1474.26 Q1426.8 1469.61 1427.98 1468.27 Q1430.22 1465.74 1431.1 1464.01 Q1432 1462.25 1432 1460.56 Q1432 1457.8 1430.06 1456.07 Q1428.14 1454.33 1425.04 1454.33 Q1422.84 1454.33 1420.38 1455.09 Q1417.95 1455.86 1415.18 1457.41 L1415.18 1452.69 Q1418 1451.55 1420.45 1450.97 Q1422.91 1450.39 1424.94 1450.39 Q1430.31 1450.39 1433.51 1453.08 Q1436.7 1455.77 1436.7 1460.26 Q1436.7 1462.39 1435.89 1464.31 Q1435.11 1466.2 1433 1468.8 Q1432.42 1469.47 1429.32 1472.69 Q1426.22 1475.88 1420.57 1481.64 Z" fill="#000000" fill-rule="nonzero" fill-opacity="1" /><path clip-path="url(#clip900)" d="M1755.09 1466.95 Q1758.45 1467.66 1760.32 1469.93 Q1762.22 1472.2 1762.22 1475.53 Q1762.22 1480.65 1758.7 1483.45 Q1755.18 1486.25 1748.7 1486.25 Q1746.53 1486.25 1744.21 1485.81 Q1741.92 1485.39 1739.47 1484.54 L1739.47 1480.02 Q1741.41 1481.16 1743.72 1481.74 Q1746.04 1482.32 1748.56 1482.32 Q1752.96 1482.32 1755.25 1480.58 Q1757.57 1478.84 1757.57 1475.53 Q1757.57 1472.48 1755.41 1470.77 Q1753.28 1469.03 1749.47 1469.03 L1745.44 1469.03 L1745.44 1465.19 L1749.65 1465.19 Q1753.1 1465.19 1754.93 1463.82 Q1756.76 1462.43 1756.76 1459.84 Q1756.76 1457.18 1754.86 1455.77 Q1752.98 1454.33 1749.47 1454.33 Q1747.54 1454.33 1745.35 1454.75 Q1743.15 1455.16 1740.51 1456.04 L1740.51 1451.88 Q1743.17 1451.14 1745.48 1450.77 Q1747.82 1450.39 1749.88 1450.39 Q1755.21 1450.39 1758.31 1452.83 Q1761.41 1455.23 1761.41 1459.35 Q1761.41 1462.22 1759.77 1464.21 Q1758.12 1466.18 1755.09 1466.95 Z" fill="#000000" fill-rule="nonzero" fill-opacity="1" /><path clip-path="url(#clip900)" d="M1042.93 1520.52 L1052.51 1520.52 L1064.64 1552.86 L1076.83 1520.52 L1086.41 1520.52 L1086.41 1568.04 L1080.14 1568.04 L1080.14 1526.32 L1067.88 1558.91 L1061.42 1558.91 L1049.17 1526.32 L1049.17 1568.04 L1042.93 1568.04 L1042.93 1520.52 Z" fill="#000000" fill-rule="nonzero" fill-opacity="1" /><path clip-path="url(#clip900)" d="M1098.31 1553.98 L1098.31 1532.4 L1104.17 1532.4 L1104.17 1553.75 Q1104.17 1558.81 1106.14 1561.36 Q1108.11 1563.87 1112.06 1563.87 Q1116.8 1563.87 1119.54 1560.85 Q1122.31 1557.83 1122.31 1552.61 L1122.31 1532.4 L1128.17 1532.4 L1128.17 1568.04 L1122.31 1568.04 L1122.31 1562.57 Q1120.18 1565.82 1117.34 1567.41 Q1114.54 1568.97 1110.82 1568.97 Q1104.68 1568.97 1101.49 1565.15 Q1098.31 1561.33 1098.31 1553.98 M1113.05 1531.54 L1113.05 1531.54 Z" fill="#000000" fill-rule="nonzero" fill-opacity="1" /><path clip-path="url(#clip900)" d="M1140.23 1518.52 L1146.08 1518.52 L1146.08 1568.04 L1140.23 1568.04 L1140.23 1518.52 Z" fill="#000000" fill-rule="nonzero" fill-opacity="1" /><path clip-path="url(#clip900)" d="M1164.13 1522.27 L1164.13 1532.4 L1176.19 1532.4 L1176.19 1536.95 L1164.13 1536.95 L1164.13 1556.3 Q1164.13 1560.66 1165.31 1561.9 Q1166.52 1563.14 1170.18 1563.14 L1176.19 1563.14 L1176.19 1568.04 L1170.18 1568.04 Q1163.4 1568.04 1160.82 1565.53 Q1158.24 1562.98 1158.24 1556.3 L1158.24 1536.95 L1153.95 1536.95 L1153.95 1532.4 L1158.24 1532.4 L1158.24 1522.27 L1164.13 1522.27 Z" fill="#000000" fill-rule="nonzero" fill-opacity="1" /><path clip-path="url(#clip900)" d="M1183.9 1532.4 L1189.75 1532.4 L1189.75 1568.04 L1183.9 1568.04 L1183.9 1532.4 M1183.9 1518.52 L1189.75 1518.52 L1189.75 1525.93 L1183.9 1525.93 L1183.9 1518.52 Z" fill="#000000" fill-rule="nonzero" fill-opacity="1" /><path clip-path="url(#clip900)" d="M1199.05 1547.58 L1216.2 1547.58 L1216.2 1552.8 L1199.05 1552.8 L1199.05 1547.58 Z" fill="#000000" fill-rule="nonzero" fill-opacity="1" /><path clip-path="url(#clip900)" d="M1225.53 1532.4 L1231.39 1532.4 L1231.39 1568.04 L1225.53 1568.04 L1225.53 1532.4 M1225.53 1518.52 L1231.39 1518.52 L1231.39 1525.93 L1225.53 1525.93 L1225.53 1518.52 Z" fill="#000000" fill-rule="nonzero" fill-opacity="1" /><path clip-path="url(#clip900)" d="M1273.27 1546.53 L1273.27 1568.04 L1267.42 1568.04 L1267.42 1546.72 Q1267.42 1541.66 1265.44 1539.14 Q1263.47 1536.63 1259.52 1536.63 Q1254.78 1536.63 1252.04 1539.65 Q1249.3 1542.68 1249.3 1547.9 L1249.3 1568.04 L1243.42 1568.04 L1243.42 1532.4 L1249.3 1532.4 L1249.3 1537.93 Q1251.41 1534.72 1254.24 1533.13 Q1257.1 1531.54 1260.83 1531.54 Q1266.97 1531.54 1270.12 1535.36 Q1273.27 1539.14 1273.27 1546.53 Z" fill="#000000" fill-rule="nonzero" fill-opacity="1" /><path clip-path="url(#clip900)" d="M1308.41 1537.81 L1308.41 1518.52 L1314.27 1518.52 L1314.27 1568.04 L1308.41 1568.04 L1308.41 1562.7 Q1306.56 1565.88 1303.73 1567.44 Q1300.93 1568.97 1296.98 1568.97 Q1290.52 1568.97 1286.45 1563.81 Q1282.41 1558.65 1282.41 1550.25 Q1282.41 1541.85 1286.45 1536.69 Q1290.52 1531.54 1296.98 1531.54 Q1300.93 1531.54 1303.73 1533.1 Q1306.56 1534.62 1308.41 1537.81 M1288.45 1550.25 Q1288.45 1556.71 1291.1 1560.4 Q1293.77 1564.07 1298.42 1564.07 Q1303.06 1564.07 1305.74 1560.4 Q1308.41 1556.71 1308.41 1550.25 Q1308.41 1543.79 1305.74 1540.13 Q1303.06 1536.44 1298.42 1536.44 Q1293.77 1536.44 1291.1 1540.13 Q1288.45 1543.79 1288.45 1550.25 Z" fill="#000000" fill-rule="nonzero" fill-opacity="1" /><path clip-path="url(#clip900)" d="M1356.82 1548.76 L1356.82 1551.62 L1329.89 1551.62 Q1330.28 1557.67 1333.52 1560.85 Q1336.8 1564 1342.63 1564 Q1346 1564 1349.15 1563.17 Q1352.33 1562.35 1355.45 1560.69 L1355.45 1566.23 Q1352.3 1567.57 1348.99 1568.27 Q1345.68 1568.97 1342.28 1568.97 Q1333.75 1568.97 1328.75 1564 Q1323.78 1559.04 1323.78 1550.57 Q1323.78 1541.82 1328.49 1536.69 Q1333.24 1531.54 1341.26 1531.54 Q1348.45 1531.54 1352.62 1536.18 Q1356.82 1540.8 1356.82 1548.76 M1350.96 1547.04 Q1350.9 1542.23 1348.26 1539.37 Q1345.65 1536.5 1341.32 1536.5 Q1336.42 1536.5 1333.46 1539.27 Q1330.53 1542.04 1330.09 1547.07 L1350.96 1547.04 Z" fill="#000000" fill-rule="nonzero" fill-opacity="1" /><path clip-path="url(#clip900)" d="M1394.92 1532.4 L1382.03 1549.74 L1395.59 1568.04 L1388.68 1568.04 L1378.31 1554.04 L1367.93 1568.04 L1361.02 1568.04 L1374.87 1549.39 L1362.2 1532.4 L1369.11 1532.4 L1378.56 1545.1 L1388.01 1532.4 L1394.92 1532.4 Z" fill="#000000" fill-rule="nonzero" fill-opacity="1" /><path clip-path="url(#clip900)" d="M1445.37 1551.46 L1443.97 1544.11 Q1442.54 1536.57 1436.87 1536.57 Q1432.61 1536.57 1430.66 1540.07 Q1428.21 1544.46 1428.21 1550.25 Q1428.21 1557.25 1430.6 1560.6 Q1433.02 1564 1436.87 1564 Q1441.14 1564 1443.43 1557.22 L1445.37 1551.46 M1448.65 1541.72 L1451.8 1532.4 L1457.02 1532.4 L1450.49 1551.72 L1451.77 1558.69 Q1452.05 1560.25 1453.17 1561.55 Q1454.47 1563.08 1455.49 1563.08 L1458.29 1563.08 L1458.29 1568.04 L1454.79 1568.04 Q1451.8 1568.04 1449.12 1565.37 Q1447.82 1564.03 1447.28 1561.23 Q1445.81 1564.77 1442.82 1567.53 Q1441.42 1568.84 1436.87 1568.84 Q1429.39 1568.84 1425.76 1564 Q1422.04 1559 1422.04 1550.25 Q1422.04 1540.89 1426.08 1536.5 Q1430.57 1531.6 1436.87 1531.6 Q1446.77 1531.6 1448.65 1541.72 Z" fill="#000000" fill-rule="nonzero" fill-opacity="1" /><path clip-path="url(#clip900)" d="M1466.38 1564.54 L1472.87 1564.54 L1472.87 1545.1 L1465.77 1546.4 L1465.77 1542.71 L1473.09 1541.47 L1477.45 1541.47 L1477.45 1564.54 L1483.98 1564.54 L1483.98 1568.04 L1466.38 1568.04 L1466.38 1564.54 Z" fill="#000000" fill-rule="nonzero" fill-opacity="1" /><polyline clip-path="url(#clip900)" style="stroke:#000000; stroke-linecap:round; stroke-linejoin:round; stroke-width:4; stroke-opacity:1; fill:none" points="613.599,1423.18 613.599,123.472 "/>
<polyline clip-path="url(#clip900)" style="stroke:#000000; stroke-linecap:round; stroke-linejoin:round; stroke-width:4; stroke-opacity:1; fill:none" points="613.599,1260.72 624.872,1260.72 "/>
<polyline clip-path="url(#clip900)" style="stroke:#000000; stroke-linecap:round; stroke-linejoin:round; stroke-width:4; stroke-opacity:1; fill:none" points="613.599,935.789 624.872,935.789 "/>
<polyline clip-path="url(#clip900)" style="stroke:#000000; stroke-linecap:round; stroke-linejoin:round; stroke-width:4; stroke-opacity:1; fill:none" points="613.599,610.863 624.872,610.863 "/>
<polyline clip-path="url(#clip900)" style="stroke:#000000; stroke-linecap:round; stroke-linejoin:round; stroke-width:4; stroke-opacity:1; fill:none" points="613.599,285.936 624.872,285.936 "/>
<path clip-path="url(#clip900)" d="M565.654 1246.52 Q562.043 1246.52 560.214 1250.08 Q558.409 1253.62 558.409 1260.75 Q558.409 1267.86 560.214 1271.42 Q562.043 1274.96 565.654 1274.96 Q569.288 1274.96 571.094 1271.42 Q572.923 1267.86 572.923 1260.75 Q572.923 1253.62 571.094 1250.08 Q569.288 1246.52 565.654 1246.52 M565.654 1242.81 Q571.464 1242.81 574.52 1247.42 Q577.599 1252 577.599 1260.75 Q577.599 1269.48 574.52 1274.08 Q571.464 1278.67 565.654 1278.67 Q559.844 1278.67 556.765 1274.08 Q553.71 1269.48 553.71 1260.75 Q553.71 1252 556.765 1247.42 Q559.844 1242.81 565.654 1242.81 Z" fill="#000000" fill-rule="nonzero" fill-opacity="1" /><path clip-path="url(#clip900)" d="M557.691 949.134 L565.33 949.134 L565.33 922.769 L557.02 924.435 L557.02 920.176 L565.284 918.509 L569.96 918.509 L569.96 949.134 L577.599 949.134 L577.599 953.069 L557.691 953.069 L557.691 949.134 Z" fill="#000000" fill-rule="nonzero" fill-opacity="1" /><path clip-path="url(#clip900)" d="M561.279 624.207 L577.599 624.207 L577.599 628.143 L555.654 628.143 L555.654 624.207 Q558.316 621.453 562.9 616.823 Q567.506 612.17 568.687 610.828 Q570.932 608.305 571.812 606.569 Q572.714 604.809 572.714 603.12 Q572.714 600.365 570.77 598.629 Q568.849 596.893 565.747 596.893 Q563.548 596.893 561.094 597.657 Q558.663 598.42 555.886 599.971 L555.886 595.249 Q558.71 594.115 561.163 593.536 Q563.617 592.958 565.654 592.958 Q571.025 592.958 574.219 595.643 Q577.413 598.328 577.413 602.819 Q577.413 604.948 576.603 606.869 Q575.816 608.768 573.71 611.36 Q573.131 612.031 570.029 615.249 Q566.927 618.443 561.279 624.207 Z" fill="#000000" fill-rule="nonzero" fill-opacity="1" /><path clip-path="url(#clip900)" d="M570.469 284.581 Q573.825 285.299 575.7 287.568 Q577.599 289.836 577.599 293.169 Q577.599 298.285 574.08 301.086 Q570.562 303.887 564.08 303.887 Q561.904 303.887 559.589 303.447 Q557.298 303.03 554.844 302.174 L554.844 297.66 Q556.788 298.794 559.103 299.373 Q561.418 299.952 563.941 299.952 Q568.339 299.952 570.631 298.216 Q572.946 296.48 572.946 293.169 Q572.946 290.114 570.793 288.401 Q568.663 286.665 564.844 286.665 L560.816 286.665 L560.816 282.822 L565.029 282.822 Q568.478 282.822 570.307 281.456 Q572.136 280.068 572.136 277.475 Q572.136 274.813 570.237 273.401 Q568.362 271.966 564.844 271.966 Q562.923 271.966 560.724 272.382 Q558.525 272.799 555.886 273.679 L555.886 269.512 Q558.548 268.771 560.863 268.401 Q563.2 268.031 565.261 268.031 Q570.585 268.031 573.687 270.461 Q576.788 272.869 576.788 276.989 Q576.788 279.859 575.145 281.85 Q573.501 283.818 570.469 284.581 Z" fill="#000000" fill-rule="nonzero" fill-opacity="1" /><path clip-path="url(#clip900)" d="M455.934 993.579 L455.934 983.999 L488.272 971.872 L455.934 959.682 L455.934 950.102 L503.454 950.102 L503.454 956.372 L461.727 956.372 L494.319 968.626 L494.319 975.087 L461.727 987.341 L503.454 987.341 L503.454 993.579 L455.934 993.579 Z" fill="#000000" fill-rule="nonzero" fill-opacity="1" /><path clip-path="url(#clip900)" d="M489.386 938.198 L467.806 938.198 L467.806 932.341 L489.163 932.341 Q494.224 932.341 496.77 930.368 Q499.284 928.395 499.284 924.448 Q499.284 919.705 496.261 916.968 Q493.237 914.199 488.017 914.199 L467.806 914.199 L467.806 908.343 L503.454 908.343 L503.454 914.199 L497.979 914.199 Q501.226 916.332 502.817 919.164 Q504.377 921.965 504.377 925.689 Q504.377 931.832 500.557 935.015 Q496.738 938.198 489.386 938.198 M466.946 923.461 L466.946 923.461 Z" fill="#000000" fill-rule="nonzero" fill-opacity="1" /><path clip-path="url(#clip900)" d="M453.929 896.28 L453.929 890.423 L503.454 890.423 L503.454 896.28 L453.929 896.28 Z" fill="#000000" fill-rule="nonzero" fill-opacity="1" /><path clip-path="url(#clip900)" d="M457.684 872.376 L467.806 872.376 L467.806 860.313 L472.357 860.313 L472.357 872.376 L491.709 872.376 Q496.07 872.376 497.311 871.199 Q498.552 869.989 498.552 866.329 L498.552 860.313 L503.454 860.313 L503.454 866.329 Q503.454 873.108 500.939 875.687 Q498.393 878.265 491.709 878.265 L472.357 878.265 L472.357 882.562 L467.806 882.562 L467.806 878.265 L457.684 878.265 L457.684 872.376 Z" fill="#000000" fill-rule="nonzero" fill-opacity="1" /><path clip-path="url(#clip900)" d="M467.806 852.611 L467.806 846.754 L503.454 846.754 L503.454 852.611 L467.806 852.611 M453.929 852.611 L453.929 846.754 L461.345 846.754 L461.345 852.611 L453.929 852.611 Z" fill="#000000" fill-rule="nonzero" fill-opacity="1" /><path clip-path="url(#clip900)" d="M482.988 837.46 L482.988 820.305 L488.208 820.305 L488.208 837.46 L482.988 837.46 Z" fill="#000000" fill-rule="nonzero" fill-opacity="1" /><path clip-path="url(#clip900)" d="M467.806 810.979 L467.806 805.123 L503.454 805.123 L503.454 810.979 L467.806 810.979 M453.929 810.979 L453.929 805.123 L461.345 805.123 L461.345 810.979 L453.929 810.979 Z" fill="#000000" fill-rule="nonzero" fill-opacity="1" /><path clip-path="url(#clip900)" d="M481.938 763.236 L503.454 763.236 L503.454 769.093 L482.129 769.093 Q477.068 769.093 474.553 771.066 Q472.039 773.04 472.039 776.986 Q472.039 781.729 475.063 784.466 Q478.086 787.203 483.306 787.203 L503.454 787.203 L503.454 793.092 L467.806 793.092 L467.806 787.203 L473.344 787.203 Q470.129 785.103 468.538 782.27 Q466.946 779.405 466.946 775.681 Q466.946 769.538 470.766 766.387 Q474.553 763.236 481.938 763.236 Z" fill="#000000" fill-rule="nonzero" fill-opacity="1" /><path clip-path="url(#clip900)" d="M473.217 728.098 L453.929 728.098 L453.929 722.241 L503.454 722.241 L503.454 728.098 L498.107 728.098 Q501.289 729.944 502.849 732.776 Q504.377 735.577 504.377 739.524 Q504.377 745.985 499.221 750.059 Q494.064 754.102 485.662 754.102 Q477.259 754.102 472.103 750.059 Q466.946 745.985 466.946 739.524 Q466.946 735.577 468.506 732.776 Q470.034 729.944 473.217 728.098 M485.662 748.054 Q492.123 748.054 495.815 745.412 Q499.475 742.739 499.475 738.092 Q499.475 733.445 495.815 730.771 Q492.123 728.098 485.662 728.098 Q479.2 728.098 475.54 730.771 Q471.848 733.445 471.848 738.092 Q471.848 742.739 475.54 745.412 Q479.2 748.054 485.662 748.054 Z" fill="#000000" fill-rule="nonzero" fill-opacity="1" /><path clip-path="url(#clip900)" d="M484.166 679.686 L487.03 679.686 L487.03 706.613 Q493.078 706.231 496.261 702.985 Q499.412 699.707 499.412 693.882 Q499.412 690.508 498.584 687.357 Q497.756 684.174 496.101 681.055 L501.64 681.055 Q502.976 684.206 503.677 687.516 Q504.377 690.826 504.377 694.232 Q504.377 702.762 499.412 707.759 Q494.446 712.724 485.98 712.724 Q477.227 712.724 472.103 708.014 Q466.946 703.271 466.946 695.251 Q466.946 688.057 471.593 683.888 Q476.209 679.686 484.166 679.686 M482.447 685.543 Q477.641 685.607 474.776 688.248 Q471.912 690.858 471.912 695.187 Q471.912 700.089 474.681 703.049 Q477.45 705.977 482.479 706.422 L482.447 685.543 Z" fill="#000000" fill-rule="nonzero" fill-opacity="1" /><path clip-path="url(#clip900)" d="M467.806 641.588 L485.152 654.478 L503.454 640.919 L503.454 647.826 L489.449 658.202 L503.454 668.578 L503.454 675.485 L484.802 661.64 L467.806 674.307 L467.806 667.401 L480.505 657.948 L467.806 648.494 L467.806 641.588 Z" fill="#000000" fill-rule="nonzero" fill-opacity="1" /><path clip-path="url(#clip900)" d="M486.871 591.139 L479.519 592.54 Q471.975 593.972 471.975 599.638 Q471.975 603.903 475.477 605.844 Q479.869 608.295 485.662 608.295 Q492.664 608.295 496.006 605.908 Q499.412 603.489 499.412 599.638 Q499.412 595.373 492.632 593.081 L486.871 591.139 M477.132 587.861 L467.806 584.71 L467.806 579.49 L487.126 586.015 L494.096 584.742 Q495.656 584.455 496.961 583.341 Q498.489 582.036 498.489 581.018 L498.489 578.217 L503.454 578.217 L503.454 581.718 Q503.454 584.71 500.78 587.384 Q499.443 588.689 496.642 589.23 Q500.175 590.694 502.945 593.686 Q504.25 595.086 504.25 599.638 Q504.25 607.117 499.412 610.746 Q494.414 614.47 485.662 614.47 Q476.304 614.47 471.912 610.428 Q467.01 605.94 467.01 599.638 Q467.01 589.739 477.132 587.861 Z" fill="#000000" fill-rule="nonzero" fill-opacity="1" /><path clip-path="url(#clip900)" d="M499.825 566.568 L499.825 553.073 L503.454 553.073 L503.454 572.106 L499.953 572.106 Q498.966 571.024 497.184 569.019 Q487.476 558.07 484.484 558.07 Q482.383 558.07 481.11 559.725 Q479.805 561.38 479.805 564.085 Q479.805 565.74 480.378 567.682 Q480.919 569.623 482.033 571.915 L478.118 571.915 Q477.227 569.464 476.781 567.364 Q476.336 565.231 476.336 563.417 Q476.336 558.802 478.437 556.033 Q480.537 553.264 483.975 553.264 Q488.399 553.264 497.438 563.799 Q498.966 565.581 499.825 566.568 Z" fill="#000000" fill-rule="nonzero" fill-opacity="1" /><path clip-path="url(#clip900)" d="M485.476 12.096 L497.669 12.096 L513.103 53.2532 L528.618 12.096 L540.812 12.096 L540.812 72.576 L532.831 72.576 L532.831 19.4686 L517.235 60.9499 L509.012 60.9499 L493.416 19.4686 L493.416 72.576 L485.476 72.576 L485.476 12.096 Z" fill="#000000" fill-rule="nonzero" fill-opacity="1" /><path clip-path="url(#clip900)" d="M555.962 54.671 L555.962 27.2059 L563.416 27.2059 L563.416 54.3874 Q563.416 60.8284 565.927 64.0691 Q568.439 67.2693 573.462 67.2693 Q579.498 67.2693 582.982 63.421 Q586.506 59.5726 586.506 52.9291 L586.506 27.2059 L593.959 27.2059 L593.959 72.576 L586.506 72.576 L586.506 65.6084 Q583.792 69.7404 580.186 71.7658 Q576.622 73.7508 571.882 73.7508 Q564.064 73.7508 560.013 68.8897 Q555.962 64.0286 555.962 54.671 M574.718 26.1121 L574.718 26.1121 Z" fill="#000000" fill-rule="nonzero" fill-opacity="1" /><path clip-path="url(#clip900)" d="M609.312 9.54393 L616.766 9.54393 L616.766 72.576 L609.312 72.576 L609.312 9.54393 Z" fill="#000000" fill-rule="nonzero" fill-opacity="1" /><path clip-path="url(#clip900)" d="M639.735 14.324 L639.735 27.2059 L655.088 27.2059 L655.088 32.9987 L639.735 32.9987 L639.735 57.6282 Q639.735 63.1779 641.234 64.7578 Q642.773 66.3376 647.431 66.3376 L655.088 66.3376 L655.088 72.576 L647.431 72.576 Q638.803 72.576 635.522 69.3758 Q632.241 66.1351 632.241 57.6282 L632.241 32.9987 L626.772 32.9987 L626.772 27.2059 L632.241 27.2059 L632.241 14.324 L639.735 14.324 Z" fill="#000000" fill-rule="nonzero" fill-opacity="1" /><path clip-path="url(#clip900)" d="M664.891 27.2059 L672.344 27.2059 L672.344 72.576 L664.891 72.576 L664.891 27.2059 M664.891 9.54393 L672.344 9.54393 L672.344 18.9825 L664.891 18.9825 L664.891 9.54393 Z" fill="#000000" fill-rule="nonzero" fill-opacity="1" /><path clip-path="url(#clip900)" d="M684.173 46.5287 L706.007 46.5287 L706.007 53.1722 L684.173 53.1722 L684.173 46.5287 Z" fill="#000000" fill-rule="nonzero" fill-opacity="1" /><path clip-path="url(#clip900)" d="M717.877 27.2059 L725.33 27.2059 L725.33 72.576 L717.877 72.576 L717.877 27.2059 M717.877 9.54393 L725.33 9.54393 L725.33 18.9825 L717.877 18.9825 L717.877 9.54393 Z" fill="#000000" fill-rule="nonzero" fill-opacity="1" /><path clip-path="url(#clip900)" d="M778.64 45.1919 L778.64 72.576 L771.187 72.576 L771.187 45.4349 Q771.187 38.994 768.675 35.7938 Q766.163 32.5936 761.14 32.5936 Q755.104 32.5936 751.621 36.4419 Q748.137 40.2903 748.137 46.9338 L748.137 72.576 L740.643 72.576 L740.643 27.2059 L748.137 27.2059 L748.137 34.2544 Q750.81 30.163 754.416 28.1376 Q758.062 26.1121 762.801 26.1121 Q770.619 26.1121 774.63 30.9732 Q778.64 35.7938 778.64 45.1919 Z" fill="#000000" fill-rule="nonzero" fill-opacity="1" /><path clip-path="url(#clip900)" d="M823.362 34.0924 L823.362 9.54393 L830.816 9.54393 L830.816 72.576 L823.362 72.576 L823.362 65.7705 Q821.013 69.8214 817.407 71.8063 Q813.843 73.7508 808.819 73.7508 Q800.596 73.7508 795.411 67.1883 Q790.266 60.6258 790.266 49.9314 Q790.266 39.2371 795.411 32.6746 Q800.596 26.1121 808.819 26.1121 Q813.843 26.1121 817.407 28.0971 Q821.013 30.0415 823.362 34.0924 M797.963 49.9314 Q797.963 58.1548 801.325 62.8538 Q804.728 67.5124 810.642 67.5124 Q816.557 67.5124 819.959 62.8538 Q823.362 58.1548 823.362 49.9314 Q823.362 41.7081 819.959 37.0496 Q816.557 32.3505 810.642 32.3505 Q804.728 32.3505 801.325 37.0496 Q797.963 41.7081 797.963 49.9314 Z" fill="#000000" fill-rule="nonzero" fill-opacity="1" /><path clip-path="url(#clip900)" d="M884.976 48.0275 L884.976 51.6733 L850.706 51.6733 Q851.192 59.3701 855.324 63.421 Q859.496 67.4314 866.909 67.4314 Q871.203 67.4314 875.214 66.3781 Q879.265 65.3249 883.235 63.2184 L883.235 70.267 Q879.224 71.9684 875.011 72.8596 Q870.798 73.7508 866.464 73.7508 Q855.607 73.7508 849.247 67.4314 Q842.928 61.1119 842.928 50.3365 Q842.928 39.1965 848.923 32.6746 Q854.959 26.1121 865.168 26.1121 Q874.323 26.1121 879.629 32.0264 Q884.976 37.9003 884.976 48.0275 M877.523 45.84 Q877.442 39.7232 874.079 36.0774 Q870.758 32.4315 865.249 32.4315 Q859.01 32.4315 855.243 35.9558 Q851.516 39.4801 850.949 45.8805 L877.523 45.84 Z" fill="#000000" fill-rule="nonzero" fill-opacity="1" /><path clip-path="url(#clip900)" d="M933.466 27.2059 L917.06 49.2833 L934.316 72.576 L925.526 72.576 L912.32 54.752 L899.114 72.576 L890.324 72.576 L907.945 48.8377 L891.822 27.2059 L900.613 27.2059 L912.644 43.369 L924.675 27.2059 L933.466 27.2059 Z" fill="#000000" fill-rule="nonzero" fill-opacity="1" /><path clip-path="url(#clip900)" d="M1007.8 14.0809 L1007.8 22.0612 Q1003.14 19.8332 999.009 18.7395 Q994.877 17.6457 991.029 17.6457 Q984.345 17.6457 980.699 20.2383 Q977.094 22.8309 977.094 27.611 Q977.094 31.6214 979.484 33.6873 Q981.915 35.7128 988.639 36.9686 L993.581 37.9813 Q1002.74 39.7232 1007.07 44.1387 Q1011.45 48.5136 1011.45 55.8863 Q1011.45 64.6767 1005.53 69.2137 Q999.658 73.7508 988.274 73.7508 Q983.981 73.7508 979.119 72.7785 Q974.299 71.8063 969.114 69.9024 L969.114 61.4765 Q974.096 64.2716 978.876 65.6895 Q983.656 67.1073 988.274 67.1073 Q995.283 67.1073 999.09 64.3527 Q1002.9 61.598 1002.9 56.4939 Q1002.9 52.0379 1000.14 49.5264 Q997.43 47.0148 991.191 45.759 L986.209 44.7868 Q977.053 42.9639 972.962 39.075 Q968.871 35.1862 968.871 28.2591 Q968.871 20.2383 974.501 15.6203 Q980.173 11.0023 990.097 11.0023 Q994.351 11.0023 998.766 11.7719 Q1003.18 12.5416 1007.8 14.0809 Z" fill="#000000" fill-rule="nonzero" fill-opacity="1" /><path clip-path="url(#clip900)" d="M1062.69 48.0275 L1062.69 51.6733 L1028.42 51.6733 Q1028.91 59.3701 1033.04 63.421 Q1037.21 67.4314 1044.62 67.4314 Q1048.92 67.4314 1052.93 66.3781 Q1056.98 65.3249 1060.95 63.2184 L1060.95 70.267 Q1056.94 71.9684 1052.72 72.8596 Q1048.51 73.7508 1044.18 73.7508 Q1033.32 73.7508 1026.96 67.4314 Q1020.64 61.1119 1020.64 50.3365 Q1020.64 39.1965 1026.64 32.6746 Q1032.67 26.1121 1042.88 26.1121 Q1052.04 26.1121 1057.34 32.0264 Q1062.69 37.9003 1062.69 48.0275 M1055.24 45.84 Q1055.15 39.7232 1051.79 36.0774 Q1048.47 32.4315 1042.96 32.4315 Q1036.72 32.4315 1032.96 35.9558 Q1029.23 39.4801 1028.66 45.8805 L1055.24 45.84 Z" fill="#000000" fill-rule="nonzero" fill-opacity="1" /><path clip-path="url(#clip900)" d="M1082.3 14.324 L1082.3 27.2059 L1097.65 27.2059 L1097.65 32.9987 L1082.3 32.9987 L1082.3 57.6282 Q1082.3 63.1779 1083.79 64.7578 Q1085.33 66.3376 1089.99 66.3376 L1097.65 66.3376 L1097.65 72.576 L1089.99 72.576 Q1081.36 72.576 1078.08 69.3758 Q1074.8 66.1351 1074.8 57.6282 L1074.8 32.9987 L1069.33 32.9987 L1069.33 27.2059 L1074.8 27.2059 L1074.8 14.324 L1082.3 14.324 Z" fill="#000000" fill-rule="nonzero" fill-opacity="1" /><path clip-path="url(#clip900)" d="M1151.4 32.4315 Q1145.41 32.4315 1141.93 37.1306 Q1138.44 41.7891 1138.44 49.9314 Q1138.44 58.0738 1141.88 62.7728 Q1145.37 67.4314 1151.4 67.4314 Q1157.36 67.4314 1160.84 62.7323 Q1164.33 58.0333 1164.33 49.9314 Q1164.33 41.8701 1160.84 37.1711 Q1157.36 32.4315 1151.4 32.4315 M1151.4 26.1121 Q1161.13 26.1121 1166.68 32.4315 Q1172.23 38.7509 1172.23 49.9314 Q1172.23 61.0714 1166.68 67.4314 Q1161.13 73.7508 1151.4 73.7508 Q1141.64 73.7508 1136.09 67.4314 Q1130.58 61.0714 1130.58 49.9314 Q1130.58 38.7509 1136.09 32.4315 Q1141.64 26.1121 1151.4 26.1121 Z" fill="#000000" fill-rule="nonzero" fill-opacity="1" /><path clip-path="url(#clip900)" d="M1207.55 9.54393 L1207.55 15.7418 L1200.42 15.7418 Q1196.41 15.7418 1194.83 17.3622 Q1193.29 18.9825 1193.29 23.1955 L1193.29 27.2059 L1205.56 27.2059 L1205.56 32.9987 L1193.29 32.9987 L1193.29 72.576 L1185.8 72.576 L1185.8 32.9987 L1178.67 32.9987 L1178.67 27.2059 L1185.8 27.2059 L1185.8 24.0462 Q1185.8 16.471 1189.32 13.0277 Q1192.85 9.54393 1200.5 9.54393 L1207.55 9.54393 Z" fill="#000000" fill-rule="nonzero" fill-opacity="1" /><path clip-path="url(#clip900)" d="M1240.48 12.096 L1252.68 12.096 L1268.11 53.2532 L1283.63 12.096 L1295.82 12.096 L1295.82 72.576 L1287.84 72.576 L1287.84 19.4686 L1272.24 60.9499 L1264.02 60.9499 L1248.42 19.4686 L1248.42 72.576 L1240.48 72.576 L1240.48 12.096 Z" fill="#000000" fill-rule="nonzero" fill-opacity="1" /><path clip-path="url(#clip900)" d="M1332.36 49.7694 Q1323.32 49.7694 1319.84 51.8354 Q1316.36 53.9013 1316.36 58.8839 Q1316.36 62.8538 1318.95 65.2034 Q1321.58 67.5124 1326.08 67.5124 Q1332.28 67.5124 1336 63.1374 Q1339.77 58.7219 1339.77 51.4303 L1339.77 49.7694 L1332.36 49.7694 M1347.23 46.6907 L1347.23 72.576 L1339.77 72.576 L1339.77 65.6895 Q1337.22 69.8214 1333.41 71.8063 Q1329.6 73.7508 1324.09 73.7508 Q1317.13 73.7508 1312.99 69.8619 Q1308.9 65.9325 1308.9 59.3701 Q1308.9 51.7138 1314.01 47.825 Q1319.15 43.9361 1329.32 43.9361 L1339.77 43.9361 L1339.77 43.2069 Q1339.77 38.0623 1336.37 35.2672 Q1333.01 32.4315 1326.89 32.4315 Q1323 32.4315 1319.31 33.3632 Q1315.63 34.295 1312.23 36.1584 L1312.23 29.2718 Q1316.32 27.692 1320.17 26.9223 Q1324.01 26.1121 1327.66 26.1121 Q1337.5 26.1121 1342.36 31.2163 Q1347.23 36.3204 1347.23 46.6907 Z" fill="#000000" fill-rule="nonzero" fill-opacity="1" /><path clip-path="url(#clip900)" d="M1369.79 65.7705 L1369.79 89.8329 L1362.29 89.8329 L1362.29 27.2059 L1369.79 27.2059 L1369.79 34.0924 Q1372.14 30.0415 1375.7 28.0971 Q1379.31 26.1121 1384.29 26.1121 Q1392.55 26.1121 1397.7 32.6746 Q1402.88 39.2371 1402.88 49.9314 Q1402.88 60.6258 1397.7 67.1883 Q1392.55 73.7508 1384.29 73.7508 Q1379.31 73.7508 1375.7 71.8063 Q1372.14 69.8214 1369.79 65.7705 M1395.15 49.9314 Q1395.15 41.7081 1391.74 37.0496 Q1388.38 32.3505 1382.47 32.3505 Q1376.55 32.3505 1373.15 37.0496 Q1369.79 41.7081 1369.79 49.9314 Q1369.79 58.1548 1373.15 62.8538 Q1376.55 67.5124 1382.47 67.5124 Q1388.38 67.5124 1391.74 62.8538 Q1395.15 58.1548 1395.15 49.9314 Z" fill="#000000" fill-rule="nonzero" fill-opacity="1" /><path clip-path="url(#clip900)" d="M1487.22 16.7545 L1487.22 25.383 Q1483.09 21.5346 1478.39 19.6307 Q1473.73 17.7268 1468.47 17.7268 Q1458.1 17.7268 1452.59 24.0867 Q1447.08 30.4061 1447.08 42.3968 Q1447.08 54.3469 1452.59 60.7069 Q1458.1 67.0263 1468.47 67.0263 Q1473.73 67.0263 1478.39 65.1223 Q1483.09 63.2184 1487.22 59.3701 L1487.22 67.9175 Q1482.93 70.8341 1478.11 72.2924 Q1473.33 73.7508 1467.98 73.7508 Q1454.25 73.7508 1446.35 65.3654 Q1438.45 56.9395 1438.45 42.3968 Q1438.45 27.8135 1446.35 19.4281 Q1454.25 11.0023 1467.98 11.0023 Q1473.41 11.0023 1478.19 12.4606 Q1483.01 13.8784 1487.22 16.7545 Z" fill="#000000" fill-rule="nonzero" fill-opacity="1" /><path clip-path="url(#clip900)" d="M1517.12 32.4315 Q1511.12 32.4315 1507.64 37.1306 Q1504.16 41.7891 1504.16 49.9314 Q1504.16 58.0738 1507.6 62.7728 Q1511.08 67.4314 1517.12 67.4314 Q1523.07 67.4314 1526.56 62.7323 Q1530.04 58.0333 1530.04 49.9314 Q1530.04 41.8701 1526.56 37.1711 Q1523.07 32.4315 1517.12 32.4315 M1517.12 26.1121 Q1526.84 26.1121 1532.39 32.4315 Q1537.94 38.7509 1537.94 49.9314 Q1537.94 61.0714 1532.39 67.4314 Q1526.84 73.7508 1517.12 73.7508 Q1507.36 73.7508 1501.81 67.4314 Q1496.3 61.0714 1496.3 49.9314 Q1496.3 38.7509 1501.81 32.4315 Q1507.36 26.1121 1517.12 26.1121 Z" fill="#000000" fill-rule="nonzero" fill-opacity="1" /><path clip-path="url(#clip900)" d="M1585.62 35.9153 Q1588.42 30.8922 1592.3 28.5022 Q1596.19 26.1121 1601.46 26.1121 Q1608.55 26.1121 1612.4 31.0947 Q1616.25 36.0368 1616.25 45.1919 L1616.25 72.576 L1608.75 72.576 L1608.75 45.4349 Q1608.75 38.913 1606.44 35.7533 Q1604.13 32.5936 1599.39 32.5936 Q1593.6 32.5936 1590.24 36.4419 Q1586.88 40.2903 1586.88 46.9338 L1586.88 72.576 L1579.38 72.576 L1579.38 45.4349 Q1579.38 38.8725 1577.07 35.7533 Q1574.76 32.5936 1569.94 32.5936 Q1564.23 32.5936 1560.87 36.4824 Q1557.51 40.3308 1557.51 46.9338 L1557.51 72.576 L1550.01 72.576 L1550.01 27.2059 L1557.51 27.2059 L1557.51 34.2544 Q1560.06 30.082 1563.62 28.0971 Q1567.19 26.1121 1572.09 26.1121 Q1577.03 26.1121 1580.48 28.6237 Q1583.96 31.1352 1585.62 35.9153 Z" fill="#000000" fill-rule="nonzero" fill-opacity="1" /><path clip-path="url(#clip900)" d="M1638.32 65.7705 L1638.32 89.8329 L1630.83 89.8329 L1630.83 27.2059 L1638.32 27.2059 L1638.32 34.0924 Q1640.67 30.0415 1644.24 28.0971 Q1647.84 26.1121 1652.83 26.1121 Q1661.09 26.1121 1666.23 32.6746 Q1671.42 39.2371 1671.42 49.9314 Q1671.42 60.6258 1666.23 67.1883 Q1661.09 73.7508 1652.83 73.7508 Q1647.84 73.7508 1644.24 71.8063 Q1640.67 69.8214 1638.32 65.7705 M1663.68 49.9314 Q1663.68 41.7081 1660.28 37.0496 Q1656.92 32.3505 1651 32.3505 Q1645.09 32.3505 1641.69 37.0496 Q1638.32 41.7081 1638.32 49.9314 Q1638.32 58.1548 1641.69 62.8538 Q1645.09 67.5124 1651 67.5124 Q1656.92 67.5124 1660.28 62.8538 Q1663.68 58.1548 1663.68 49.9314 Z" fill="#000000" fill-rule="nonzero" fill-opacity="1" /><path clip-path="url(#clip900)" d="M1701.36 32.4315 Q1695.36 32.4315 1691.88 37.1306 Q1688.39 41.7891 1688.39 49.9314 Q1688.39 58.0738 1691.84 62.7728 Q1695.32 67.4314 1701.36 67.4314 Q1707.31 67.4314 1710.79 62.7323 Q1714.28 58.0333 1714.28 49.9314 Q1714.28 41.8701 1710.79 37.1711 Q1707.31 32.4315 1701.36 32.4315 M1701.36 26.1121 Q1711.08 26.1121 1716.63 32.4315 Q1722.18 38.7509 1722.18 49.9314 Q1722.18 61.0714 1716.63 67.4314 Q1711.08 73.7508 1701.36 73.7508 Q1691.59 73.7508 1686.04 67.4314 Q1680.53 61.0714 1680.53 49.9314 Q1680.53 38.7509 1686.04 32.4315 Q1691.59 26.1121 1701.36 26.1121 Z" fill="#000000" fill-rule="nonzero" fill-opacity="1" /><path clip-path="url(#clip900)" d="M1772.25 45.1919 L1772.25 72.576 L1764.79 72.576 L1764.79 45.4349 Q1764.79 38.994 1762.28 35.7938 Q1759.77 32.5936 1754.75 32.5936 Q1748.71 32.5936 1745.23 36.4419 Q1741.74 40.2903 1741.74 46.9338 L1741.74 72.576 L1734.25 72.576 L1734.25 27.2059 L1741.74 27.2059 L1741.74 34.2544 Q1744.42 30.163 1748.02 28.1376 Q1751.67 26.1121 1756.41 26.1121 Q1764.23 26.1121 1768.24 30.9732 Q1772.25 35.7938 1772.25 45.1919 Z" fill="#000000" fill-rule="nonzero" fill-opacity="1" /><path clip-path="url(#clip900)" d="M1825.92 48.0275 L1825.92 51.6733 L1791.65 51.6733 Q1792.14 59.3701 1796.27 63.421 Q1800.44 67.4314 1807.85 67.4314 Q1812.15 67.4314 1816.16 66.3781 Q1820.21 65.3249 1824.18 63.2184 L1824.18 70.267 Q1820.17 71.9684 1815.96 72.8596 Q1811.74 73.7508 1807.41 73.7508 Q1796.55 73.7508 1790.19 67.4314 Q1783.87 61.1119 1783.87 50.3365 Q1783.87 39.1965 1789.87 32.6746 Q1795.9 26.1121 1806.11 26.1121 Q1815.27 26.1121 1820.57 32.0264 Q1825.92 37.9003 1825.92 48.0275 M1818.47 45.84 Q1818.39 39.7232 1815.02 36.0774 Q1811.7 32.4315 1806.19 32.4315 Q1799.95 32.4315 1796.19 35.9558 Q1792.46 39.4801 1791.89 45.8805 L1818.47 45.84 Z" fill="#000000" fill-rule="nonzero" fill-opacity="1" /><path clip-path="url(#clip900)" d="M1875.87 45.1919 L1875.87 72.576 L1868.41 72.576 L1868.41 45.4349 Q1868.41 38.994 1865.9 35.7938 Q1863.39 32.5936 1858.37 32.5936 Q1852.33 32.5936 1848.85 36.4419 Q1845.36 40.2903 1845.36 46.9338 L1845.36 72.576 L1837.87 72.576 L1837.87 27.2059 L1845.36 27.2059 L1845.36 34.2544 Q1848.04 30.163 1851.64 28.1376 Q1855.29 26.1121 1860.03 26.1121 Q1867.85 26.1121 1871.86 30.9732 Q1875.87 35.7938 1875.87 45.1919 Z" fill="#000000" fill-rule="nonzero" fill-opacity="1" /><path clip-path="url(#clip900)" d="M1898.11 14.324 L1898.11 27.2059 L1913.46 27.2059 L1913.46 32.9987 L1898.11 32.9987 L1898.11 57.6282 Q1898.11 63.1779 1899.61 64.7578 Q1901.15 66.3376 1905.8 66.3376 L1913.46 66.3376 L1913.46 72.576 L1905.8 72.576 Q1897.18 72.576 1893.89 69.3758 Q1890.61 66.1351 1890.61 57.6282 L1890.61 32.9987 L1885.14 32.9987 L1885.14 27.2059 L1890.61 27.2059 L1890.61 14.324 L1898.11 14.324 Z" fill="#000000" fill-rule="nonzero" fill-opacity="1" /><path clip-path="url(#clip900)" d="M1949.96 12.096 L1962.15 12.096 L1977.59 53.2532 L1993.1 12.096 L2005.29 12.096 L2005.29 72.576 L1997.31 72.576 L1997.31 19.4686 L1981.72 60.9499 L1973.49 60.9499 L1957.9 19.4686 L1957.9 72.576 L1949.96 72.576 L1949.96 12.096 Z" fill="#000000" fill-rule="nonzero" fill-opacity="1" /><path clip-path="url(#clip900)" d="M2024.25 40.8979 L2041.43 40.8979 L2041.43 45.516 L2017.2 45.516 L2017.2 41.06 Q2018.58 39.8042 2021.13 37.5357 Q2035.07 25.1804 2035.07 21.3726 Q2035.07 18.699 2032.96 17.0786 Q2030.86 15.4177 2027.41 15.4177 Q2025.31 15.4177 2022.83 16.1469 Q2020.36 16.8356 2017.45 18.2534 L2017.45 13.2708 Q2020.57 12.1365 2023.24 11.5694 Q2025.95 11.0023 2028.26 11.0023 Q2034.14 11.0023 2037.66 13.6759 Q2041.19 16.3494 2041.19 20.7244 Q2041.19 26.3552 2027.78 37.8598 Q2025.51 39.8042 2024.25 40.8979 Z" fill="#000000" fill-rule="nonzero" fill-opacity="1" /><circle clip-path="url(#clip902)" cx="776.062" cy="1260.72" r="72" fill="#009af9" fill-rule="evenodd" fill-opacity="1" stroke="#000000" stroke-opacity="1" stroke-width="3.2"/>
<circle clip-path="url(#clip902)" cx="1100.99" cy="1260.72" r="72" fill="#009af9" fill-rule="evenodd" fill-opacity="1" stroke="#000000" stroke-opacity="1" stroke-width="3.2"/>
<circle clip-path="url(#clip902)" cx="776.062" cy="935.789" r="72" fill="#009af9" fill-rule="evenodd" fill-opacity="1" stroke="#000000" stroke-opacity="1" stroke-width="3.2"/>
<circle clip-path="url(#clip902)" cx="1425.92" cy="1260.72" r="72" fill="#009af9" fill-rule="evenodd" fill-opacity="1" stroke="#000000" stroke-opacity="1" stroke-width="3.2"/>
<circle clip-path="url(#clip902)" cx="1100.99" cy="935.789" r="72" fill="#009af9" fill-rule="evenodd" fill-opacity="1" stroke="#000000" stroke-opacity="1" stroke-width="3.2"/>
<circle clip-path="url(#clip902)" cx="776.062" cy="610.863" r="72" fill="#009af9" fill-rule="evenodd" fill-opacity="1" stroke="#000000" stroke-opacity="1" stroke-width="3.2"/>
<circle clip-path="url(#clip902)" cx="1750.84" cy="1260.72" r="72" fill="#009af9" fill-rule="evenodd" fill-opacity="1" stroke="#000000" stroke-opacity="1" stroke-width="3.2"/>
<circle clip-path="url(#clip902)" cx="1425.92" cy="935.789" r="72" fill="#009af9" fill-rule="evenodd" fill-opacity="1" stroke="#000000" stroke-opacity="1" stroke-width="3.2"/>
<circle clip-path="url(#clip902)" cx="1100.99" cy="610.863" r="72" fill="#009af9" fill-rule="evenodd" fill-opacity="1" stroke="#000000" stroke-opacity="1" stroke-width="3.2"/>
<circle clip-path="url(#clip902)" cx="776.062" cy="285.936" r="72" fill="#009af9" fill-rule="evenodd" fill-opacity="1" stroke="#000000" stroke-opacity="1" stroke-width="3.2"/>
<circle clip-path="url(#clip902)" cx="776.062" cy="1260.72" r="43.2" fill="#e26f46" fill-rule="evenodd" fill-opacity="1" stroke="#000000" stroke-opacity="1" stroke-width="3.2"/>
<circle clip-path="url(#clip902)" cx="1100.99" cy="1260.72" r="43.2" fill="#e26f46" fill-rule="evenodd" fill-opacity="1" stroke="#000000" stroke-opacity="1" stroke-width="3.2"/>
<circle clip-path="url(#clip902)" cx="1425.92" cy="1260.72" r="43.2" fill="#e26f46" fill-rule="evenodd" fill-opacity="1" stroke="#000000" stroke-opacity="1" stroke-width="3.2"/>
<circle clip-path="url(#clip902)" cx="1750.84" cy="1260.72" r="43.2" fill="#e26f46" fill-rule="evenodd" fill-opacity="1" stroke="#000000" stroke-opacity="1" stroke-width="3.2"/>
<circle clip-path="url(#clip902)" cx="776.062" cy="935.789" r="43.2" fill="#e26f46" fill-rule="evenodd" fill-opacity="1" stroke="#000000" stroke-opacity="1" stroke-width="3.2"/>
<circle clip-path="url(#clip902)" cx="776.062" cy="610.863" r="43.2" fill="#e26f46" fill-rule="evenodd" fill-opacity="1" stroke="#000000" stroke-opacity="1" stroke-width="3.2"/>
<circle clip-path="url(#clip902)" cx="776.062" cy="285.936" r="43.2" fill="#e26f46" fill-rule="evenodd" fill-opacity="1" stroke="#000000" stroke-opacity="1" stroke-width="3.2"/>
<circle clip-path="url(#clip902)" cx="776.062" cy="1260.72" r="21.6" fill="#3da44d" fill-rule="evenodd" fill-opacity="1" stroke="#000000" stroke-opacity="1" stroke-width="3.2"/>
<circle clip-path="url(#clip902)" cx="776.062" cy="935.789" r="21.6" fill="#3da44d" fill-rule="evenodd" fill-opacity="1" stroke="#000000" stroke-opacity="1" stroke-width="3.2"/>
<circle clip-path="url(#clip902)" cx="776.062" cy="610.863" r="21.6" fill="#3da44d" fill-rule="evenodd" fill-opacity="1" stroke="#000000" stroke-opacity="1" stroke-width="3.2"/>
<circle clip-path="url(#clip902)" cx="776.062" cy="285.936" r="21.6" fill="#3da44d" fill-rule="evenodd" fill-opacity="1" stroke="#000000" stroke-opacity="1" stroke-width="3.2"/>
<path clip-path="url(#clip900)" d="M1362.18 374.156 L1840.69 374.156 L1840.69 166.796 L1362.18 166.796  Z" fill="#ffffff" fill-rule="evenodd" fill-opacity="1"/>
<polyline clip-path="url(#clip900)" style="stroke:#000000; stroke-linecap:round; stroke-linejoin:round; stroke-width:4; stroke-opacity:1; fill:none" points="1362.18,374.156 1840.69,374.156 1840.69,166.796 1362.18,166.796 1362.18,374.156 "/>
<circle clip-path="url(#clip900)" cx="1459.01" cy="218.636" r="22.478" fill="#009af9" fill-rule="evenodd" fill-opacity="1" stroke="#000000" stroke-opacity="1" stroke-width="0.999024"/>
<path clip-path="url(#clip900)" d="M1555.83 201.356 L1585.07 201.356 L1585.07 205.291 L1572.8 205.291 L1572.8 235.916 L1568.1 235.916 L1568.1 205.291 L1555.83 205.291 L1555.83 201.356 Z" fill="#000000" fill-rule="nonzero" fill-opacity="1" /><path clip-path="url(#clip900)" d="M1591.39 212.976 Q1587.96 212.976 1585.97 215.661 Q1583.98 218.323 1583.98 222.976 Q1583.98 227.629 1585.95 230.314 Q1587.94 232.976 1591.39 232.976 Q1594.79 232.976 1596.78 230.291 Q1598.77 227.606 1598.77 222.976 Q1598.77 218.37 1596.78 215.684 Q1594.79 212.976 1591.39 212.976 M1591.39 209.365 Q1596.94 209.365 1600.11 212.976 Q1603.29 216.587 1603.29 222.976 Q1603.29 229.342 1600.11 232.976 Q1596.94 236.587 1591.39 236.587 Q1585.81 236.587 1582.64 232.976 Q1579.49 229.342 1579.49 222.976 Q1579.49 216.587 1582.64 212.976 Q1585.81 209.365 1591.39 209.365 Z" fill="#000000" fill-rule="nonzero" fill-opacity="1" /><path clip-path="url(#clip900)" d="M1614.56 202.629 L1614.56 209.99 L1623.33 209.99 L1623.33 213.3 L1614.56 213.3 L1614.56 227.374 Q1614.56 230.545 1615.42 231.448 Q1616.3 232.351 1618.96 232.351 L1623.33 232.351 L1623.33 235.916 L1618.96 235.916 Q1614.03 235.916 1612.15 234.087 Q1610.28 232.235 1610.28 227.374 L1610.28 213.3 L1607.15 213.3 L1607.15 209.99 L1610.28 209.99 L1610.28 202.629 L1614.56 202.629 Z" fill="#000000" fill-rule="nonzero" fill-opacity="1" /><path clip-path="url(#clip900)" d="M1640.72 222.883 Q1635.55 222.883 1633.56 224.064 Q1631.57 225.244 1631.57 228.092 Q1631.57 230.36 1633.05 231.703 Q1634.56 233.022 1637.13 233.022 Q1640.67 233.022 1642.8 230.522 Q1644.95 227.999 1644.95 223.832 L1644.95 222.883 L1640.72 222.883 M1649.21 221.124 L1649.21 235.916 L1644.95 235.916 L1644.95 231.981 Q1643.49 234.342 1641.32 235.476 Q1639.14 236.587 1635.99 236.587 Q1632.01 236.587 1629.65 234.365 Q1627.31 232.119 1627.31 228.369 Q1627.31 223.994 1630.23 221.772 Q1633.17 219.55 1638.98 219.55 L1644.95 219.55 L1644.95 219.133 Q1644.95 216.194 1643.01 214.596 Q1641.09 212.976 1637.59 212.976 Q1635.37 212.976 1633.26 213.508 Q1631.16 214.041 1629.21 215.106 L1629.21 211.17 Q1631.55 210.268 1633.75 209.828 Q1635.95 209.365 1638.03 209.365 Q1643.66 209.365 1646.43 212.282 Q1649.21 215.198 1649.21 221.124 Z" fill="#000000" fill-rule="nonzero" fill-opacity="1" /><path clip-path="url(#clip900)" d="M1657.98 199.897 L1662.24 199.897 L1662.24 235.916 L1657.98 235.916 L1657.98 199.897 Z" fill="#000000" fill-rule="nonzero" fill-opacity="1" /><path clip-path="url(#clip900)" d="M1700.44 204.527 Q1695.35 204.527 1692.34 208.323 Q1689.35 212.12 1689.35 218.67 Q1689.35 225.198 1692.34 228.994 Q1695.35 232.791 1700.44 232.791 Q1705.53 232.791 1708.49 228.994 Q1711.48 225.198 1711.48 218.67 Q1711.48 212.12 1708.49 208.323 Q1705.53 204.527 1700.44 204.527 M1700.44 200.731 Q1707.71 200.731 1712.06 205.615 Q1716.41 210.476 1716.41 218.67 Q1716.41 226.842 1712.06 231.726 Q1707.71 236.587 1700.44 236.587 Q1693.15 236.587 1688.77 231.726 Q1684.42 226.865 1684.42 218.67 Q1684.42 210.476 1688.77 205.615 Q1693.15 200.731 1700.44 200.731 Z" fill="#000000" fill-rule="nonzero" fill-opacity="1" /><path clip-path="url(#clip900)" d="M1738.56 213.971 Q1737.85 213.555 1736.99 213.37 Q1736.16 213.161 1735.14 213.161 Q1731.53 213.161 1729.58 215.522 Q1727.66 217.86 1727.66 222.258 L1727.66 235.916 L1723.38 235.916 L1723.38 209.99 L1727.66 209.99 L1727.66 214.018 Q1729 211.657 1731.16 210.522 Q1733.31 209.365 1736.39 209.365 Q1736.83 209.365 1737.36 209.434 Q1737.89 209.481 1738.54 209.596 L1738.56 213.971 Z" fill="#000000" fill-rule="nonzero" fill-opacity="1" /><path clip-path="url(#clip900)" d="M1759.26 213.925 L1759.26 199.897 L1763.52 199.897 L1763.52 235.916 L1759.26 235.916 L1759.26 232.027 Q1757.91 234.342 1755.85 235.476 Q1753.82 236.587 1750.95 236.587 Q1746.25 236.587 1743.29 232.837 Q1740.35 229.087 1740.35 222.976 Q1740.35 216.865 1743.29 213.115 Q1746.25 209.365 1750.95 209.365 Q1753.82 209.365 1755.85 210.499 Q1757.91 211.61 1759.26 213.925 M1744.74 222.976 Q1744.74 227.675 1746.66 230.36 Q1748.61 233.022 1751.99 233.022 Q1755.37 233.022 1757.31 230.36 Q1759.26 227.675 1759.26 222.976 Q1759.26 218.277 1757.31 215.615 Q1755.37 212.93 1751.99 212.93 Q1748.61 212.93 1746.66 215.615 Q1744.74 218.277 1744.74 222.976 Z" fill="#000000" fill-rule="nonzero" fill-opacity="1" /><path clip-path="url(#clip900)" d="M1794.47 221.888 L1794.47 223.971 L1774.88 223.971 Q1775.16 228.369 1777.52 230.684 Q1779.91 232.976 1784.14 232.976 Q1786.6 232.976 1788.89 232.374 Q1791.2 231.772 1793.47 230.569 L1793.47 234.596 Q1791.18 235.568 1788.77 236.078 Q1786.36 236.587 1783.89 236.587 Q1777.68 236.587 1774.05 232.976 Q1770.44 229.365 1770.44 223.207 Q1770.44 216.842 1773.86 213.115 Q1777.31 209.365 1783.15 209.365 Q1788.38 209.365 1791.41 212.745 Q1794.47 216.101 1794.47 221.888 M1790.21 220.638 Q1790.16 217.143 1788.24 215.059 Q1786.34 212.976 1783.19 212.976 Q1779.63 212.976 1777.47 214.99 Q1775.35 217.004 1775.02 220.661 L1790.21 220.638 Z" fill="#000000" fill-rule="nonzero" fill-opacity="1" /><path clip-path="url(#clip900)" d="M1816.48 213.971 Q1815.76 213.555 1814.91 213.37 Q1814.07 213.161 1813.05 213.161 Q1809.44 213.161 1807.5 215.522 Q1805.58 217.86 1805.58 222.258 L1805.58 235.916 L1801.29 235.916 L1801.29 209.99 L1805.58 209.99 L1805.58 214.018 Q1806.92 211.657 1809.07 210.522 Q1811.22 209.365 1814.3 209.365 Q1814.74 209.365 1815.28 209.434 Q1815.81 209.481 1816.46 209.596 L1816.48 213.971 Z" fill="#000000" fill-rule="nonzero" fill-opacity="1" /><circle clip-path="url(#clip900)" cx="1459.01" cy="270.476" r="22.1184" fill="#e26f46" fill-rule="evenodd" fill-opacity="1" stroke="#000000" stroke-opacity="1" stroke-width="1.6384"/>
<path clip-path="url(#clip900)" d="M1555.83 253.196 L1562.13 253.196 L1577.45 282.108 L1577.45 253.196 L1581.99 253.196 L1581.99 287.756 L1575.69 287.756 L1560.37 258.844 L1560.37 287.756 L1555.83 287.756 L1555.83 253.196 Z" fill="#000000" fill-rule="nonzero" fill-opacity="1" /><path clip-path="url(#clip900)" d="M1601.16 264.816 Q1597.73 264.816 1595.74 267.501 Q1593.75 270.163 1593.75 274.816 Q1593.75 279.469 1595.72 282.154 Q1597.71 284.816 1601.16 284.816 Q1604.56 284.816 1606.55 282.131 Q1608.54 279.446 1608.54 274.816 Q1608.54 270.21 1606.55 267.524 Q1604.56 264.816 1601.16 264.816 M1601.16 261.205 Q1606.71 261.205 1609.88 264.816 Q1613.05 268.427 1613.05 274.816 Q1613.05 281.182 1609.88 284.816 Q1606.71 288.427 1601.16 288.427 Q1595.58 288.427 1592.41 284.816 Q1589.26 281.182 1589.26 274.816 Q1589.26 268.427 1592.41 264.816 Q1595.58 261.205 1601.16 261.205 Z" fill="#000000" fill-rule="nonzero" fill-opacity="1" /><path clip-path="url(#clip900)" d="M1635.37 253.196 L1642.34 253.196 L1651.16 276.714 L1660.02 253.196 L1666.99 253.196 L1666.99 287.756 L1662.43 287.756 L1662.43 257.409 L1653.52 281.112 L1648.82 281.112 L1639.91 257.409 L1639.91 287.756 L1635.37 287.756 L1635.37 253.196 Z" fill="#000000" fill-rule="nonzero" fill-opacity="1" /><path clip-path="url(#clip900)" d="M1676.09 261.83 L1680.35 261.83 L1680.35 287.756 L1676.09 287.756 L1676.09 261.83 M1676.09 251.737 L1680.35 251.737 L1680.35 257.131 L1676.09 257.131 L1676.09 251.737 Z" fill="#000000" fill-rule="nonzero" fill-opacity="1" /><path clip-path="url(#clip900)" d="M1710.81 261.83 L1701.43 274.446 L1711.29 287.756 L1706.27 287.756 L1698.73 277.571 L1691.18 287.756 L1686.16 287.756 L1696.23 274.191 L1687.01 261.83 L1692.04 261.83 L1698.91 271.066 L1705.79 261.83 L1710.81 261.83 Z" fill="#000000" fill-rule="nonzero" fill-opacity="1" /><path clip-path="url(#clip900)" d="M1738.03 273.728 L1738.03 275.811 L1718.45 275.811 Q1718.73 280.209 1721.09 282.524 Q1723.47 284.816 1727.71 284.816 Q1730.16 284.816 1732.45 284.214 Q1734.77 283.612 1737.04 282.409 L1737.04 286.436 Q1734.74 287.408 1732.34 287.918 Q1729.93 288.427 1727.45 288.427 Q1721.25 288.427 1717.61 284.816 Q1714 281.205 1714 275.047 Q1714 268.682 1717.43 264.955 Q1720.88 261.205 1726.71 261.205 Q1731.94 261.205 1734.98 264.585 Q1738.03 267.941 1738.03 273.728 M1733.77 272.478 Q1733.73 268.983 1731.8 266.899 Q1729.91 264.816 1726.76 264.816 Q1723.19 264.816 1721.04 266.83 Q1718.91 268.844 1718.59 272.501 L1733.77 272.478 Z" fill="#000000" fill-rule="nonzero" fill-opacity="1" /><path clip-path="url(#clip900)" d="M1762.08 265.765 L1762.08 251.737 L1766.34 251.737 L1766.34 287.756 L1762.08 287.756 L1762.08 283.867 Q1760.74 286.182 1758.68 287.316 Q1756.64 288.427 1753.77 288.427 Q1749.07 288.427 1746.11 284.677 Q1743.17 280.927 1743.17 274.816 Q1743.17 268.705 1746.11 264.955 Q1749.07 261.205 1753.77 261.205 Q1756.64 261.205 1758.68 262.339 Q1760.74 263.45 1762.08 265.765 M1747.57 274.816 Q1747.57 279.515 1749.49 282.2 Q1751.43 284.862 1754.81 284.862 Q1758.19 284.862 1760.14 282.2 Q1762.08 279.515 1762.08 274.816 Q1762.08 270.117 1760.14 267.455 Q1758.19 264.77 1754.81 264.77 Q1751.43 264.77 1749.49 267.455 Q1747.57 270.117 1747.57 274.816 Z" fill="#000000" fill-rule="nonzero" fill-opacity="1" /><circle clip-path="url(#clip900)" cx="1459.01" cy="322.316" r="21.2677" fill="#3da44d" fill-rule="evenodd" fill-opacity="1" stroke="#000000" stroke-opacity="1" stroke-width="3.15077"/>
<path clip-path="url(#clip900)" d="M1560.51 308.878 L1560.51 335.753 L1566.16 335.753 Q1573.31 335.753 1576.62 332.512 Q1579.95 329.272 1579.95 322.281 Q1579.95 315.337 1576.62 312.119 Q1573.31 308.878 1566.16 308.878 L1560.51 308.878 M1555.83 305.036 L1565.44 305.036 Q1575.49 305.036 1580.18 309.226 Q1584.88 313.392 1584.88 322.281 Q1584.88 331.216 1580.16 335.406 Q1575.44 339.596 1565.44 339.596 L1555.83 339.596 L1555.83 305.036 Z" fill="#000000" fill-rule="nonzero" fill-opacity="1" /><path clip-path="url(#clip900)" d="M1592.15 313.67 L1596.41 313.67 L1596.41 339.596 L1592.15 339.596 L1592.15 313.67 M1592.15 303.577 L1596.41 303.577 L1596.41 308.971 L1592.15 308.971 L1592.15 303.577 Z" fill="#000000" fill-rule="nonzero" fill-opacity="1" /><path clip-path="url(#clip900)" d="M1617.11 326.563 Q1611.94 326.563 1609.95 327.744 Q1607.96 328.924 1607.96 331.772 Q1607.96 334.04 1609.44 335.383 Q1610.95 336.702 1613.52 336.702 Q1617.06 336.702 1619.19 334.202 Q1621.34 331.679 1621.34 327.512 L1621.34 326.563 L1617.11 326.563 M1625.6 324.804 L1625.6 339.596 L1621.34 339.596 L1621.34 335.661 Q1619.88 338.022 1617.71 339.156 Q1615.53 340.267 1612.38 340.267 Q1608.4 340.267 1606.04 338.045 Q1603.7 335.799 1603.7 332.049 Q1603.7 327.674 1606.62 325.452 Q1609.56 323.23 1615.37 323.23 L1621.34 323.23 L1621.34 322.813 Q1621.34 319.874 1619.4 318.276 Q1617.48 316.656 1613.98 316.656 Q1611.76 316.656 1609.65 317.188 Q1607.55 317.721 1605.6 318.786 L1605.6 314.85 Q1607.94 313.948 1610.14 313.508 Q1612.34 313.045 1614.42 313.045 Q1620.05 313.045 1622.82 315.962 Q1625.6 318.878 1625.6 324.804 Z" fill="#000000" fill-rule="nonzero" fill-opacity="1" /><path clip-path="url(#clip900)" d="M1651.43 326.332 Q1651.43 321.702 1649.51 319.156 Q1647.61 316.61 1644.17 316.61 Q1640.74 316.61 1638.82 319.156 Q1636.92 321.702 1636.92 326.332 Q1636.92 330.938 1638.82 333.485 Q1640.74 336.031 1644.17 336.031 Q1647.61 336.031 1649.51 333.485 Q1651.43 330.938 1651.43 326.332 M1655.69 336.378 Q1655.69 342.998 1652.75 346.216 Q1649.81 349.457 1643.75 349.457 Q1641.5 349.457 1639.51 349.11 Q1637.52 348.785 1635.65 348.091 L1635.65 343.948 Q1637.52 344.966 1639.35 345.452 Q1641.18 345.938 1643.08 345.938 Q1647.27 345.938 1649.35 343.739 Q1651.43 341.563 1651.43 337.142 L1651.43 335.036 Q1650.11 337.327 1648.05 338.461 Q1645.99 339.596 1643.12 339.596 Q1638.36 339.596 1635.44 335.961 Q1632.52 332.327 1632.52 326.332 Q1632.52 320.313 1635.44 316.679 Q1638.36 313.045 1643.12 313.045 Q1645.99 313.045 1648.05 314.179 Q1650.11 315.313 1651.43 317.605 L1651.43 313.67 L1655.69 313.67 L1655.69 336.378 Z" fill="#000000" fill-rule="nonzero" fill-opacity="1" /><path clip-path="url(#clip900)" d="M1674.51 316.656 Q1671.09 316.656 1669.1 319.341 Q1667.11 322.003 1667.11 326.656 Q1667.11 331.309 1669.07 333.994 Q1671.06 336.656 1674.51 336.656 Q1677.92 336.656 1679.91 333.971 Q1681.9 331.286 1681.9 326.656 Q1681.9 322.05 1679.91 319.364 Q1677.92 316.656 1674.51 316.656 M1674.51 313.045 Q1680.07 313.045 1683.24 316.656 Q1686.41 320.267 1686.41 326.656 Q1686.41 333.022 1683.24 336.656 Q1680.07 340.267 1674.51 340.267 Q1668.93 340.267 1665.76 336.656 Q1662.61 333.022 1662.61 326.656 Q1662.61 320.267 1665.76 316.656 Q1668.93 313.045 1674.51 313.045 Z" fill="#000000" fill-rule="nonzero" fill-opacity="1" /><path clip-path="url(#clip900)" d="M1715.02 323.948 L1715.02 339.596 L1710.76 339.596 L1710.76 324.087 Q1710.76 320.406 1709.33 318.577 Q1707.89 316.749 1705.02 316.749 Q1701.57 316.749 1699.58 318.948 Q1697.59 321.147 1697.59 324.943 L1697.59 339.596 L1693.31 339.596 L1693.31 313.67 L1697.59 313.67 L1697.59 317.698 Q1699.12 315.36 1701.18 314.202 Q1703.26 313.045 1705.97 313.045 Q1710.44 313.045 1712.73 315.823 Q1715.02 318.577 1715.02 323.948 Z" fill="#000000" fill-rule="nonzero" fill-opacity="1" /><path clip-path="url(#clip900)" d="M1735.3 326.563 Q1730.14 326.563 1728.15 327.744 Q1726.16 328.924 1726.16 331.772 Q1726.16 334.04 1727.64 335.383 Q1729.14 336.702 1731.71 336.702 Q1735.25 336.702 1737.38 334.202 Q1739.54 331.679 1739.54 327.512 L1739.54 326.563 L1735.3 326.563 M1743.79 324.804 L1743.79 339.596 L1739.54 339.596 L1739.54 335.661 Q1738.08 338.022 1735.9 339.156 Q1733.73 340.267 1730.58 340.267 Q1726.6 340.267 1724.23 338.045 Q1721.9 335.799 1721.9 332.049 Q1721.9 327.674 1724.81 325.452 Q1727.75 323.23 1733.56 323.23 L1739.54 323.23 L1739.54 322.813 Q1739.54 319.874 1737.59 318.276 Q1735.67 316.656 1732.17 316.656 Q1729.95 316.656 1727.85 317.188 Q1725.74 317.721 1723.79 318.786 L1723.79 314.85 Q1726.13 313.948 1728.33 313.508 Q1730.53 313.045 1732.61 313.045 Q1738.24 313.045 1741.02 315.962 Q1743.79 318.878 1743.79 324.804 Z" fill="#000000" fill-rule="nonzero" fill-opacity="1" /><path clip-path="url(#clip900)" d="M1752.57 303.577 L1756.83 303.577 L1756.83 339.596 L1752.57 339.596 L1752.57 303.577 Z" fill="#000000" fill-rule="nonzero" fill-opacity="1" /></svg>
