<?xml version="1.0" encoding="utf-8"?>
<svg xmlns="http://www.w3.org/2000/svg" xmlns:xlink="http://www.w3.org/1999/xlink" width="600" height="400" viewBox="0 0 2400 1600">
<defs>
  <clipPath id="clip450">
    <rect x="0" y="0" width="2400" height="1600"/>
  </clipPath>
</defs>
<path clip-path="url(#clip450)" d="M0 1600 L2400 1600 L2400 0 L0 0  Z" fill="#ffffff" fill-rule="evenodd" fill-opacity="1"/>
<defs>
  <clipPath id="clip451">
    <rect x="149" y="123" width="2205" height="1364"/>
  </clipPath>
</defs>
<path clip-path="url(#clip450)" d="M193.936 1486.45 L2352.76 1486.45 L2352.76 123.472 L193.936 123.472  Z" fill="#ffffff" fill-rule="evenodd" fill-opacity="1"/>
<defs>
  <clipPath id="clip452">
    <rect x="193" y="123" width="2160" height="1364"/>
  </clipPath>
</defs>
<polyline clip-path="url(#clip452)" style="stroke:#000000; stroke-linecap:round; stroke-linejoin:round; stroke-width:2; stroke-opacity:0.1; fill:none" points="277.261,1486.45 277.261,123.472 "/>
<polyline clip-path="url(#clip452)" style="stroke:#000000; stroke-linecap:round; stroke-linejoin:round; stroke-width:2; stroke-opacity:0.1; fill:none" points="609.289,1486.45 609.289,123.472 "/>
<polyline clip-path="url(#clip452)" style="stroke:#000000; stroke-linecap:round; stroke-linejoin:round; stroke-width:2; stroke-opacity:0.1; fill:none" points="941.318,1486.45 941.318,123.472 "/>
<polyline clip-path="url(#clip452)" style="stroke:#000000; stroke-linecap:round; stroke-linejoin:round; stroke-width:2; stroke-opacity:0.1; fill:none" points="1273.35,1486.45 1273.35,123.472 "/>
<polyline clip-path="url(#clip452)" style="stroke:#000000; stroke-linecap:round; stroke-linejoin:round; stroke-width:2; stroke-opacity:0.1; fill:none" points="1605.37,1486.45 1605.37,123.472 "/>
<polyline clip-path="url(#clip452)" style="stroke:#000000; stroke-linecap:round; stroke-linejoin:round; stroke-width:2; stroke-opacity:0.1; fill:none" points="1937.4,1486.45 1937.4,123.472 "/>
<polyline clip-path="url(#clip452)" style="stroke:#000000; stroke-linecap:round; stroke-linejoin:round; stroke-width:2; stroke-opacity:0.1; fill:none" points="2269.43,1486.45 2269.43,123.472 "/>
<polyline clip-path="url(#clip452)" style="stroke:#000000; stroke-linecap:round; stroke-linejoin:round; stroke-width:2; stroke-opacity:0.1; fill:none" points="193.936,1469.02 2352.76,1469.02 "/>
<polyline clip-path="url(#clip452)" style="stroke:#000000; stroke-linecap:round; stroke-linejoin:round; stroke-width:2; stroke-opacity:0.1; fill:none" points="193.936,1136.99 2352.76,1136.99 "/>
<polyline clip-path="url(#clip452)" style="stroke:#000000; stroke-linecap:round; stroke-linejoin:round; stroke-width:2; stroke-opacity:0.1; fill:none" points="193.936,804.96 2352.76,804.96 "/>
<polyline clip-path="url(#clip452)" style="stroke:#000000; stroke-linecap:round; stroke-linejoin:round; stroke-width:2; stroke-opacity:0.1; fill:none" points="193.936,472.932 2352.76,472.932 "/>
<polyline clip-path="url(#clip452)" style="stroke:#000000; stroke-linecap:round; stroke-linejoin:round; stroke-width:2; stroke-opacity:0.1; fill:none" points="193.936,140.904 2352.76,140.904 "/>
<polyline clip-path="url(#clip450)" style="stroke:#000000; stroke-linecap:round; stroke-linejoin:round; stroke-width:4; stroke-opacity:1; fill:none" points="193.936,1486.45 2352.76,1486.45 "/>
<polyline clip-path="url(#clip450)" style="stroke:#000000; stroke-linecap:round; stroke-linejoin:round; stroke-width:4; stroke-opacity:1; fill:none" points="277.261,1486.45 277.261,1467.55 "/>
<polyline clip-path="url(#clip450)" style="stroke:#000000; stroke-linecap:round; stroke-linejoin:round; stroke-width:4; stroke-opacity:1; fill:none" points="609.289,1486.45 609.289,1467.55 "/>
<polyline clip-path="url(#clip450)" style="stroke:#000000; stroke-linecap:round; stroke-linejoin:round; stroke-width:4; stroke-opacity:1; fill:none" points="941.318,1486.45 941.318,1467.55 "/>
<polyline clip-path="url(#clip450)" style="stroke:#000000; stroke-linecap:round; stroke-linejoin:round; stroke-width:4; stroke-opacity:1; fill:none" points="1273.35,1486.45 1273.35,1467.55 "/>
<polyline clip-path="url(#clip450)" style="stroke:#000000; stroke-linecap:round; stroke-linejoin:round; stroke-width:4; stroke-opacity:1; fill:none" points="1605.37,1486.45 1605.37,1467.55 "/>
<polyline clip-path="url(#clip450)" style="stroke:#000000; stroke-linecap:round; stroke-linejoin:round; stroke-width:4; stroke-opacity:1; fill:none" points="1937.4,1486.45 1937.4,1467.55 "/>
<polyline clip-path="url(#clip450)" style="stroke:#000000; stroke-linecap:round; stroke-linejoin:round; stroke-width:4; stroke-opacity:1; fill:none" points="2269.43,1486.45 2269.43,1467.55 "/>
<path clip-path="url(#clip450)" d="M224.287 1532.02 L253.963 1532.02 L253.963 1535.95 L224.287 1535.95 L224.287 1532.02 Z" fill="#000000" fill-rule="nonzero" fill-opacity="1" /><path clip-path="url(#clip450)" d="M264.865 1544.91 L272.504 1544.91 L272.504 1518.55 L264.194 1520.21 L264.194 1515.95 L272.458 1514.29 L277.134 1514.29 L277.134 1544.91 L284.773 1544.91 L284.773 1548.85 L264.865 1548.85 L264.865 1544.91 Z" fill="#000000" fill-rule="nonzero" fill-opacity="1" /><path clip-path="url(#clip450)" d="M294.217 1542.97 L299.101 1542.97 L299.101 1548.85 L294.217 1548.85 L294.217 1542.97 Z" fill="#000000" fill-rule="nonzero" fill-opacity="1" /><path clip-path="url(#clip450)" d="M309.333 1514.29 L327.689 1514.29 L327.689 1518.22 L313.615 1518.22 L313.615 1526.7 Q314.634 1526.35 315.652 1526.19 Q316.671 1526 317.689 1526 Q323.476 1526 326.856 1529.17 Q330.235 1532.34 330.235 1537.76 Q330.235 1543.34 326.763 1546.44 Q323.291 1549.52 316.972 1549.52 Q314.796 1549.52 312.527 1549.15 Q310.282 1548.78 307.874 1548.04 L307.874 1543.34 Q309.958 1544.47 312.18 1545.03 Q314.402 1545.58 316.879 1545.58 Q320.884 1545.58 323.222 1543.48 Q325.56 1541.37 325.56 1537.76 Q325.56 1534.15 323.222 1532.04 Q320.884 1529.94 316.879 1529.94 Q315.004 1529.94 313.129 1530.35 Q311.277 1530.77 309.333 1531.65 L309.333 1514.29 Z" fill="#000000" fill-rule="nonzero" fill-opacity="1" /><path clip-path="url(#clip450)" d="M555.818 1532.02 L585.493 1532.02 L585.493 1535.95 L555.818 1535.95 L555.818 1532.02 Z" fill="#000000" fill-rule="nonzero" fill-opacity="1" /><path clip-path="url(#clip450)" d="M596.396 1544.91 L604.035 1544.91 L604.035 1518.55 L595.725 1520.21 L595.725 1515.95 L603.989 1514.29 L608.664 1514.29 L608.664 1544.91 L616.303 1544.91 L616.303 1548.85 L596.396 1548.85 L596.396 1544.91 Z" fill="#000000" fill-rule="nonzero" fill-opacity="1" /><path clip-path="url(#clip450)" d="M625.748 1542.97 L630.632 1542.97 L630.632 1548.85 L625.748 1548.85 L625.748 1542.97 Z" fill="#000000" fill-rule="nonzero" fill-opacity="1" /><path clip-path="url(#clip450)" d="M650.817 1517.37 Q647.206 1517.37 645.377 1520.93 Q643.572 1524.47 643.572 1531.6 Q643.572 1538.71 645.377 1542.27 Q647.206 1545.82 650.817 1545.82 Q654.451 1545.82 656.257 1542.27 Q658.085 1538.71 658.085 1531.6 Q658.085 1524.47 656.257 1520.93 Q654.451 1517.37 650.817 1517.37 M650.817 1513.66 Q656.627 1513.66 659.683 1518.27 Q662.761 1522.85 662.761 1531.6 Q662.761 1540.33 659.683 1544.94 Q656.627 1549.52 650.817 1549.52 Q645.007 1549.52 641.928 1544.94 Q638.873 1540.33 638.873 1531.6 Q638.873 1522.85 641.928 1518.27 Q645.007 1513.66 650.817 1513.66 Z" fill="#000000" fill-rule="nonzero" fill-opacity="1" /><path clip-path="url(#clip450)" d="M888.343 1532.02 L918.019 1532.02 L918.019 1535.95 L888.343 1535.95 L888.343 1532.02 Z" fill="#000000" fill-rule="nonzero" fill-opacity="1" /><path clip-path="url(#clip450)" d="M938.112 1517.37 Q934.501 1517.37 932.672 1520.93 Q930.866 1524.47 930.866 1531.6 Q930.866 1538.71 932.672 1542.27 Q934.501 1545.82 938.112 1545.82 Q941.746 1545.82 943.551 1542.27 Q945.38 1538.71 945.38 1531.6 Q945.38 1524.47 943.551 1520.93 Q941.746 1517.37 938.112 1517.37 M938.112 1513.66 Q943.922 1513.66 946.977 1518.27 Q950.056 1522.85 950.056 1531.6 Q950.056 1540.33 946.977 1544.94 Q943.922 1549.52 938.112 1549.52 Q932.302 1549.52 929.223 1544.94 Q926.167 1540.33 926.167 1531.6 Q926.167 1522.85 929.223 1518.27 Q932.302 1513.66 938.112 1513.66 Z" fill="#000000" fill-rule="nonzero" fill-opacity="1" /><path clip-path="url(#clip450)" d="M958.274 1542.97 L963.158 1542.97 L963.158 1548.85 L958.274 1548.85 L958.274 1542.97 Z" fill="#000000" fill-rule="nonzero" fill-opacity="1" /><path clip-path="url(#clip450)" d="M973.389 1514.29 L991.746 1514.29 L991.746 1518.22 L977.672 1518.22 L977.672 1526.7 Q978.69 1526.35 979.709 1526.19 Q980.727 1526 981.746 1526 Q987.533 1526 990.912 1529.17 Q994.292 1532.34 994.292 1537.76 Q994.292 1543.34 990.82 1546.44 Q987.348 1549.52 981.028 1549.52 Q978.852 1549.52 976.584 1549.15 Q974.338 1548.78 971.931 1548.04 L971.931 1543.34 Q974.014 1544.47 976.237 1545.03 Q978.459 1545.58 980.936 1545.58 Q984.94 1545.58 987.278 1543.48 Q989.616 1541.37 989.616 1537.76 Q989.616 1534.15 987.278 1532.04 Q984.94 1529.94 980.936 1529.94 Q979.061 1529.94 977.186 1530.35 Q975.334 1530.77 973.389 1531.65 L973.389 1514.29 Z" fill="#000000" fill-rule="nonzero" fill-opacity="1" /><path clip-path="url(#clip450)" d="M1250.73 1517.37 Q1247.12 1517.37 1245.29 1520.93 Q1243.49 1524.47 1243.49 1531.6 Q1243.49 1538.71 1245.29 1542.27 Q1247.12 1545.82 1250.73 1545.82 Q1254.36 1545.82 1256.17 1542.27 Q1258 1538.71 1258 1531.6 Q1258 1524.47 1256.17 1520.93 Q1254.36 1517.37 1250.73 1517.37 M1250.73 1513.66 Q1256.54 1513.66 1259.6 1518.27 Q1262.67 1522.85 1262.67 1531.6 Q1262.67 1540.33 1259.6 1544.94 Q1256.54 1549.52 1250.73 1549.52 Q1244.92 1549.52 1241.84 1544.94 Q1238.79 1540.33 1238.79 1531.6 Q1238.79 1522.85 1241.84 1518.27 Q1244.92 1513.66 1250.73 1513.66 Z" fill="#000000" fill-rule="nonzero" fill-opacity="1" /><path clip-path="url(#clip450)" d="M1270.89 1542.97 L1275.78 1542.97 L1275.78 1548.85 L1270.89 1548.85 L1270.89 1542.97 Z" fill="#000000" fill-rule="nonzero" fill-opacity="1" /><path clip-path="url(#clip450)" d="M1295.96 1517.37 Q1292.35 1517.37 1290.52 1520.93 Q1288.72 1524.47 1288.72 1531.6 Q1288.72 1538.71 1290.52 1542.27 Q1292.35 1545.82 1295.96 1545.82 Q1299.6 1545.82 1301.4 1542.27 Q1303.23 1538.71 1303.23 1531.6 Q1303.23 1524.47 1301.4 1520.93 Q1299.6 1517.37 1295.96 1517.37 M1295.96 1513.66 Q1301.77 1513.66 1304.83 1518.27 Q1307.91 1522.85 1307.91 1531.6 Q1307.91 1540.33 1304.83 1544.94 Q1301.77 1549.52 1295.96 1549.52 Q1290.15 1549.52 1287.07 1544.94 Q1284.02 1540.33 1284.02 1531.6 Q1284.02 1522.85 1287.07 1518.27 Q1290.15 1513.66 1295.96 1513.66 Z" fill="#000000" fill-rule="nonzero" fill-opacity="1" /><path clip-path="url(#clip450)" d="M1583.26 1517.37 Q1579.65 1517.37 1577.82 1520.93 Q1576.01 1524.47 1576.01 1531.6 Q1576.01 1538.71 1577.82 1542.27 Q1579.65 1545.82 1583.26 1545.82 Q1586.89 1545.82 1588.7 1542.27 Q1590.52 1538.71 1590.52 1531.6 Q1590.52 1524.47 1588.7 1520.93 Q1586.89 1517.37 1583.26 1517.37 M1583.26 1513.66 Q1589.07 1513.66 1592.12 1518.27 Q1595.2 1522.85 1595.2 1531.6 Q1595.2 1540.33 1592.12 1544.94 Q1589.07 1549.52 1583.26 1549.52 Q1577.45 1549.52 1574.37 1544.94 Q1571.31 1540.33 1571.31 1531.6 Q1571.31 1522.85 1574.37 1518.27 Q1577.45 1513.66 1583.26 1513.66 Z" fill="#000000" fill-rule="nonzero" fill-opacity="1" /><path clip-path="url(#clip450)" d="M1603.42 1542.97 L1608.3 1542.97 L1608.3 1548.85 L1603.42 1548.85 L1603.42 1542.97 Z" fill="#000000" fill-rule="nonzero" fill-opacity="1" /><path clip-path="url(#clip450)" d="M1618.53 1514.29 L1636.89 1514.29 L1636.89 1518.22 L1622.82 1518.22 L1622.82 1526.7 Q1623.83 1526.35 1624.85 1526.19 Q1625.87 1526 1626.89 1526 Q1632.68 1526 1636.06 1529.17 Q1639.44 1532.34 1639.44 1537.76 Q1639.44 1543.34 1635.96 1546.44 Q1632.49 1549.52 1626.17 1549.52 Q1624 1549.52 1621.73 1549.15 Q1619.48 1548.78 1617.08 1548.04 L1617.08 1543.34 Q1619.16 1544.47 1621.38 1545.03 Q1623.6 1545.58 1626.08 1545.58 Q1630.08 1545.58 1632.42 1543.48 Q1634.76 1541.37 1634.76 1537.76 Q1634.76 1534.15 1632.42 1532.04 Q1630.08 1529.94 1626.08 1529.94 Q1624.21 1529.94 1622.33 1530.35 Q1620.48 1530.77 1618.53 1531.65 L1618.53 1514.29 Z" fill="#000000" fill-rule="nonzero" fill-opacity="1" /><path clip-path="url(#clip450)" d="M1904.56 1544.91 L1912.19 1544.91 L1912.19 1518.55 L1903.88 1520.21 L1903.88 1515.95 L1912.15 1514.29 L1916.82 1514.29 L1916.82 1544.91 L1924.46 1544.91 L1924.46 1548.85 L1904.56 1548.85 L1904.56 1544.91 Z" fill="#000000" fill-rule="nonzero" fill-opacity="1" /><path clip-path="url(#clip450)" d="M1933.91 1542.97 L1938.79 1542.97 L1938.79 1548.85 L1933.91 1548.85 L1933.91 1542.97 Z" fill="#000000" fill-rule="nonzero" fill-opacity="1" /><path clip-path="url(#clip450)" d="M1958.98 1517.37 Q1955.37 1517.37 1953.54 1520.93 Q1951.73 1524.47 1951.73 1531.6 Q1951.73 1538.71 1953.54 1542.27 Q1955.37 1545.82 1958.98 1545.82 Q1962.61 1545.82 1964.42 1542.27 Q1966.24 1538.71 1966.24 1531.6 Q1966.24 1524.47 1964.42 1520.93 Q1962.61 1517.37 1958.98 1517.37 M1958.98 1513.66 Q1964.79 1513.66 1967.84 1518.27 Q1970.92 1522.85 1970.92 1531.6 Q1970.92 1540.33 1967.84 1544.94 Q1964.79 1549.52 1958.98 1549.52 Q1953.17 1549.52 1950.09 1544.94 Q1947.03 1540.33 1947.03 1531.6 Q1947.03 1522.85 1950.09 1518.27 Q1953.17 1513.66 1958.98 1513.66 Z" fill="#000000" fill-rule="nonzero" fill-opacity="1" /><path clip-path="url(#clip450)" d="M2237.08 1544.91 L2244.72 1544.91 L2244.72 1518.55 L2236.41 1520.21 L2236.41 1515.95 L2244.67 1514.29 L2249.35 1514.29 L2249.35 1544.91 L2256.99 1544.91 L2256.99 1548.85 L2237.08 1548.85 L2237.08 1544.91 Z" fill="#000000" fill-rule="nonzero" fill-opacity="1" /><path clip-path="url(#clip450)" d="M2266.43 1542.97 L2271.32 1542.97 L2271.32 1548.85 L2266.43 1548.85 L2266.43 1542.97 Z" fill="#000000" fill-rule="nonzero" fill-opacity="1" /><path clip-path="url(#clip450)" d="M2281.55 1514.29 L2299.91 1514.29 L2299.91 1518.22 L2285.83 1518.22 L2285.83 1526.7 Q2286.85 1526.35 2287.87 1526.19 Q2288.89 1526 2289.91 1526 Q2295.69 1526 2299.07 1529.17 Q2302.45 1532.34 2302.45 1537.76 Q2302.45 1543.34 2298.98 1546.44 Q2295.51 1549.52 2289.19 1549.52 Q2287.01 1549.52 2284.74 1549.15 Q2282.5 1548.78 2280.09 1548.04 L2280.09 1543.34 Q2282.17 1544.47 2284.4 1545.03 Q2286.62 1545.58 2289.09 1545.58 Q2293.1 1545.58 2295.44 1543.48 Q2297.78 1541.37 2297.78 1537.76 Q2297.78 1534.15 2295.44 1532.04 Q2293.1 1529.94 2289.09 1529.94 Q2287.22 1529.94 2285.34 1530.35 Q2283.49 1530.77 2281.55 1531.65 L2281.55 1514.29 Z" fill="#000000" fill-rule="nonzero" fill-opacity="1" /><polyline clip-path="url(#clip450)" style="stroke:#000000; stroke-linecap:round; stroke-linejoin:round; stroke-width:4; stroke-opacity:1; fill:none" points="193.936,1486.45 193.936,123.472 "/>
<polyline clip-path="url(#clip450)" style="stroke:#000000; stroke-linecap:round; stroke-linejoin:round; stroke-width:4; stroke-opacity:1; fill:none" points="193.936,1469.02 212.834,1469.02 "/>
<polyline clip-path="url(#clip450)" style="stroke:#000000; stroke-linecap:round; stroke-linejoin:round; stroke-width:4; stroke-opacity:1; fill:none" points="193.936,1136.99 212.834,1136.99 "/>
<polyline clip-path="url(#clip450)" style="stroke:#000000; stroke-linecap:round; stroke-linejoin:round; stroke-width:4; stroke-opacity:1; fill:none" points="193.936,804.96 212.834,804.96 "/>
<polyline clip-path="url(#clip450)" style="stroke:#000000; stroke-linecap:round; stroke-linejoin:round; stroke-width:4; stroke-opacity:1; fill:none" points="193.936,472.932 212.834,472.932 "/>
<polyline clip-path="url(#clip450)" style="stroke:#000000; stroke-linecap:round; stroke-linejoin:round; stroke-width:4; stroke-opacity:1; fill:none" points="193.936,140.904 212.834,140.904 "/>
<path clip-path="url(#clip450)" d="M50.9921 1469.47 L80.6679 1469.47 L80.6679 1473.4 L50.9921 1473.4 L50.9921 1469.47 Z" fill="#000000" fill-rule="nonzero" fill-opacity="1" /><path clip-path="url(#clip450)" d="M91.5706 1482.36 L99.2095 1482.36 L99.2095 1456 L90.8993 1457.66 L90.8993 1453.4 L99.1632 1451.74 L103.839 1451.74 L103.839 1482.36 L111.478 1482.36 L111.478 1486.3 L91.5706 1486.3 L91.5706 1482.36 Z" fill="#000000" fill-rule="nonzero" fill-opacity="1" /><path clip-path="url(#clip450)" d="M120.922 1480.42 L125.807 1480.42 L125.807 1486.3 L120.922 1486.3 L120.922 1480.42 Z" fill="#000000" fill-rule="nonzero" fill-opacity="1" /><path clip-path="url(#clip450)" d="M145.992 1454.82 Q142.381 1454.82 140.552 1458.38 Q138.746 1461.92 138.746 1469.05 Q138.746 1476.16 140.552 1479.72 Q142.381 1483.26 145.992 1483.26 Q149.626 1483.26 151.431 1479.72 Q153.26 1476.16 153.26 1469.05 Q153.26 1461.92 151.431 1458.38 Q149.626 1454.82 145.992 1454.82 M145.992 1451.11 Q151.802 1451.11 154.857 1455.72 Q157.936 1460.3 157.936 1469.05 Q157.936 1477.78 154.857 1482.38 Q151.802 1486.97 145.992 1486.97 Q140.181 1486.97 137.103 1482.38 Q134.047 1477.78 134.047 1469.05 Q134.047 1460.3 137.103 1455.72 Q140.181 1451.11 145.992 1451.11 Z" fill="#000000" fill-rule="nonzero" fill-opacity="1" /><path clip-path="url(#clip450)" d="M51.9875 1137.44 L81.6633 1137.44 L81.6633 1141.37 L51.9875 1141.37 L51.9875 1137.44 Z" fill="#000000" fill-rule="nonzero" fill-opacity="1" /><path clip-path="url(#clip450)" d="M101.756 1122.79 Q98.1447 1122.79 96.316 1126.35 Q94.5104 1129.89 94.5104 1137.02 Q94.5104 1144.13 96.316 1147.69 Q98.1447 1151.24 101.756 1151.24 Q105.39 1151.24 107.196 1147.69 Q109.024 1144.13 109.024 1137.02 Q109.024 1129.89 107.196 1126.35 Q105.39 1122.79 101.756 1122.79 M101.756 1119.08 Q107.566 1119.08 110.621 1123.69 Q113.7 1128.27 113.7 1137.02 Q113.7 1145.75 110.621 1150.36 Q107.566 1154.94 101.756 1154.94 Q95.9456 1154.94 92.8669 1150.36 Q89.8114 1145.75 89.8114 1137.02 Q89.8114 1128.27 92.8669 1123.69 Q95.9456 1119.08 101.756 1119.08 Z" fill="#000000" fill-rule="nonzero" fill-opacity="1" /><path clip-path="url(#clip450)" d="M121.918 1148.39 L126.802 1148.39 L126.802 1154.27 L121.918 1154.27 L121.918 1148.39 Z" fill="#000000" fill-rule="nonzero" fill-opacity="1" /><path clip-path="url(#clip450)" d="M137.033 1119.71 L155.39 1119.71 L155.39 1123.64 L141.316 1123.64 L141.316 1132.12 Q142.334 1131.77 143.353 1131.61 Q144.371 1131.42 145.39 1131.42 Q151.177 1131.42 154.556 1134.59 Q157.936 1137.76 157.936 1143.18 Q157.936 1148.76 154.464 1151.86 Q150.992 1154.94 144.672 1154.94 Q142.496 1154.94 140.228 1154.57 Q137.982 1154.2 135.575 1153.46 L135.575 1148.76 Q137.658 1149.89 139.881 1150.45 Q142.103 1151 144.58 1151 Q148.584 1151 150.922 1148.9 Q153.26 1146.79 153.26 1143.18 Q153.26 1139.57 150.922 1137.46 Q148.584 1135.36 144.58 1135.36 Q142.705 1135.36 140.83 1135.77 Q138.978 1136.19 137.033 1137.07 L137.033 1119.71 Z" fill="#000000" fill-rule="nonzero" fill-opacity="1" /><path clip-path="url(#clip450)" d="M100.76 790.759 Q97.1493 790.759 95.3206 794.323 Q93.515 797.865 93.515 804.995 Q93.515 812.101 95.3206 815.666 Q97.1493 819.208 100.76 819.208 Q104.395 819.208 106.2 815.666 Q108.029 812.101 108.029 804.995 Q108.029 797.865 106.2 794.323 Q104.395 790.759 100.76 790.759 M100.76 787.055 Q106.571 787.055 109.626 791.661 Q112.705 796.245 112.705 804.995 Q112.705 813.722 109.626 818.328 Q106.571 822.911 100.76 822.911 Q94.9502 822.911 91.8715 818.328 Q88.816 813.722 88.816 804.995 Q88.816 796.245 91.8715 791.661 Q94.9502 787.055 100.76 787.055 Z" fill="#000000" fill-rule="nonzero" fill-opacity="1" /><path clip-path="url(#clip450)" d="M120.922 816.36 L125.807 816.36 L125.807 822.24 L120.922 822.24 L120.922 816.36 Z" fill="#000000" fill-rule="nonzero" fill-opacity="1" /><path clip-path="url(#clip450)" d="M145.992 790.759 Q142.381 790.759 140.552 794.323 Q138.746 797.865 138.746 804.995 Q138.746 812.101 140.552 815.666 Q142.381 819.208 145.992 819.208 Q149.626 819.208 151.431 815.666 Q153.26 812.101 153.26 804.995 Q153.26 797.865 151.431 794.323 Q149.626 790.759 145.992 790.759 M145.992 787.055 Q151.802 787.055 154.857 791.661 Q157.936 796.245 157.936 804.995 Q157.936 813.722 154.857 818.328 Q151.802 822.911 145.992 822.911 Q140.181 822.911 137.103 818.328 Q134.047 813.722 134.047 804.995 Q134.047 796.245 137.103 791.661 Q140.181 787.055 145.992 787.055 Z" fill="#000000" fill-rule="nonzero" fill-opacity="1" /><path clip-path="url(#clip450)" d="M101.756 458.73 Q98.1447 458.73 96.316 462.295 Q94.5104 465.837 94.5104 472.966 Q94.5104 480.073 96.316 483.638 Q98.1447 487.179 101.756 487.179 Q105.39 487.179 107.196 483.638 Q109.024 480.073 109.024 472.966 Q109.024 465.837 107.196 462.295 Q105.39 458.73 101.756 458.73 M101.756 455.027 Q107.566 455.027 110.621 459.633 Q113.7 464.217 113.7 472.966 Q113.7 481.693 110.621 486.3 Q107.566 490.883 101.756 490.883 Q95.9456 490.883 92.8669 486.3 Q89.8114 481.693 89.8114 472.966 Q89.8114 464.217 92.8669 459.633 Q95.9456 455.027 101.756 455.027 Z" fill="#000000" fill-rule="nonzero" fill-opacity="1" /><path clip-path="url(#clip450)" d="M121.918 484.332 L126.802 484.332 L126.802 490.212 L121.918 490.212 L121.918 484.332 Z" fill="#000000" fill-rule="nonzero" fill-opacity="1" /><path clip-path="url(#clip450)" d="M137.033 455.652 L155.39 455.652 L155.39 459.587 L141.316 459.587 L141.316 468.059 Q142.334 467.712 143.353 467.55 Q144.371 467.365 145.39 467.365 Q151.177 467.365 154.556 470.536 Q157.936 473.707 157.936 479.124 Q157.936 484.703 154.464 487.804 Q150.992 490.883 144.672 490.883 Q142.496 490.883 140.228 490.513 Q137.982 490.142 135.575 489.402 L135.575 484.703 Q137.658 485.837 139.881 486.392 Q142.103 486.948 144.58 486.948 Q148.584 486.948 150.922 484.841 Q153.26 482.735 153.26 479.124 Q153.26 475.513 150.922 473.406 Q148.584 471.3 144.58 471.3 Q142.705 471.3 140.83 471.716 Q138.978 472.133 137.033 473.013 L137.033 455.652 Z" fill="#000000" fill-rule="nonzero" fill-opacity="1" /><path clip-path="url(#clip450)" d="M91.5706 154.248 L99.2095 154.248 L99.2095 127.883 L90.8993 129.549 L90.8993 125.29 L99.1632 123.624 L103.839 123.624 L103.839 154.248 L111.478 154.248 L111.478 158.184 L91.5706 158.184 L91.5706 154.248 Z" fill="#000000" fill-rule="nonzero" fill-opacity="1" /><path clip-path="url(#clip450)" d="M120.922 152.304 L125.807 152.304 L125.807 158.184 L120.922 158.184 L120.922 152.304 Z" fill="#000000" fill-rule="nonzero" fill-opacity="1" /><path clip-path="url(#clip450)" d="M145.992 126.702 Q142.381 126.702 140.552 130.267 Q138.746 133.809 138.746 140.938 Q138.746 148.045 140.552 151.609 Q142.381 155.151 145.992 155.151 Q149.626 155.151 151.431 151.609 Q153.26 148.045 153.26 140.938 Q153.26 133.809 151.431 130.267 Q149.626 126.702 145.992 126.702 M145.992 122.999 Q151.802 122.999 154.857 127.605 Q157.936 132.188 157.936 140.938 Q157.936 149.665 154.857 154.271 Q151.802 158.855 145.992 158.855 Q140.181 158.855 137.103 154.271 Q134.047 149.665 134.047 140.938 Q134.047 132.188 137.103 127.605 Q140.181 122.999 145.992 122.999 Z" fill="#000000" fill-rule="nonzero" fill-opacity="1" /><path clip-path="url(#clip450)" d="M532.901 14.0809 L532.901 22.0612 Q528.243 19.8332 524.111 18.7395 Q519.979 17.6457 516.131 17.6457 Q509.447 17.6457 505.801 20.2383 Q502.196 22.8309 502.196 27.611 Q502.196 31.6214 504.586 33.6873 Q507.016 35.7128 513.741 36.9686 L518.683 37.9813 Q527.838 39.7232 532.172 44.1387 Q536.547 48.5136 536.547 55.8863 Q536.547 64.6767 530.633 69.2137 Q524.759 73.7508 513.376 73.7508 Q509.082 73.7508 504.221 72.7785 Q499.4 71.8063 494.215 69.9024 L494.215 61.4765 Q499.198 64.2716 503.978 65.6895 Q508.758 67.1073 513.376 67.1073 Q520.384 67.1073 524.192 64.3527 Q528 61.598 528 56.4939 Q528 52.0379 525.245 49.5264 Q522.531 47.0148 516.293 45.759 L511.31 44.7868 Q502.155 42.9639 498.064 39.075 Q493.972 35.1862 493.972 28.2591 Q493.972 20.2383 499.603 15.6203 Q505.274 11.0023 515.199 11.0023 Q519.452 11.0023 523.868 11.7719 Q528.283 12.5416 532.901 14.0809 Z" fill="#000000" fill-rule="nonzero" fill-opacity="1" /><path clip-path="url(#clip450)" d="M556.194 65.7705 L556.194 89.8329 L548.7 89.8329 L548.7 27.2059 L556.194 27.2059 L556.194 34.0924 Q558.544 30.0415 562.108 28.0971 Q565.714 26.1121 570.696 26.1121 Q578.96 26.1121 584.105 32.6746 Q589.29 39.2371 589.29 49.9314 Q589.29 60.6258 584.105 67.1883 Q578.96 73.7508 570.696 73.7508 Q565.714 73.7508 562.108 71.8063 Q558.544 69.8214 556.194 65.7705 M581.553 49.9314 Q581.553 41.7081 578.15 37.0496 Q574.788 32.3505 568.873 32.3505 Q562.959 32.3505 559.556 37.0496 Q556.194 41.7081 556.194 49.9314 Q556.194 58.1548 559.556 62.8538 Q562.959 67.5124 568.873 67.5124 Q574.788 67.5124 578.15 62.8538 Q581.553 58.1548 581.553 49.9314 Z" fill="#000000" fill-rule="nonzero" fill-opacity="1" /><path clip-path="url(#clip450)" d="M622.264 49.7694 Q613.231 49.7694 609.747 51.8354 Q606.263 53.9013 606.263 58.8839 Q606.263 62.8538 608.856 65.2034 Q611.489 67.5124 615.985 67.5124 Q622.183 67.5124 625.91 63.1374 Q629.678 58.7219 629.678 51.4303 L629.678 49.7694 L622.264 49.7694 M637.131 46.6907 L637.131 72.576 L629.678 72.576 L629.678 65.6895 Q627.125 69.8214 623.318 71.8063 Q619.51 73.7508 614.001 73.7508 Q607.033 73.7508 602.901 69.8619 Q598.81 65.9325 598.81 59.3701 Q598.81 51.7138 603.914 47.825 Q609.058 43.9361 619.226 43.9361 L629.678 43.9361 L629.678 43.2069 Q629.678 38.0623 626.275 35.2672 Q622.913 32.4315 616.796 32.4315 Q612.907 32.4315 609.22 33.3632 Q605.534 34.295 602.131 36.1584 L602.131 29.2718 Q606.223 27.692 610.071 26.9223 Q613.92 26.1121 617.565 26.1121 Q627.409 26.1121 632.27 31.2163 Q637.131 36.3204 637.131 46.6907 Z" fill="#000000" fill-rule="nonzero" fill-opacity="1" /><path clip-path="url(#clip450)" d="M678.774 34.1734 Q677.519 33.4443 676.02 33.1202 Q674.562 32.7556 672.779 32.7556 Q666.46 32.7556 663.057 36.8875 Q659.695 40.9789 659.695 48.6757 L659.695 72.576 L652.201 72.576 L652.201 27.2059 L659.695 27.2059 L659.695 34.2544 Q662.044 30.1225 665.812 28.1376 Q669.579 26.1121 674.967 26.1121 Q675.736 26.1121 676.668 26.2337 Q677.6 26.3147 678.734 26.5172 L678.774 34.1734 Z" fill="#000000" fill-rule="nonzero" fill-opacity="1" /><path clip-path="url(#clip450)" d="M715.516 28.5427 L715.516 35.5912 Q712.356 33.9709 708.954 33.1607 Q705.551 32.3505 701.905 32.3505 Q696.355 32.3505 693.56 34.0519 Q690.806 35.7533 690.806 39.156 Q690.806 41.7486 692.791 43.2475 Q694.776 44.7058 700.771 46.0426 L703.323 46.6097 Q711.263 48.3111 714.584 51.4303 Q717.947 54.509 717.947 60.0587 Q717.947 66.3781 712.924 70.0644 Q707.941 73.7508 699.191 73.7508 Q695.545 73.7508 691.575 73.0216 Q687.646 72.3329 683.271 70.9151 L683.271 63.2184 Q687.403 65.3654 691.413 66.4591 Q695.424 67.5124 699.353 67.5124 Q704.619 67.5124 707.455 65.73 Q710.291 63.9071 710.291 60.6258 Q710.291 57.5877 708.225 55.9673 Q706.199 54.3469 699.272 52.8481 L696.679 52.2405 Q689.752 50.7821 686.674 47.7845 Q683.595 44.7463 683.595 39.4801 Q683.595 33.0797 688.132 29.5959 Q692.669 26.1121 701.014 26.1121 Q705.146 26.1121 708.792 26.7198 Q712.437 27.3274 715.516 28.5427 Z" fill="#000000" fill-rule="nonzero" fill-opacity="1" /><path clip-path="url(#clip450)" d="M768.624 48.0275 L768.624 51.6733 L734.353 51.6733 Q734.839 59.3701 738.971 63.421 Q743.143 67.4314 750.557 67.4314 Q754.85 67.4314 758.861 66.3781 Q762.912 65.3249 766.882 63.2184 L766.882 70.267 Q762.871 71.9684 758.658 72.8596 Q754.445 73.7508 750.111 73.7508 Q739.254 73.7508 732.895 67.4314 Q726.575 61.1119 726.575 50.3365 Q726.575 39.1965 732.57 32.6746 Q738.606 26.1121 748.815 26.1121 Q757.97 26.1121 763.276 32.0264 Q768.624 37.9003 768.624 48.0275 M761.17 45.84 Q761.089 39.7232 757.727 36.0774 Q754.405 32.4315 748.896 32.4315 Q742.657 32.4315 738.89 35.9558 Q735.163 39.4801 734.596 45.8805 L761.17 45.84 Z" fill="#000000" fill-rule="nonzero" fill-opacity="1" /><path clip-path="url(#clip450)" d="M843.808 14.0809 L843.808 22.0612 Q839.15 19.8332 835.018 18.7395 Q830.886 17.6457 827.038 17.6457 Q820.354 17.6457 816.708 20.2383 Q813.102 22.8309 813.102 27.611 Q813.102 31.6214 815.493 33.6873 Q817.923 35.7128 824.648 36.9686 L829.59 37.9813 Q838.745 39.7232 843.079 44.1387 Q847.454 48.5136 847.454 55.8863 Q847.454 64.6767 841.54 69.2137 Q835.666 73.7508 824.283 73.7508 Q819.989 73.7508 815.128 72.7785 Q810.307 71.8063 805.122 69.9024 L805.122 61.4765 Q810.105 64.2716 814.885 65.6895 Q819.665 67.1073 824.283 67.1073 Q831.291 67.1073 835.099 64.3527 Q838.907 61.598 838.907 56.4939 Q838.907 52.0379 836.152 49.5264 Q833.438 47.0148 827.2 45.759 L822.217 44.7868 Q813.062 42.9639 808.971 39.075 Q804.879 35.1862 804.879 28.2591 Q804.879 20.2383 810.51 15.6203 Q816.181 11.0023 826.106 11.0023 Q830.359 11.0023 834.775 11.7719 Q839.19 12.5416 843.808 14.0809 Z" fill="#000000" fill-rule="nonzero" fill-opacity="1" /><path clip-path="url(#clip450)" d="M895.214 35.9153 Q898.009 30.8922 901.898 28.5022 Q905.787 26.1121 911.053 26.1121 Q918.142 26.1121 921.991 31.0947 Q925.839 36.0368 925.839 45.1919 L925.839 72.576 L918.345 72.576 L918.345 45.4349 Q918.345 38.913 916.036 35.7533 Q913.727 32.5936 908.987 32.5936 Q903.195 32.5936 899.832 36.4419 Q896.47 40.2903 896.47 46.9338 L896.47 72.576 L888.976 72.576 L888.976 45.4349 Q888.976 38.8725 886.667 35.7533 Q884.358 32.5936 879.537 32.5936 Q873.826 32.5936 870.463 36.4824 Q867.101 40.3308 867.101 46.9338 L867.101 72.576 L859.607 72.576 L859.607 27.2059 L867.101 27.2059 L867.101 34.2544 Q869.653 30.082 873.218 28.0971 Q876.783 26.1121 881.684 26.1121 Q886.626 26.1121 890.07 28.6237 Q893.553 31.1352 895.214 35.9153 Z" fill="#000000" fill-rule="nonzero" fill-opacity="1" /><path clip-path="url(#clip450)" d="M958.287 32.4315 Q952.292 32.4315 948.808 37.1306 Q945.324 41.7891 945.324 49.9314 Q945.324 58.0738 948.767 62.7728 Q952.251 67.4314 958.287 67.4314 Q964.242 67.4314 967.725 62.7323 Q971.209 58.0333 971.209 49.9314 Q971.209 41.8701 967.725 37.1711 Q964.242 32.4315 958.287 32.4315 M958.287 26.1121 Q968.009 26.1121 973.559 32.4315 Q979.109 38.7509 979.109 49.9314 Q979.109 61.0714 973.559 67.4314 Q968.009 73.7508 958.287 73.7508 Q948.524 73.7508 942.974 67.4314 Q937.465 61.0714 937.465 49.9314 Q937.465 38.7509 942.974 32.4315 Q948.524 26.1121 958.287 26.1121 Z" fill="#000000" fill-rule="nonzero" fill-opacity="1" /><path clip-path="url(#clip450)" d="M991.464 9.54393 L998.917 9.54393 L998.917 72.576 L991.464 72.576 L991.464 9.54393 Z" fill="#000000" fill-rule="nonzero" fill-opacity="1" /><path clip-path="url(#clip450)" d="M1033.39 76.7889 Q1030.23 84.8907 1027.23 87.3618 Q1024.24 89.8329 1019.21 89.8329 L1013.26 89.8329 L1013.26 83.5945 L1017.63 83.5945 Q1020.71 83.5945 1022.41 82.1361 Q1024.11 80.6778 1026.18 75.2496 L1027.52 71.8468 L1009.17 27.2059 L1017.07 27.2059 L1031.24 62.6918 L1045.42 27.2059 L1053.32 27.2059 L1033.39 76.7889 Z" fill="#000000" fill-rule="nonzero" fill-opacity="1" /><path clip-path="url(#clip450)" d="M1084.23 49.7694 Q1075.2 49.7694 1071.71 51.8354 Q1068.23 53.9013 1068.23 58.8839 Q1068.23 62.8538 1070.82 65.2034 Q1073.45 67.5124 1077.95 67.5124 Q1084.15 67.5124 1087.88 63.1374 Q1091.64 58.7219 1091.64 51.4303 L1091.64 49.7694 L1084.23 49.7694 M1099.1 46.6907 L1099.1 72.576 L1091.64 72.576 L1091.64 65.6895 Q1089.09 69.8214 1085.28 71.8063 Q1081.47 73.7508 1075.97 73.7508 Q1069 73.7508 1064.87 69.8619 Q1060.77 65.9325 1060.77 59.3701 Q1060.77 51.7138 1065.88 47.825 Q1071.02 43.9361 1081.19 43.9361 L1091.64 43.9361 L1091.64 43.2069 Q1091.64 38.0623 1088.24 35.2672 Q1084.88 32.4315 1078.76 32.4315 Q1074.87 32.4315 1071.19 33.3632 Q1067.5 34.295 1064.1 36.1584 L1064.1 29.2718 Q1068.19 27.692 1072.04 26.9223 Q1075.88 26.1121 1079.53 26.1121 Q1089.37 26.1121 1094.24 31.2163 Q1099.1 36.3204 1099.1 46.6907 Z" fill="#000000" fill-rule="nonzero" fill-opacity="1" /><path clip-path="url(#clip450)" d="M1114.17 9.54393 L1121.66 9.54393 L1121.66 46.7717 L1143.9 27.2059 L1153.42 27.2059 L1129.36 48.4326 L1154.43 72.576 L1144.71 72.576 L1121.66 50.4176 L1121.66 72.576 L1114.17 72.576 L1114.17 9.54393 Z" fill="#000000" fill-rule="nonzero" fill-opacity="1" /><path clip-path="url(#clip450)" d="M1230.43 63.9476 L1230.43 47.7034 L1217.06 47.7034 L1217.06 40.9789 L1238.53 40.9789 L1238.53 66.9452 Q1233.79 70.3075 1228.08 72.0494 Q1222.37 73.7508 1215.88 73.7508 Q1201.71 73.7508 1193.68 65.4869 Q1185.7 57.1826 1185.7 42.3968 Q1185.7 27.5705 1193.68 19.3066 Q1201.71 11.0023 1215.88 11.0023 Q1221.8 11.0023 1227.1 12.4606 Q1232.45 13.9189 1236.95 16.7545 L1236.95 25.464 Q1232.41 21.6156 1227.31 19.6712 Q1222.2 17.7268 1216.57 17.7268 Q1205.47 17.7268 1199.88 23.9246 Q1194.33 30.1225 1194.33 42.3968 Q1194.33 54.6305 1199.88 60.8284 Q1205.47 67.0263 1216.57 67.0263 Q1220.91 67.0263 1224.31 66.2971 Q1227.71 65.5274 1230.43 63.9476 Z" fill="#000000" fill-rule="nonzero" fill-opacity="1" /><path clip-path="url(#clip450)" d="M1273.77 49.7694 Q1264.74 49.7694 1261.25 51.8354 Q1257.77 53.9013 1257.77 58.8839 Q1257.77 62.8538 1260.36 65.2034 Q1263 67.5124 1267.49 67.5124 Q1273.69 67.5124 1277.42 63.1374 Q1281.18 58.7219 1281.18 51.4303 L1281.18 49.7694 L1273.77 49.7694 M1288.64 46.6907 L1288.64 72.576 L1281.18 72.576 L1281.18 65.6895 Q1278.63 69.8214 1274.82 71.8063 Q1271.02 73.7508 1265.51 73.7508 Q1258.54 73.7508 1254.41 69.8619 Q1250.32 65.9325 1250.32 59.3701 Q1250.32 51.7138 1255.42 47.825 Q1260.57 43.9361 1270.73 43.9361 L1281.18 43.9361 L1281.18 43.2069 Q1281.18 38.0623 1277.78 35.2672 Q1274.42 32.4315 1268.3 32.4315 Q1264.41 32.4315 1260.73 33.3632 Q1257.04 34.295 1253.64 36.1584 L1253.64 29.2718 Q1257.73 27.692 1261.58 26.9223 Q1265.43 26.1121 1269.07 26.1121 Q1278.92 26.1121 1283.78 31.2163 Q1288.64 36.3204 1288.64 46.6907 Z" fill="#000000" fill-rule="nonzero" fill-opacity="1" /><path clip-path="url(#clip450)" d="M1303.22 54.671 L1303.22 27.2059 L1310.68 27.2059 L1310.68 54.3874 Q1310.68 60.8284 1313.19 64.0691 Q1315.7 67.2693 1320.72 67.2693 Q1326.76 67.2693 1330.24 63.421 Q1333.77 59.5726 1333.77 52.9291 L1333.77 27.2059 L1341.22 27.2059 L1341.22 72.576 L1333.77 72.576 L1333.77 65.6084 Q1331.05 69.7404 1327.45 71.7658 Q1323.88 73.7508 1319.14 73.7508 Q1311.32 73.7508 1307.27 68.8897 Q1303.22 64.0286 1303.22 54.671 M1321.98 26.1121 L1321.98 26.1121 Z" fill="#000000" fill-rule="nonzero" fill-opacity="1" /><path clip-path="url(#clip450)" d="M1385.5 28.5427 L1385.5 35.5912 Q1382.34 33.9709 1378.93 33.1607 Q1375.53 32.3505 1371.88 32.3505 Q1366.33 32.3505 1363.54 34.0519 Q1360.78 35.7533 1360.78 39.156 Q1360.78 41.7486 1362.77 43.2475 Q1364.75 44.7058 1370.75 46.0426 L1373.3 46.6097 Q1381.24 48.3111 1384.56 51.4303 Q1387.93 54.509 1387.93 60.0587 Q1387.93 66.3781 1382.9 70.0644 Q1377.92 73.7508 1369.17 73.7508 Q1365.52 73.7508 1361.55 73.0216 Q1357.63 72.3329 1353.25 70.9151 L1353.25 63.2184 Q1357.38 65.3654 1361.39 66.4591 Q1365.4 67.5124 1369.33 67.5124 Q1374.6 67.5124 1377.43 65.73 Q1380.27 63.9071 1380.27 60.6258 Q1380.27 57.5877 1378.2 55.9673 Q1376.18 54.3469 1369.25 52.8481 L1366.66 52.2405 Q1359.73 50.7821 1356.65 47.7845 Q1353.57 44.7463 1353.57 39.4801 Q1353.57 33.0797 1358.11 29.5959 Q1362.65 26.1121 1370.99 26.1121 Q1375.12 26.1121 1378.77 26.7198 Q1382.42 27.3274 1385.5 28.5427 Z" fill="#000000" fill-rule="nonzero" fill-opacity="1" /><path clip-path="url(#clip450)" d="M1428.72 28.5427 L1428.72 35.5912 Q1425.56 33.9709 1422.16 33.1607 Q1418.75 32.3505 1415.11 32.3505 Q1409.56 32.3505 1406.76 34.0519 Q1404.01 35.7533 1404.01 39.156 Q1404.01 41.7486 1405.99 43.2475 Q1407.98 44.7058 1413.97 46.0426 L1416.53 46.6097 Q1424.46 48.3111 1427.79 51.4303 Q1431.15 54.509 1431.15 60.0587 Q1431.15 66.3781 1426.13 70.0644 Q1421.14 73.7508 1412.39 73.7508 Q1408.75 73.7508 1404.78 73.0216 Q1400.85 72.3329 1396.47 70.9151 L1396.47 63.2184 Q1400.61 65.3654 1404.62 66.4591 Q1408.63 67.5124 1412.56 67.5124 Q1417.82 67.5124 1420.66 65.73 Q1423.49 63.9071 1423.49 60.6258 Q1423.49 57.5877 1421.43 55.9673 Q1419.4 54.3469 1412.47 52.8481 L1409.88 52.2405 Q1402.95 50.7821 1399.88 47.7845 Q1396.8 44.7463 1396.8 39.4801 Q1396.8 33.0797 1401.33 29.5959 Q1405.87 26.1121 1414.22 26.1121 Q1418.35 26.1121 1421.99 26.7198 Q1425.64 27.3274 1428.72 28.5427 Z" fill="#000000" fill-rule="nonzero" fill-opacity="1" /><path clip-path="url(#clip450)" d="M1443.34 12.096 L1451.52 12.096 L1451.52 65.6895 L1480.98 65.6895 L1480.98 72.576 L1443.34 72.576 L1443.34 12.096 Z" fill="#000000" fill-rule="nonzero" fill-opacity="1" /><path clip-path="url(#clip450)" d="M1526.59 48.0275 L1526.59 51.6733 L1492.32 51.6733 Q1492.8 59.3701 1496.94 63.421 Q1501.11 67.4314 1508.52 67.4314 Q1512.82 67.4314 1516.83 66.3781 Q1520.88 65.3249 1524.85 63.2184 L1524.85 70.267 Q1520.84 71.9684 1516.62 72.8596 Q1512.41 73.7508 1508.08 73.7508 Q1497.22 73.7508 1490.86 67.4314 Q1484.54 61.1119 1484.54 50.3365 Q1484.54 39.1965 1490.54 32.6746 Q1496.57 26.1121 1506.78 26.1121 Q1515.93 26.1121 1521.24 32.0264 Q1526.59 37.9003 1526.59 48.0275 M1519.13 45.84 Q1519.05 39.7232 1515.69 36.0774 Q1512.37 32.4315 1506.86 32.4315 Q1500.62 32.4315 1496.85 35.9558 Q1493.13 39.4801 1492.56 45.8805 L1519.13 45.84 Z" fill="#000000" fill-rule="nonzero" fill-opacity="1" /><path clip-path="url(#clip450)" d="M1568.68 49.3643 Q1568.68 41.2625 1565.31 36.8065 Q1561.99 32.3505 1555.96 32.3505 Q1549.96 32.3505 1546.6 36.8065 Q1543.28 41.2625 1543.28 49.3643 Q1543.28 57.4256 1546.6 61.8816 Q1549.96 66.3376 1555.96 66.3376 Q1561.99 66.3376 1565.31 61.8816 Q1568.68 57.4256 1568.68 49.3643 M1576.13 66.9452 Q1576.13 78.5308 1570.99 84.1616 Q1565.84 89.8329 1555.23 89.8329 Q1551.3 89.8329 1547.81 89.2252 Q1544.33 88.6581 1541.05 87.4428 L1541.05 80.1917 Q1544.33 81.9741 1547.53 82.8248 Q1550.73 83.6755 1554.05 83.6755 Q1561.39 83.6755 1565.03 79.8271 Q1568.68 76.0193 1568.68 68.282 L1568.68 64.5957 Q1566.37 68.6061 1562.76 70.5911 Q1559.16 72.576 1554.13 72.576 Q1545.79 72.576 1540.69 66.2161 Q1535.58 59.8562 1535.58 49.3643 Q1535.58 38.832 1540.69 32.472 Q1545.79 26.1121 1554.13 26.1121 Q1559.16 26.1121 1562.76 28.0971 Q1566.37 30.082 1568.68 34.0924 L1568.68 27.2059 L1576.13 27.2059 L1576.13 66.9452 Z" fill="#000000" fill-rule="nonzero" fill-opacity="1" /><path clip-path="url(#clip450)" d="M1630.29 48.0275 L1630.29 51.6733 L1596.02 51.6733 Q1596.51 59.3701 1600.64 63.421 Q1604.81 67.4314 1612.22 67.4314 Q1616.52 67.4314 1620.53 66.3781 Q1624.58 65.3249 1628.55 63.2184 L1628.55 70.267 Q1624.54 71.9684 1620.33 72.8596 Q1616.11 73.7508 1611.78 73.7508 Q1600.92 73.7508 1594.56 67.4314 Q1588.24 61.1119 1588.24 50.3365 Q1588.24 39.1965 1594.24 32.6746 Q1600.27 26.1121 1610.48 26.1121 Q1619.64 26.1121 1624.94 32.0264 Q1630.29 37.9003 1630.29 48.0275 M1622.84 45.84 Q1622.76 39.7232 1619.39 36.0774 Q1616.07 32.4315 1610.56 32.4315 Q1604.33 32.4315 1600.56 35.9558 Q1596.83 39.4801 1596.26 45.8805 L1622.84 45.84 Z" fill="#000000" fill-rule="nonzero" fill-opacity="1" /><path clip-path="url(#clip450)" d="M1680.24 45.1919 L1680.24 72.576 L1672.79 72.576 L1672.79 45.4349 Q1672.79 38.994 1670.27 35.7938 Q1667.76 32.5936 1662.74 32.5936 Q1656.7 32.5936 1653.22 36.4419 Q1649.74 40.2903 1649.74 46.9338 L1649.74 72.576 L1642.24 72.576 L1642.24 27.2059 L1649.74 27.2059 L1649.74 34.2544 Q1652.41 30.163 1656.01 28.1376 Q1659.66 26.1121 1664.4 26.1121 Q1672.22 26.1121 1676.23 30.9732 Q1680.24 35.7938 1680.24 45.1919 Z" fill="#000000" fill-rule="nonzero" fill-opacity="1" /><path clip-path="url(#clip450)" d="M1724.96 34.0924 L1724.96 9.54393 L1732.41 9.54393 L1732.41 72.576 L1724.96 72.576 L1724.96 65.7705 Q1722.61 69.8214 1719.01 71.8063 Q1715.44 73.7508 1710.42 73.7508 Q1702.19 73.7508 1697.01 67.1883 Q1691.87 60.6258 1691.87 49.9314 Q1691.87 39.2371 1697.01 32.6746 Q1702.19 26.1121 1710.42 26.1121 Q1715.44 26.1121 1719.01 28.0971 Q1722.61 30.0415 1724.96 34.0924 M1699.56 49.9314 Q1699.56 58.1548 1702.92 62.8538 Q1706.33 67.5124 1712.24 67.5124 Q1718.16 67.5124 1721.56 62.8538 Q1724.96 58.1548 1724.96 49.9314 Q1724.96 41.7081 1721.56 37.0496 Q1718.16 32.3505 1712.24 32.3505 Q1706.33 32.3505 1702.92 37.0496 Q1699.56 41.7081 1699.56 49.9314 Z" fill="#000000" fill-rule="nonzero" fill-opacity="1" /><path clip-path="url(#clip450)" d="M1774.06 34.1734 Q1772.8 33.4443 1771.3 33.1202 Q1769.85 32.7556 1768.06 32.7556 Q1761.74 32.7556 1758.34 36.8875 Q1754.98 40.9789 1754.98 48.6757 L1754.98 72.576 L1747.48 72.576 L1747.48 27.2059 L1754.98 27.2059 L1754.98 34.2544 Q1757.33 30.1225 1761.1 28.1376 Q1764.86 26.1121 1770.25 26.1121 Q1771.02 26.1121 1771.95 26.2337 Q1772.88 26.3147 1774.02 26.5172 L1774.06 34.1734 Z" fill="#000000" fill-rule="nonzero" fill-opacity="1" /><path clip-path="url(#clip450)" d="M1818.86 48.0275 L1818.86 51.6733 L1784.59 51.6733 Q1785.08 59.3701 1789.21 63.421 Q1793.38 67.4314 1800.79 67.4314 Q1805.09 67.4314 1809.1 66.3781 Q1813.15 65.3249 1817.12 63.2184 L1817.12 70.267 Q1813.11 71.9684 1808.9 72.8596 Q1804.68 73.7508 1800.35 73.7508 Q1789.49 73.7508 1783.13 67.4314 Q1776.81 61.1119 1776.81 50.3365 Q1776.81 39.1965 1782.81 32.6746 Q1788.84 26.1121 1799.05 26.1121 Q1808.21 26.1121 1813.51 32.0264 Q1818.86 37.9003 1818.86 48.0275 M1811.41 45.84 Q1811.33 39.7232 1807.96 36.0774 Q1804.64 32.4315 1799.13 32.4315 Q1792.89 32.4315 1789.13 35.9558 Q1785.4 39.4801 1784.83 45.8805 L1811.41 45.84 Z" fill="#000000" fill-rule="nonzero" fill-opacity="1" /><path clip-path="url(#clip450)" d="M1831.42 12.096 L1839.6 12.096 L1839.6 37.6572 L1866.74 12.096 L1877.28 12.096 L1847.26 40.2903 L1879.42 72.576 L1868.65 72.576 L1839.6 43.45 L1839.6 72.576 L1831.42 72.576 L1831.42 12.096 Z" fill="#000000" fill-rule="nonzero" fill-opacity="1" /><path clip-path="url(#clip450)" d="M1923.21 45.1919 L1923.21 72.576 L1915.76 72.576 L1915.76 45.4349 Q1915.76 38.994 1913.25 35.7938 Q1910.74 32.5936 1905.71 32.5936 Q1899.68 32.5936 1896.19 36.4419 Q1892.71 40.2903 1892.71 46.9338 L1892.71 72.576 L1885.21 72.576 L1885.21 27.2059 L1892.71 27.2059 L1892.71 34.2544 Q1895.38 30.163 1898.99 28.1376 Q1902.63 26.1121 1907.37 26.1121 Q1915.19 26.1121 1919.2 30.9732 Q1923.21 35.7938 1923.21 45.1919 Z" fill="#000000" fill-rule="nonzero" fill-opacity="1" /><path clip-path="url(#clip450)" d="M1955.66 32.4315 Q1949.66 32.4315 1946.18 37.1306 Q1942.7 41.7891 1942.7 49.9314 Q1942.7 58.0738 1946.14 62.7728 Q1949.62 67.4314 1955.66 67.4314 Q1961.61 67.4314 1965.1 62.7323 Q1968.58 58.0333 1968.58 49.9314 Q1968.58 41.8701 1965.1 37.1711 Q1961.61 32.4315 1955.66 32.4315 M1955.66 26.1121 Q1965.38 26.1121 1970.93 32.4315 Q1976.48 38.7509 1976.48 49.9314 Q1976.48 61.0714 1970.93 67.4314 Q1965.38 73.7508 1955.66 73.7508 Q1945.9 73.7508 1940.35 67.4314 Q1934.84 61.0714 1934.84 49.9314 Q1934.84 38.7509 1940.35 32.4315 Q1945.9 26.1121 1955.66 26.1121 Z" fill="#000000" fill-rule="nonzero" fill-opacity="1" /><path clip-path="url(#clip450)" d="M1996.21 14.324 L1996.21 27.2059 L2011.56 27.2059 L2011.56 32.9987 L1996.21 32.9987 L1996.21 57.6282 Q1996.21 63.1779 1997.71 64.7578 Q1999.25 66.3376 2003.91 66.3376 L2011.56 66.3376 L2011.56 72.576 L2003.91 72.576 Q1995.28 72.576 1992 69.3758 Q1988.72 66.1351 1988.72 57.6282 L1988.72 32.9987 L1983.25 32.9987 L1983.25 27.2059 L1988.72 27.2059 L1988.72 14.324 L1996.21 14.324 Z" fill="#000000" fill-rule="nonzero" fill-opacity="1" /><path clip-path="url(#clip450)" d="M2050.29 28.5427 L2050.29 35.5912 Q2047.13 33.9709 2043.73 33.1607 Q2040.32 32.3505 2036.68 32.3505 Q2031.13 32.3505 2028.33 34.0519 Q2025.58 35.7533 2025.58 39.156 Q2025.58 41.7486 2027.56 43.2475 Q2029.55 44.7058 2035.54 46.0426 L2038.1 46.6097 Q2046.04 48.3111 2049.36 51.4303 Q2052.72 54.509 2052.72 60.0587 Q2052.72 66.3781 2047.7 70.0644 Q2042.71 73.7508 2033.96 73.7508 Q2030.32 73.7508 2026.35 73.0216 Q2022.42 72.3329 2018.04 70.9151 L2018.04 63.2184 Q2022.18 65.3654 2026.19 66.4591 Q2030.2 67.5124 2034.13 67.5124 Q2039.39 67.5124 2042.23 65.73 Q2045.06 63.9071 2045.06 60.6258 Q2045.06 57.5877 2043 55.9673 Q2040.97 54.3469 2034.05 52.8481 L2031.45 52.2405 Q2024.53 50.7821 2021.45 47.7845 Q2018.37 44.7463 2018.37 39.4801 Q2018.37 33.0797 2022.91 29.5959 Q2027.44 26.1121 2035.79 26.1121 Q2039.92 26.1121 2043.56 26.7198 Q2047.21 27.3274 2050.29 28.5427 Z" fill="#000000" fill-rule="nonzero" fill-opacity="1" /><circle clip-path="url(#clip452)" cx="1273.35" cy="1406.71" r="21.6" fill="#009af9" fill-rule="evenodd" fill-opacity="1" stroke="#000000" stroke-opacity="1" stroke-width="3.2"/>
<circle clip-path="url(#clip452)" cx="1273.35" cy="1162.53" r="21.6" fill="#009af9" fill-rule="evenodd" fill-opacity="1" stroke="#000000" stroke-opacity="1" stroke-width="3.2"/>
<circle clip-path="url(#clip452)" cx="1273.35" cy="804.96" r="21.6" fill="#009af9" fill-rule="evenodd" fill-opacity="1" stroke="#000000" stroke-opacity="1" stroke-width="3.2"/>
<circle clip-path="url(#clip452)" cx="1273.35" cy="447.386" r="21.6" fill="#009af9" fill-rule="evenodd" fill-opacity="1" stroke="#000000" stroke-opacity="1" stroke-width="3.2"/>
<circle clip-path="url(#clip452)" cx="1273.35" cy="203.205" r="21.6" fill="#009af9" fill-rule="evenodd" fill-opacity="1" stroke="#000000" stroke-opacity="1" stroke-width="3.2"/>
<circle clip-path="url(#clip452)" cx="758.97" cy="1319.34" r="21.6" fill="#009af9" fill-rule="evenodd" fill-opacity="1" stroke="#000000" stroke-opacity="1" stroke-width="3.2"/>
<circle clip-path="url(#clip452)" cx="1273.35" cy="1319.34" r="21.6" fill="#009af9" fill-rule="evenodd" fill-opacity="1" stroke="#000000" stroke-opacity="1" stroke-width="3.2"/>
<circle clip-path="url(#clip452)" cx="1787.72" cy="1319.34" r="21.6" fill="#009af9" fill-rule="evenodd" fill-opacity="1" stroke="#000000" stroke-opacity="1" stroke-width="3.2"/>
<circle clip-path="url(#clip452)" cx="758.97" cy="804.96" r="21.6" fill="#009af9" fill-rule="evenodd" fill-opacity="1" stroke="#000000" stroke-opacity="1" stroke-width="3.2"/>
<circle clip-path="url(#clip452)" cx="1787.72" cy="804.96" r="21.6" fill="#009af9" fill-rule="evenodd" fill-opacity="1" stroke="#000000" stroke-opacity="1" stroke-width="3.2"/>
<circle clip-path="url(#clip452)" cx="758.97" cy="290.584" r="21.6" fill="#009af9" fill-rule="evenodd" fill-opacity="1" stroke="#000000" stroke-opacity="1" stroke-width="3.2"/>
<circle clip-path="url(#clip452)" cx="1273.35" cy="290.584" r="21.6" fill="#009af9" fill-rule="evenodd" fill-opacity="1" stroke="#000000" stroke-opacity="1" stroke-width="3.2"/>
<circle clip-path="url(#clip452)" cx="1787.72" cy="290.584" r="21.6" fill="#009af9" fill-rule="evenodd" fill-opacity="1" stroke="#000000" stroke-opacity="1" stroke-width="3.2"/>
<circle clip-path="url(#clip452)" cx="671.591" cy="804.96" r="21.6" fill="#009af9" fill-rule="evenodd" fill-opacity="1" stroke="#000000" stroke-opacity="1" stroke-width="3.2"/>
<circle clip-path="url(#clip452)" cx="915.772" cy="804.96" r="21.6" fill="#009af9" fill-rule="evenodd" fill-opacity="1" stroke="#000000" stroke-opacity="1" stroke-width="3.2"/>
<circle clip-path="url(#clip452)" cx="1630.92" cy="804.96" r="21.6" fill="#009af9" fill-rule="evenodd" fill-opacity="1" stroke="#000000" stroke-opacity="1" stroke-width="3.2"/>
<circle clip-path="url(#clip452)" cx="1875.1" cy="804.96" r="21.6" fill="#009af9" fill-rule="evenodd" fill-opacity="1" stroke="#000000" stroke-opacity="1" stroke-width="3.2"/>
<circle clip-path="url(#clip452)" cx="1273.35" cy="1447.87" r="21.6" fill="#009af9" fill-rule="evenodd" fill-opacity="1" stroke="#000000" stroke-opacity="1" stroke-width="3.2"/>
<circle clip-path="url(#clip452)" cx="1273.35" cy="1360.13" r="21.6" fill="#009af9" fill-rule="evenodd" fill-opacity="1" stroke="#000000" stroke-opacity="1" stroke-width="3.2"/>
<circle clip-path="url(#clip452)" cx="1273.35" cy="1212.27" r="21.6" fill="#009af9" fill-rule="evenodd" fill-opacity="1" stroke="#000000" stroke-opacity="1" stroke-width="3.2"/>
<circle clip-path="url(#clip452)" cx="1273.35" cy="1020.28" r="21.6" fill="#009af9" fill-rule="evenodd" fill-opacity="1" stroke="#000000" stroke-opacity="1" stroke-width="3.2"/>
<circle clip-path="url(#clip452)" cx="1273.35" cy="589.637" r="21.6" fill="#009af9" fill-rule="evenodd" fill-opacity="1" stroke="#000000" stroke-opacity="1" stroke-width="3.2"/>
<circle clip-path="url(#clip452)" cx="1273.35" cy="397.647" r="21.6" fill="#009af9" fill-rule="evenodd" fill-opacity="1" stroke="#000000" stroke-opacity="1" stroke-width="3.2"/>
<circle clip-path="url(#clip452)" cx="1273.35" cy="249.788" r="21.6" fill="#009af9" fill-rule="evenodd" fill-opacity="1" stroke="#000000" stroke-opacity="1" stroke-width="3.2"/>
<circle clip-path="url(#clip452)" cx="1273.35" cy="162.047" r="21.6" fill="#009af9" fill-rule="evenodd" fill-opacity="1" stroke="#000000" stroke-opacity="1" stroke-width="3.2"/>
<circle clip-path="url(#clip452)" cx="758.97" cy="1406.71" r="21.6" fill="#009af9" fill-rule="evenodd" fill-opacity="1" stroke="#000000" stroke-opacity="1" stroke-width="3.2"/>
<circle clip-path="url(#clip452)" cx="1787.72" cy="1406.71" r="21.6" fill="#009af9" fill-rule="evenodd" fill-opacity="1" stroke="#000000" stroke-opacity="1" stroke-width="3.2"/>
<circle clip-path="url(#clip452)" cx="758.97" cy="1162.53" r="21.6" fill="#009af9" fill-rule="evenodd" fill-opacity="1" stroke="#000000" stroke-opacity="1" stroke-width="3.2"/>
<circle clip-path="url(#clip452)" cx="1787.72" cy="1162.53" r="21.6" fill="#009af9" fill-rule="evenodd" fill-opacity="1" stroke="#000000" stroke-opacity="1" stroke-width="3.2"/>
<circle clip-path="url(#clip452)" cx="758.97" cy="447.386" r="21.6" fill="#009af9" fill-rule="evenodd" fill-opacity="1" stroke="#000000" stroke-opacity="1" stroke-width="3.2"/>
<circle clip-path="url(#clip452)" cx="1787.72" cy="447.386" r="21.6" fill="#009af9" fill-rule="evenodd" fill-opacity="1" stroke="#000000" stroke-opacity="1" stroke-width="3.2"/>
<circle clip-path="url(#clip452)" cx="758.97" cy="203.205" r="21.6" fill="#009af9" fill-rule="evenodd" fill-opacity="1" stroke="#000000" stroke-opacity="1" stroke-width="3.2"/>
<circle clip-path="url(#clip452)" cx="1787.72" cy="203.205" r="21.6" fill="#009af9" fill-rule="evenodd" fill-opacity="1" stroke="#000000" stroke-opacity="1" stroke-width="3.2"/>
<circle clip-path="url(#clip452)" cx="671.591" cy="1319.34" r="21.6" fill="#009af9" fill-rule="evenodd" fill-opacity="1" stroke="#000000" stroke-opacity="1" stroke-width="3.2"/>
<circle clip-path="url(#clip452)" cx="915.772" cy="1319.34" r="21.6" fill="#009af9" fill-rule="evenodd" fill-opacity="1" stroke="#000000" stroke-opacity="1" stroke-width="3.2"/>
<circle clip-path="url(#clip452)" cx="1630.92" cy="1319.34" r="21.6" fill="#009af9" fill-rule="evenodd" fill-opacity="1" stroke="#000000" stroke-opacity="1" stroke-width="3.2"/>
<circle clip-path="url(#clip452)" cx="1875.1" cy="1319.34" r="21.6" fill="#009af9" fill-rule="evenodd" fill-opacity="1" stroke="#000000" stroke-opacity="1" stroke-width="3.2"/>
<circle clip-path="url(#clip452)" cx="671.591" cy="290.584" r="21.6" fill="#009af9" fill-rule="evenodd" fill-opacity="1" stroke="#000000" stroke-opacity="1" stroke-width="3.2"/>
<circle clip-path="url(#clip452)" cx="915.772" cy="290.584" r="21.6" fill="#009af9" fill-rule="evenodd" fill-opacity="1" stroke="#000000" stroke-opacity="1" stroke-width="3.2"/>
<circle clip-path="url(#clip452)" cx="1630.92" cy="290.584" r="21.6" fill="#009af9" fill-rule="evenodd" fill-opacity="1" stroke="#000000" stroke-opacity="1" stroke-width="3.2"/>
<circle clip-path="url(#clip452)" cx="1875.1" cy="290.584" r="21.6" fill="#009af9" fill-rule="evenodd" fill-opacity="1" stroke="#000000" stroke-opacity="1" stroke-width="3.2"/>
<circle clip-path="url(#clip452)" cx="630.433" cy="804.96" r="21.6" fill="#009af9" fill-rule="evenodd" fill-opacity="1" stroke="#000000" stroke-opacity="1" stroke-width="3.2"/>
<circle clip-path="url(#clip452)" cx="718.174" cy="804.96" r="21.6" fill="#009af9" fill-rule="evenodd" fill-opacity="1" stroke="#000000" stroke-opacity="1" stroke-width="3.2"/>
<circle clip-path="url(#clip452)" cx="866.033" cy="804.96" r="21.6" fill="#009af9" fill-rule="evenodd" fill-opacity="1" stroke="#000000" stroke-opacity="1" stroke-width="3.2"/>
<circle clip-path="url(#clip452)" cx="1058.02" cy="804.96" r="21.6" fill="#009af9" fill-rule="evenodd" fill-opacity="1" stroke="#000000" stroke-opacity="1" stroke-width="3.2"/>
<circle clip-path="url(#clip452)" cx="1488.67" cy="804.96" r="21.6" fill="#009af9" fill-rule="evenodd" fill-opacity="1" stroke="#000000" stroke-opacity="1" stroke-width="3.2"/>
<circle clip-path="url(#clip452)" cx="1680.66" cy="804.96" r="21.6" fill="#009af9" fill-rule="evenodd" fill-opacity="1" stroke="#000000" stroke-opacity="1" stroke-width="3.2"/>
<circle clip-path="url(#clip452)" cx="1828.52" cy="804.96" r="21.6" fill="#009af9" fill-rule="evenodd" fill-opacity="1" stroke="#000000" stroke-opacity="1" stroke-width="3.2"/>
<circle clip-path="url(#clip452)" cx="1916.26" cy="804.96" r="21.6" fill="#009af9" fill-rule="evenodd" fill-opacity="1" stroke="#000000" stroke-opacity="1" stroke-width="3.2"/>
<path clip-path="url(#clip450)" d="M1865.17 272.585 L2280.8 272.585 L2280.8 168.905 L1865.17 168.905  Z" fill="#ffffff" fill-rule="evenodd" fill-opacity="1"/>
<polyline clip-path="url(#clip450)" style="stroke:#000000; stroke-linecap:round; stroke-linejoin:round; stroke-width:4; stroke-opacity:1; fill:none" points="1865.17,272.585 2280.8,272.585 2280.8,168.905 1865.17,168.905 1865.17,272.585 "/>
<circle clip-path="url(#clip450)" cx="1961.12" cy="220.745" r="21.2677" fill="#009af9" fill-rule="evenodd" fill-opacity="1" stroke="#000000" stroke-opacity="1" stroke-width="3.15077"/>
<path clip-path="url(#clip450)" d="M2079.31 204.599 L2079.31 209.159 Q2076.65 207.886 2074.29 207.261 Q2071.93 206.636 2069.73 206.636 Q2065.91 206.636 2063.82 208.117 Q2061.76 209.599 2061.76 212.33 Q2061.76 214.622 2063.13 215.803 Q2064.52 216.96 2068.36 217.678 L2071.18 218.256 Q2076.42 219.252 2078.89 221.775 Q2081.39 224.275 2081.39 228.488 Q2081.39 233.511 2078.01 236.103 Q2074.66 238.696 2068.15 238.696 Q2065.7 238.696 2062.92 238.14 Q2060.17 237.585 2057.2 236.497 L2057.2 231.682 Q2060.05 233.279 2062.78 234.089 Q2065.51 234.9 2068.15 234.9 Q2072.16 234.9 2074.33 233.326 Q2076.51 231.752 2076.51 228.835 Q2076.51 226.289 2074.93 224.853 Q2073.38 223.418 2069.82 222.701 L2066.97 222.145 Q2061.74 221.103 2059.4 218.881 Q2057.06 216.659 2057.06 212.701 Q2057.06 208.117 2060.28 205.479 Q2063.52 202.84 2069.19 202.84 Q2071.62 202.84 2074.15 203.279 Q2076.67 203.719 2079.31 204.599 Z" fill="#000000" fill-rule="nonzero" fill-opacity="1" /><path clip-path="url(#clip450)" d="M2108.68 217.076 Q2110.28 214.205 2112.5 212.84 Q2114.73 211.474 2117.74 211.474 Q2121.79 211.474 2123.98 214.321 Q2126.18 217.145 2126.18 222.377 L2126.18 238.025 L2121.9 238.025 L2121.9 222.515 Q2121.9 218.789 2120.58 216.983 Q2119.26 215.178 2116.55 215.178 Q2113.24 215.178 2111.32 217.377 Q2109.4 219.576 2109.4 223.372 L2109.4 238.025 L2105.12 238.025 L2105.12 222.515 Q2105.12 218.765 2103.8 216.983 Q2102.48 215.178 2099.73 215.178 Q2096.46 215.178 2094.54 217.4 Q2092.62 219.599 2092.62 223.372 L2092.62 238.025 L2088.34 238.025 L2088.34 212.099 L2092.62 212.099 L2092.62 216.127 Q2094.08 213.742 2096.11 212.608 Q2098.15 211.474 2100.95 211.474 Q2103.78 211.474 2105.74 212.909 Q2107.74 214.344 2108.68 217.076 Z" fill="#000000" fill-rule="nonzero" fill-opacity="1" /><path clip-path="url(#clip450)" d="M2144.73 215.085 Q2141.3 215.085 2139.31 217.77 Q2137.32 220.432 2137.32 225.085 Q2137.32 229.738 2139.29 232.423 Q2141.28 235.085 2144.73 235.085 Q2148.13 235.085 2150.12 232.4 Q2152.11 229.715 2152.11 225.085 Q2152.11 220.478 2150.12 217.793 Q2148.13 215.085 2144.73 215.085 M2144.73 211.474 Q2150.28 211.474 2153.45 215.085 Q2156.62 218.696 2156.62 225.085 Q2156.62 231.451 2153.45 235.085 Q2150.28 238.696 2144.73 238.696 Q2139.15 238.696 2135.98 235.085 Q2132.83 231.451 2132.83 225.085 Q2132.83 218.696 2135.98 215.085 Q2139.15 211.474 2144.73 211.474 Z" fill="#000000" fill-rule="nonzero" fill-opacity="1" /><path clip-path="url(#clip450)" d="M2163.68 202.006 L2167.94 202.006 L2167.94 238.025 L2163.68 238.025 L2163.68 202.006 Z" fill="#000000" fill-rule="nonzero" fill-opacity="1" /><path clip-path="url(#clip450)" d="M2187.64 240.432 Q2185.84 245.062 2184.12 246.474 Q2182.41 247.886 2179.54 247.886 L2176.14 247.886 L2176.14 244.321 L2178.64 244.321 Q2180.4 244.321 2181.37 243.488 Q2182.34 242.654 2183.52 239.552 L2184.29 237.608 L2173.8 212.099 L2178.31 212.099 L2186.42 232.377 L2194.52 212.099 L2199.03 212.099 L2187.64 240.432 Z" fill="#000000" fill-rule="nonzero" fill-opacity="1" /><path clip-path="url(#clip450)" d="M2216.69 224.992 Q2211.53 224.992 2209.54 226.173 Q2207.55 227.353 2207.55 230.201 Q2207.55 232.469 2209.03 233.812 Q2210.54 235.131 2213.1 235.131 Q2216.65 235.131 2218.78 232.631 Q2220.93 230.108 2220.93 225.941 L2220.93 224.992 L2216.69 224.992 M2225.19 223.233 L2225.19 238.025 L2220.93 238.025 L2220.93 234.089 Q2219.47 236.451 2217.29 237.585 Q2215.12 238.696 2211.97 238.696 Q2207.99 238.696 2205.63 236.474 Q2203.29 234.228 2203.29 230.478 Q2203.29 226.103 2206.21 223.881 Q2209.15 221.659 2214.96 221.659 L2220.93 221.659 L2220.93 221.242 Q2220.93 218.303 2218.98 216.705 Q2217.06 215.085 2213.57 215.085 Q2211.35 215.085 2209.24 215.617 Q2207.13 216.15 2205.19 217.215 L2205.19 213.279 Q2207.53 212.377 2209.73 211.937 Q2211.92 211.474 2214.01 211.474 Q2219.63 211.474 2222.41 214.391 Q2225.19 217.307 2225.19 223.233 Z" fill="#000000" fill-rule="nonzero" fill-opacity="1" /><path clip-path="url(#clip450)" d="M2233.8 202.006 L2238.08 202.006 L2238.08 223.279 L2250.79 212.099 L2256.23 212.099 L2242.48 224.228 L2256.81 238.025 L2251.25 238.025 L2238.08 225.363 L2238.08 238.025 L2233.8 238.025 L2233.8 202.006 Z" fill="#000000" fill-rule="nonzero" fill-opacity="1" /></svg>
