<?xml version="1.0" encoding="utf-8"?>
<svg xmlns="http://www.w3.org/2000/svg" xmlns:xlink="http://www.w3.org/1999/xlink" width="600" height="400" viewBox="0 0 2400 1600">
<defs>
  <clipPath id="clip360">
    <rect x="0" y="0" width="2400" height="1600"/>
  </clipPath>
</defs>
<path clip-path="url(#clip360)" d="M0 1600 L2400 1600 L2400 0 L0 0  Z" fill="#ffffff" fill-rule="evenodd" fill-opacity="1"/>
<defs>
  <clipPath id="clip361">
    <rect x="186" y="123" width="2167" height="1364"/>
  </clipPath>
</defs>
<path clip-path="url(#clip360)" d="M149.191 1486.45 L2352.76 1486.45 L2352.76 123.472 L149.191 123.472  Z" fill="#ffffff" fill-rule="evenodd" fill-opacity="1"/>
<defs>
  <clipPath id="clip362">
    <rect x="149" y="123" width="2205" height="1364"/>
  </clipPath>
</defs>
<polyline clip-path="url(#clip362)" style="stroke:#000000; stroke-linecap:round; stroke-linejoin:round; stroke-width:2; stroke-opacity:0.1; fill:none" points="396.177,1486.45 396.177,123.472 "/>
<polyline clip-path="url(#clip362)" style="stroke:#000000; stroke-linecap:round; stroke-linejoin:round; stroke-width:2; stroke-opacity:0.1; fill:none" points="681.109,1486.45 681.109,123.472 "/>
<polyline clip-path="url(#clip362)" style="stroke:#000000; stroke-linecap:round; stroke-linejoin:round; stroke-width:2; stroke-opacity:0.1; fill:none" points="966.041,1486.45 966.041,123.472 "/>
<polyline clip-path="url(#clip362)" style="stroke:#000000; stroke-linecap:round; stroke-linejoin:round; stroke-width:2; stroke-opacity:0.1; fill:none" points="1250.97,1486.45 1250.97,123.472 "/>
<polyline clip-path="url(#clip362)" style="stroke:#000000; stroke-linecap:round; stroke-linejoin:round; stroke-width:2; stroke-opacity:0.1; fill:none" points="1535.91,1486.45 1535.91,123.472 "/>
<polyline clip-path="url(#clip362)" style="stroke:#000000; stroke-linecap:round; stroke-linejoin:round; stroke-width:2; stroke-opacity:0.1; fill:none" points="1820.84,1486.45 1820.84,123.472 "/>
<polyline clip-path="url(#clip362)" style="stroke:#000000; stroke-linecap:round; stroke-linejoin:round; stroke-width:2; stroke-opacity:0.1; fill:none" points="2105.77,1486.45 2105.77,123.472 "/>
<polyline clip-path="url(#clip362)" style="stroke:#000000; stroke-linecap:round; stroke-linejoin:round; stroke-width:2; stroke-opacity:0.1; fill:none" points="149.191,1374.82 2352.76,1374.82 "/>
<polyline clip-path="url(#clip362)" style="stroke:#000000; stroke-linecap:round; stroke-linejoin:round; stroke-width:2; stroke-opacity:0.1; fill:none" points="149.191,1089.89 2352.76,1089.89 "/>
<polyline clip-path="url(#clip362)" style="stroke:#000000; stroke-linecap:round; stroke-linejoin:round; stroke-width:2; stroke-opacity:0.1; fill:none" points="149.191,804.96 2352.76,804.96 "/>
<polyline clip-path="url(#clip362)" style="stroke:#000000; stroke-linecap:round; stroke-linejoin:round; stroke-width:2; stroke-opacity:0.1; fill:none" points="149.191,520.028 2352.76,520.028 "/>
<polyline clip-path="url(#clip362)" style="stroke:#000000; stroke-linecap:round; stroke-linejoin:round; stroke-width:2; stroke-opacity:0.1; fill:none" points="149.191,235.096 2352.76,235.096 "/>
<polyline clip-path="url(#clip360)" style="stroke:#000000; stroke-linecap:round; stroke-linejoin:round; stroke-width:4; stroke-opacity:1; fill:none" points="149.191,1486.45 2352.76,1486.45 "/>
<polyline clip-path="url(#clip360)" style="stroke:#000000; stroke-linecap:round; stroke-linejoin:round; stroke-width:4; stroke-opacity:1; fill:none" points="396.177,1486.45 396.177,1467.55 "/>
<polyline clip-path="url(#clip360)" style="stroke:#000000; stroke-linecap:round; stroke-linejoin:round; stroke-width:4; stroke-opacity:1; fill:none" points="681.109,1486.45 681.109,1467.55 "/>
<polyline clip-path="url(#clip360)" style="stroke:#000000; stroke-linecap:round; stroke-linejoin:round; stroke-width:4; stroke-opacity:1; fill:none" points="966.041,1486.45 966.041,1467.55 "/>
<polyline clip-path="url(#clip360)" style="stroke:#000000; stroke-linecap:round; stroke-linejoin:round; stroke-width:4; stroke-opacity:1; fill:none" points="1250.97,1486.45 1250.97,1467.55 "/>
<polyline clip-path="url(#clip360)" style="stroke:#000000; stroke-linecap:round; stroke-linejoin:round; stroke-width:4; stroke-opacity:1; fill:none" points="1535.91,1486.45 1535.91,1467.55 "/>
<polyline clip-path="url(#clip360)" style="stroke:#000000; stroke-linecap:round; stroke-linejoin:round; stroke-width:4; stroke-opacity:1; fill:none" points="1820.84,1486.45 1820.84,1467.55 "/>
<polyline clip-path="url(#clip360)" style="stroke:#000000; stroke-linecap:round; stroke-linejoin:round; stroke-width:4; stroke-opacity:1; fill:none" points="2105.77,1486.45 2105.77,1467.55 "/>
<path clip-path="url(#clip360)" d="M365.24 1532.02 L394.916 1532.02 L394.916 1535.95 L365.24 1535.95 L365.24 1532.02 Z" fill="#000000" fill-rule="nonzero" fill-opacity="1" /><path clip-path="url(#clip360)" d="M415.587 1529.7 Q412.439 1529.7 410.587 1531.86 Q408.758 1534.01 408.758 1537.76 Q408.758 1541.49 410.587 1543.66 Q412.439 1545.82 415.587 1545.82 Q418.735 1545.82 420.564 1543.66 Q422.415 1541.49 422.415 1537.76 Q422.415 1534.01 420.564 1531.86 Q418.735 1529.7 415.587 1529.7 M424.869 1515.05 L424.869 1519.31 Q423.11 1518.48 421.304 1518.04 Q419.522 1517.6 417.763 1517.6 Q413.133 1517.6 410.679 1520.72 Q408.249 1523.85 407.902 1530.17 Q409.267 1528.15 411.327 1527.09 Q413.388 1526 415.864 1526 Q421.073 1526 424.082 1529.17 Q427.114 1532.32 427.114 1537.76 Q427.114 1543.08 423.966 1546.3 Q420.818 1549.52 415.587 1549.52 Q409.591 1549.52 406.42 1544.94 Q403.249 1540.33 403.249 1531.6 Q403.249 1523.41 407.138 1518.55 Q411.027 1513.66 417.577 1513.66 Q419.337 1513.66 421.119 1514.01 Q422.925 1514.36 424.869 1515.05 Z" fill="#000000" fill-rule="nonzero" fill-opacity="1" /><path clip-path="url(#clip360)" d="M650.01 1532.02 L679.686 1532.02 L679.686 1535.95 L650.01 1535.95 L650.01 1532.02 Z" fill="#000000" fill-rule="nonzero" fill-opacity="1" /><path clip-path="url(#clip360)" d="M702.625 1518.36 L690.82 1536.81 L702.625 1536.81 L702.625 1518.36 M701.398 1514.29 L707.278 1514.29 L707.278 1536.81 L712.209 1536.81 L712.209 1540.7 L707.278 1540.7 L707.278 1548.85 L702.625 1548.85 L702.625 1540.7 L687.023 1540.7 L687.023 1536.19 L701.398 1514.29 Z" fill="#000000" fill-rule="nonzero" fill-opacity="1" /><path clip-path="url(#clip360)" d="M935.984 1532.02 L965.659 1532.02 L965.659 1535.95 L935.984 1535.95 L935.984 1532.02 Z" fill="#000000" fill-rule="nonzero" fill-opacity="1" /><path clip-path="url(#clip360)" d="M979.78 1544.91 L996.099 1544.91 L996.099 1548.85 L974.155 1548.85 L974.155 1544.91 Q976.817 1542.16 981.4 1537.53 Q986.006 1532.88 987.187 1531.53 Q989.432 1529.01 990.312 1527.27 Q991.215 1525.51 991.215 1523.82 Q991.215 1521.07 989.27 1519.33 Q987.349 1517.6 984.247 1517.6 Q982.048 1517.6 979.594 1518.36 Q977.164 1519.13 974.386 1520.68 L974.386 1515.95 Q977.21 1514.82 979.664 1514.24 Q982.118 1513.66 984.155 1513.66 Q989.525 1513.66 992.719 1516.35 Q995.914 1519.03 995.914 1523.52 Q995.914 1525.65 995.104 1527.57 Q994.317 1529.47 992.21 1532.07 Q991.631 1532.74 988.53 1535.95 Q985.428 1539.15 979.78 1544.91 Z" fill="#000000" fill-rule="nonzero" fill-opacity="1" /><path clip-path="url(#clip360)" d="M1250.97 1517.37 Q1247.36 1517.37 1245.53 1520.93 Q1243.73 1524.47 1243.73 1531.6 Q1243.73 1538.71 1245.53 1542.27 Q1247.36 1545.82 1250.97 1545.82 Q1254.61 1545.82 1256.41 1542.27 Q1258.24 1538.71 1258.24 1531.6 Q1258.24 1524.47 1256.41 1520.93 Q1254.61 1517.37 1250.97 1517.37 M1250.97 1513.66 Q1256.78 1513.66 1259.84 1518.27 Q1262.92 1522.85 1262.92 1531.6 Q1262.92 1540.33 1259.84 1544.94 Q1256.78 1549.52 1250.97 1549.52 Q1245.16 1549.52 1242.08 1544.94 Q1239.03 1540.33 1239.03 1531.6 Q1239.03 1522.85 1242.08 1518.27 Q1245.16 1513.66 1250.97 1513.66 Z" fill="#000000" fill-rule="nonzero" fill-opacity="1" /><path clip-path="url(#clip360)" d="M1530.56 1544.91 L1546.88 1544.91 L1546.88 1548.85 L1524.93 1548.85 L1524.93 1544.91 Q1527.6 1542.16 1532.18 1537.53 Q1536.79 1532.88 1537.97 1531.53 Q1540.21 1529.01 1541.09 1527.27 Q1541.99 1525.51 1541.99 1523.82 Q1541.99 1521.07 1540.05 1519.33 Q1538.13 1517.6 1535.03 1517.6 Q1532.83 1517.6 1530.37 1518.36 Q1527.94 1519.13 1525.16 1520.68 L1525.16 1515.95 Q1527.99 1514.82 1530.44 1514.24 Q1532.9 1513.66 1534.93 1513.66 Q1540.3 1513.66 1543.5 1516.35 Q1546.69 1519.03 1546.69 1523.52 Q1546.69 1525.65 1545.88 1527.57 Q1545.1 1529.47 1542.99 1532.07 Q1542.41 1532.74 1539.31 1535.95 Q1536.21 1539.15 1530.56 1544.91 Z" fill="#000000" fill-rule="nonzero" fill-opacity="1" /><path clip-path="url(#clip360)" d="M1823.85 1518.36 L1812.04 1536.81 L1823.85 1536.81 L1823.85 1518.36 M1822.62 1514.29 L1828.5 1514.29 L1828.5 1536.81 L1833.43 1536.81 L1833.43 1540.7 L1828.5 1540.7 L1828.5 1548.85 L1823.85 1548.85 L1823.85 1540.7 L1808.25 1540.7 L1808.25 1536.19 L1822.62 1514.29 Z" fill="#000000" fill-rule="nonzero" fill-opacity="1" /><path clip-path="url(#clip360)" d="M2106.17 1529.7 Q2103.03 1529.7 2101.17 1531.86 Q2099.35 1534.01 2099.35 1537.76 Q2099.35 1541.49 2101.17 1543.66 Q2103.03 1545.82 2106.17 1545.82 Q2109.32 1545.82 2111.15 1543.66 Q2113 1541.49 2113 1537.76 Q2113 1534.01 2111.15 1531.86 Q2109.32 1529.7 2106.17 1529.7 M2115.46 1515.05 L2115.46 1519.31 Q2113.7 1518.48 2111.89 1518.04 Q2110.11 1517.6 2108.35 1517.6 Q2103.72 1517.6 2101.27 1520.72 Q2098.84 1523.85 2098.49 1530.17 Q2099.86 1528.15 2101.92 1527.09 Q2103.98 1526 2106.45 1526 Q2111.66 1526 2114.67 1529.17 Q2117.7 1532.32 2117.7 1537.76 Q2117.7 1543.08 2114.55 1546.3 Q2111.41 1549.52 2106.17 1549.52 Q2100.18 1549.52 2097.01 1544.94 Q2093.84 1540.33 2093.84 1531.6 Q2093.84 1523.41 2097.73 1518.55 Q2101.61 1513.66 2108.17 1513.66 Q2109.92 1513.66 2111.71 1514.01 Q2113.51 1514.36 2115.46 1515.05 Z" fill="#000000" fill-rule="nonzero" fill-opacity="1" /><polyline clip-path="url(#clip360)" style="stroke:#000000; stroke-linecap:round; stroke-linejoin:round; stroke-width:4; stroke-opacity:1; fill:none" points="149.191,1486.45 149.191,123.472 "/>
<polyline clip-path="url(#clip360)" style="stroke:#000000; stroke-linecap:round; stroke-linejoin:round; stroke-width:4; stroke-opacity:1; fill:none" points="149.191,1374.82 168.089,1374.82 "/>
<polyline clip-path="url(#clip360)" style="stroke:#000000; stroke-linecap:round; stroke-linejoin:round; stroke-width:4; stroke-opacity:1; fill:none" points="149.191,1089.89 168.089,1089.89 "/>
<polyline clip-path="url(#clip360)" style="stroke:#000000; stroke-linecap:round; stroke-linejoin:round; stroke-width:4; stroke-opacity:1; fill:none" points="149.191,804.96 168.089,804.96 "/>
<polyline clip-path="url(#clip360)" style="stroke:#000000; stroke-linecap:round; stroke-linejoin:round; stroke-width:4; stroke-opacity:1; fill:none" points="149.191,520.028 168.089,520.028 "/>
<polyline clip-path="url(#clip360)" style="stroke:#000000; stroke-linecap:round; stroke-linejoin:round; stroke-width:4; stroke-opacity:1; fill:none" points="149.191,235.096 168.089,235.096 "/>
<path clip-path="url(#clip360)" d="M50.9921 1375.28 L80.6679 1375.28 L80.6679 1379.21 L50.9921 1379.21 L50.9921 1375.28 Z" fill="#000000" fill-rule="nonzero" fill-opacity="1" /><path clip-path="url(#clip360)" d="M103.608 1361.62 L91.8021 1380.07 L103.608 1380.07 L103.608 1361.62 M102.381 1357.54 L108.26 1357.54 L108.26 1380.07 L113.191 1380.07 L113.191 1383.96 L108.26 1383.96 L108.26 1392.1 L103.608 1392.1 L103.608 1383.96 L88.0058 1383.96 L88.0058 1379.44 L102.381 1357.54 Z" fill="#000000" fill-rule="nonzero" fill-opacity="1" /><path clip-path="url(#clip360)" d="M53.0754 1090.34 L82.7512 1090.34 L82.7512 1094.28 L53.0754 1094.28 L53.0754 1090.34 Z" fill="#000000" fill-rule="nonzero" fill-opacity="1" /><path clip-path="url(#clip360)" d="M96.8715 1103.24 L113.191 1103.24 L113.191 1107.17 L91.2465 1107.17 L91.2465 1103.24 Q93.9086 1100.48 98.4919 1095.85 Q103.098 1091.2 104.279 1089.86 Q106.524 1087.33 107.404 1085.6 Q108.307 1083.84 108.307 1082.15 Q108.307 1079.39 106.362 1077.66 Q104.441 1075.92 101.339 1075.92 Q99.14 1075.92 96.6863 1076.69 Q94.2558 1077.45 91.478 1079 L91.478 1074.28 Q94.3021 1073.14 96.7558 1072.57 Q99.2095 1071.99 101.246 1071.99 Q106.617 1071.99 109.811 1074.67 Q113.006 1077.36 113.006 1081.85 Q113.006 1083.98 112.196 1085.9 Q111.408 1087.8 109.302 1090.39 Q108.723 1091.06 105.621 1094.28 Q102.52 1097.47 96.8715 1103.24 Z" fill="#000000" fill-rule="nonzero" fill-opacity="1" /><path clip-path="url(#clip360)" d="M101.246 790.759 Q97.6354 790.759 95.8067 794.323 Q94.0012 797.865 94.0012 804.995 Q94.0012 812.101 95.8067 815.666 Q97.6354 819.208 101.246 819.208 Q104.881 819.208 106.686 815.666 Q108.515 812.101 108.515 804.995 Q108.515 797.865 106.686 794.323 Q104.881 790.759 101.246 790.759 M101.246 787.055 Q107.057 787.055 110.112 791.661 Q113.191 796.245 113.191 804.995 Q113.191 813.722 110.112 818.328 Q107.057 822.911 101.246 822.911 Q95.4363 822.911 92.3576 818.328 Q89.3021 813.722 89.3021 804.995 Q89.3021 796.245 92.3576 791.661 Q95.4363 787.055 101.246 787.055 Z" fill="#000000" fill-rule="nonzero" fill-opacity="1" /><path clip-path="url(#clip360)" d="M96.8715 533.373 L113.191 533.373 L113.191 537.308 L91.2465 537.308 L91.2465 533.373 Q93.9086 530.618 98.4919 525.989 Q103.098 521.336 104.279 519.993 Q106.524 517.47 107.404 515.734 Q108.307 513.975 108.307 512.285 Q108.307 509.53 106.362 507.794 Q104.441 506.058 101.339 506.058 Q99.14 506.058 96.6863 506.822 Q94.2558 507.586 91.478 509.137 L91.478 504.415 Q94.3021 503.28 96.7558 502.702 Q99.2095 502.123 101.246 502.123 Q106.617 502.123 109.811 504.808 Q113.006 507.493 113.006 511.984 Q113.006 514.114 112.196 516.035 Q111.408 517.933 109.302 520.526 Q108.723 521.197 105.621 524.414 Q102.52 527.609 96.8715 533.373 Z" fill="#000000" fill-rule="nonzero" fill-opacity="1" /><path clip-path="url(#clip360)" d="M103.608 221.89 L91.8021 240.339 L103.608 240.339 L103.608 221.89 M102.381 217.816 L108.26 217.816 L108.26 240.339 L113.191 240.339 L113.191 244.228 L108.26 244.228 L108.26 252.376 L103.608 252.376 L103.608 244.228 L88.0058 244.228 L88.0058 239.714 L102.381 217.816 Z" fill="#000000" fill-rule="nonzero" fill-opacity="1" /><path clip-path="url(#clip360)" d="M537.812 14.0809 L537.812 22.0612 Q533.153 19.8332 529.021 18.7395 Q524.889 17.6457 521.041 17.6457 Q514.357 17.6457 510.711 20.2383 Q507.106 22.8309 507.106 27.611 Q507.106 31.6214 509.496 33.6873 Q511.926 35.7128 518.651 36.9686 L523.593 37.9813 Q532.748 39.7232 537.083 44.1387 Q541.458 48.5136 541.458 55.8863 Q541.458 64.6767 535.543 69.2137 Q529.669 73.7508 518.286 73.7508 Q513.992 73.7508 509.131 72.7785 Q504.311 71.8063 499.126 69.9024 L499.126 61.4765 Q504.108 64.2716 508.888 65.6895 Q513.668 67.1073 518.286 67.1073 Q525.294 67.1073 529.102 64.3527 Q532.91 61.598 532.91 56.4939 Q532.91 52.0379 530.155 49.5264 Q527.441 47.0148 521.203 45.759 L516.22 44.7868 Q507.065 42.9639 502.974 39.075 Q498.883 35.1862 498.883 28.2591 Q498.883 20.2383 504.513 15.6203 Q510.185 11.0023 520.109 11.0023 Q524.363 11.0023 528.778 11.7719 Q533.194 12.5416 537.812 14.0809 Z" fill="#000000" fill-rule="nonzero" fill-opacity="1" /><path clip-path="url(#clip360)" d="M561.104 65.7705 L561.104 89.8329 L553.61 89.8329 L553.61 27.2059 L561.104 27.2059 L561.104 34.0924 Q563.454 30.0415 567.019 28.0971 Q570.624 26.1121 575.607 26.1121 Q583.87 26.1121 589.015 32.6746 Q594.2 39.2371 594.2 49.9314 Q594.2 60.6258 589.015 67.1883 Q583.87 73.7508 575.607 73.7508 Q570.624 73.7508 567.019 71.8063 Q563.454 69.8214 561.104 65.7705 M586.463 49.9314 Q586.463 41.7081 583.06 37.0496 Q579.698 32.3505 573.784 32.3505 Q567.869 32.3505 564.467 37.0496 Q561.104 41.7081 561.104 49.9314 Q561.104 58.1548 564.467 62.8538 Q567.869 67.5124 573.784 67.5124 Q579.698 67.5124 583.06 62.8538 Q586.463 58.1548 586.463 49.9314 Z" fill="#000000" fill-rule="nonzero" fill-opacity="1" /><path clip-path="url(#clip360)" d="M627.175 49.7694 Q618.141 49.7694 614.657 51.8354 Q611.174 53.9013 611.174 58.8839 Q611.174 62.8538 613.766 65.2034 Q616.399 67.5124 620.896 67.5124 Q627.094 67.5124 630.82 63.1374 Q634.588 58.7219 634.588 51.4303 L634.588 49.7694 L627.175 49.7694 M642.041 46.6907 L642.041 72.576 L634.588 72.576 L634.588 65.6895 Q632.036 69.8214 628.228 71.8063 Q624.42 73.7508 618.911 73.7508 Q611.943 73.7508 607.811 69.8619 Q603.72 65.9325 603.72 59.3701 Q603.72 51.7138 608.824 47.825 Q613.969 43.9361 624.136 43.9361 L634.588 43.9361 L634.588 43.2069 Q634.588 38.0623 631.185 35.2672 Q627.823 32.4315 621.706 32.4315 Q617.817 32.4315 614.131 33.3632 Q610.444 34.295 607.042 36.1584 L607.042 29.2718 Q611.133 27.692 614.981 26.9223 Q618.83 26.1121 622.476 26.1121 Q632.319 26.1121 637.18 31.2163 Q642.041 36.3204 642.041 46.6907 Z" fill="#000000" fill-rule="nonzero" fill-opacity="1" /><path clip-path="url(#clip360)" d="M683.685 34.1734 Q682.429 33.4443 680.93 33.1202 Q679.472 32.7556 677.689 32.7556 Q671.37 32.7556 667.967 36.8875 Q664.605 40.9789 664.605 48.6757 L664.605 72.576 L657.111 72.576 L657.111 27.2059 L664.605 27.2059 L664.605 34.2544 Q666.955 30.1225 670.722 28.1376 Q674.489 26.1121 679.877 26.1121 Q680.647 26.1121 681.578 26.2337 Q682.51 26.3147 683.644 26.5172 L683.685 34.1734 Z" fill="#000000" fill-rule="nonzero" fill-opacity="1" /><path clip-path="url(#clip360)" d="M720.426 28.5427 L720.426 35.5912 Q717.267 33.9709 713.864 33.1607 Q710.461 32.3505 706.815 32.3505 Q701.266 32.3505 698.471 34.0519 Q695.716 35.7533 695.716 39.156 Q695.716 41.7486 697.701 43.2475 Q699.686 44.7058 705.681 46.0426 L708.233 46.6097 Q716.173 48.3111 719.495 51.4303 Q722.857 54.509 722.857 60.0587 Q722.857 66.3781 717.834 70.0644 Q712.851 73.7508 704.101 73.7508 Q700.456 73.7508 696.486 73.0216 Q692.556 72.3329 688.181 70.9151 L688.181 63.2184 Q692.313 65.3654 696.324 66.4591 Q700.334 67.5124 704.263 67.5124 Q709.53 67.5124 712.365 65.73 Q715.201 63.9071 715.201 60.6258 Q715.201 57.5877 713.135 55.9673 Q711.109 54.3469 704.182 52.8481 L701.59 52.2405 Q694.663 50.7821 691.584 47.7845 Q688.505 44.7463 688.505 39.4801 Q688.505 33.0797 693.042 29.5959 Q697.579 26.1121 705.924 26.1121 Q710.056 26.1121 713.702 26.7198 Q717.348 27.3274 720.426 28.5427 Z" fill="#000000" fill-rule="nonzero" fill-opacity="1" /><path clip-path="url(#clip360)" d="M773.534 48.0275 L773.534 51.6733 L739.263 51.6733 Q739.749 59.3701 743.881 63.421 Q748.054 67.4314 755.467 67.4314 Q759.761 67.4314 763.771 66.3781 Q767.822 65.3249 771.792 63.2184 L771.792 70.267 Q767.782 71.9684 763.569 72.8596 Q759.356 73.7508 755.021 73.7508 Q744.165 73.7508 737.805 67.4314 Q731.485 61.1119 731.485 50.3365 Q731.485 39.1965 737.481 32.6746 Q743.517 26.1121 753.725 26.1121 Q762.88 26.1121 768.187 32.0264 Q773.534 37.9003 773.534 48.0275 M766.08 45.84 Q765.999 39.7232 762.637 36.0774 Q759.315 32.4315 753.806 32.4315 Q747.568 32.4315 743.8 35.9558 Q740.073 39.4801 739.506 45.8805 L766.08 45.84 Z" fill="#000000" fill-rule="nonzero" fill-opacity="1" /><path clip-path="url(#clip360)" d="M848.719 14.0809 L848.719 22.0612 Q844.06 19.8332 839.928 18.7395 Q835.796 17.6457 831.948 17.6457 Q825.264 17.6457 821.618 20.2383 Q818.013 22.8309 818.013 27.611 Q818.013 31.6214 820.403 33.6873 Q822.833 35.7128 829.558 36.9686 L834.5 37.9813 Q843.655 39.7232 847.989 44.1387 Q852.364 48.5136 852.364 55.8863 Q852.364 64.6767 846.45 69.2137 Q840.576 73.7508 829.193 73.7508 Q824.899 73.7508 820.038 72.7785 Q815.218 71.8063 810.032 69.9024 L810.032 61.4765 Q815.015 64.2716 819.795 65.6895 Q824.575 67.1073 829.193 67.1073 Q836.201 67.1073 840.009 64.3527 Q843.817 61.598 843.817 56.4939 Q843.817 52.0379 841.062 49.5264 Q838.348 47.0148 832.11 45.759 L827.127 44.7868 Q817.972 42.9639 813.881 39.075 Q809.789 35.1862 809.789 28.2591 Q809.789 20.2383 815.42 15.6203 Q821.091 11.0023 831.016 11.0023 Q835.27 11.0023 839.685 11.7719 Q844.101 12.5416 848.719 14.0809 Z" fill="#000000" fill-rule="nonzero" fill-opacity="1" /><path clip-path="url(#clip360)" d="M900.125 35.9153 Q902.92 30.8922 906.809 28.5022 Q910.697 26.1121 915.964 26.1121 Q923.053 26.1121 926.901 31.0947 Q930.749 36.0368 930.749 45.1919 L930.749 72.576 L923.255 72.576 L923.255 45.4349 Q923.255 38.913 920.946 35.7533 Q918.637 32.5936 913.898 32.5936 Q908.105 32.5936 904.743 36.4419 Q901.38 40.2903 901.38 46.9338 L901.38 72.576 L893.886 72.576 L893.886 45.4349 Q893.886 38.8725 891.577 35.7533 Q889.268 32.5936 884.448 32.5936 Q878.736 32.5936 875.374 36.4824 Q872.011 40.3308 872.011 46.9338 L872.011 72.576 L864.517 72.576 L864.517 27.2059 L872.011 27.2059 L872.011 34.2544 Q874.563 30.082 878.128 28.0971 Q881.693 26.1121 886.595 26.1121 Q891.537 26.1121 894.98 28.6237 Q898.464 31.1352 900.125 35.9153 Z" fill="#000000" fill-rule="nonzero" fill-opacity="1" /><path clip-path="url(#clip360)" d="M963.197 32.4315 Q957.202 32.4315 953.718 37.1306 Q950.234 41.7891 950.234 49.9314 Q950.234 58.0738 953.678 62.7728 Q957.161 67.4314 963.197 67.4314 Q969.152 67.4314 972.636 62.7323 Q976.12 58.0333 976.12 49.9314 Q976.12 41.8701 972.636 37.1711 Q969.152 32.4315 963.197 32.4315 M963.197 26.1121 Q972.919 26.1121 978.469 32.4315 Q984.019 38.7509 984.019 49.9314 Q984.019 61.0714 978.469 67.4314 Q972.919 73.7508 963.197 73.7508 Q953.434 73.7508 947.885 67.4314 Q942.376 61.0714 942.376 49.9314 Q942.376 38.7509 947.885 32.4315 Q953.434 26.1121 963.197 26.1121 Z" fill="#000000" fill-rule="nonzero" fill-opacity="1" /><path clip-path="url(#clip360)" d="M996.374 9.54393 L1003.83 9.54393 L1003.83 72.576 L996.374 72.576 L996.374 9.54393 Z" fill="#000000" fill-rule="nonzero" fill-opacity="1" /><path clip-path="url(#clip360)" d="M1038.3 76.7889 Q1035.14 84.8907 1032.14 87.3618 Q1029.15 89.8329 1024.12 89.8329 L1018.17 89.8329 L1018.17 83.5945 L1022.54 83.5945 Q1025.62 83.5945 1027.32 82.1361 Q1029.02 80.6778 1031.09 75.2496 L1032.43 71.8468 L1014.08 27.2059 L1021.98 27.2059 L1036.15 62.6918 L1050.33 27.2059 L1058.23 27.2059 L1038.3 76.7889 Z" fill="#000000" fill-rule="nonzero" fill-opacity="1" /><path clip-path="url(#clip360)" d="M1089.14 49.7694 Q1080.11 49.7694 1076.62 51.8354 Q1073.14 53.9013 1073.14 58.8839 Q1073.14 62.8538 1075.73 65.2034 Q1078.36 67.5124 1082.86 67.5124 Q1089.06 67.5124 1092.79 63.1374 Q1096.55 58.7219 1096.55 51.4303 L1096.55 49.7694 L1089.14 49.7694 M1104.01 46.6907 L1104.01 72.576 L1096.55 72.576 L1096.55 65.6895 Q1094 69.8214 1090.19 71.8063 Q1086.39 73.7508 1080.88 73.7508 Q1073.91 73.7508 1069.78 69.8619 Q1065.69 65.9325 1065.69 59.3701 Q1065.69 51.7138 1070.79 47.825 Q1075.93 43.9361 1086.1 43.9361 L1096.55 43.9361 L1096.55 43.2069 Q1096.55 38.0623 1093.15 35.2672 Q1089.79 32.4315 1083.67 32.4315 Q1079.78 32.4315 1076.1 33.3632 Q1072.41 34.295 1069.01 36.1584 L1069.01 29.2718 Q1073.1 27.692 1076.95 26.9223 Q1080.79 26.1121 1084.44 26.1121 Q1094.28 26.1121 1099.15 31.2163 Q1104.01 36.3204 1104.01 46.6907 Z" fill="#000000" fill-rule="nonzero" fill-opacity="1" /><path clip-path="url(#clip360)" d="M1119.08 9.54393 L1126.57 9.54393 L1126.57 46.7717 L1148.81 27.2059 L1158.33 27.2059 L1134.27 48.4326 L1159.34 72.576 L1149.62 72.576 L1126.57 50.4176 L1126.57 72.576 L1119.08 72.576 L1119.08 9.54393 Z" fill="#000000" fill-rule="nonzero" fill-opacity="1" /><path clip-path="url(#clip360)" d="M1235.34 63.9476 L1235.34 47.7034 L1221.97 47.7034 L1221.97 40.9789 L1243.44 40.9789 L1243.44 66.9452 Q1238.7 70.3075 1232.99 72.0494 Q1227.28 73.7508 1220.79 73.7508 Q1206.62 73.7508 1198.6 65.4869 Q1190.61 57.1826 1190.61 42.3968 Q1190.61 27.5705 1198.6 19.3066 Q1206.62 11.0023 1220.79 11.0023 Q1226.71 11.0023 1232.02 12.4606 Q1237.36 13.9189 1241.86 16.7545 L1241.86 25.464 Q1237.32 21.6156 1232.22 19.6712 Q1227.11 17.7268 1221.48 17.7268 Q1210.38 17.7268 1204.79 23.9246 Q1199.24 30.1225 1199.24 42.3968 Q1199.24 54.6305 1204.79 60.8284 Q1210.38 67.0263 1221.48 67.0263 Q1225.82 67.0263 1229.22 66.2971 Q1232.62 65.5274 1235.34 63.9476 Z" fill="#000000" fill-rule="nonzero" fill-opacity="1" /><path clip-path="url(#clip360)" d="M1278.68 49.7694 Q1269.65 49.7694 1266.16 51.8354 Q1262.68 53.9013 1262.68 58.8839 Q1262.68 62.8538 1265.27 65.2034 Q1267.91 67.5124 1272.4 67.5124 Q1278.6 67.5124 1282.33 63.1374 Q1286.09 58.7219 1286.09 51.4303 L1286.09 49.7694 L1278.68 49.7694 M1293.55 46.6907 L1293.55 72.576 L1286.09 72.576 L1286.09 65.6895 Q1283.54 69.8214 1279.73 71.8063 Q1275.93 73.7508 1270.42 73.7508 Q1263.45 73.7508 1259.32 69.8619 Q1255.23 65.9325 1255.23 59.3701 Q1255.23 51.7138 1260.33 47.825 Q1265.48 43.9361 1275.64 43.9361 L1286.09 43.9361 L1286.09 43.2069 Q1286.09 38.0623 1282.69 35.2672 Q1279.33 32.4315 1273.21 32.4315 Q1269.32 32.4315 1265.64 33.3632 Q1261.95 34.295 1258.55 36.1584 L1258.55 29.2718 Q1262.64 27.692 1266.49 26.9223 Q1270.34 26.1121 1273.98 26.1121 Q1283.83 26.1121 1288.69 31.2163 Q1293.55 36.3204 1293.55 46.6907 Z" fill="#000000" fill-rule="nonzero" fill-opacity="1" /><path clip-path="url(#clip360)" d="M1308.13 54.671 L1308.13 27.2059 L1315.59 27.2059 L1315.59 54.3874 Q1315.59 60.8284 1318.1 64.0691 Q1320.61 67.2693 1325.63 67.2693 Q1331.67 67.2693 1335.15 63.421 Q1338.68 59.5726 1338.68 52.9291 L1338.68 27.2059 L1346.13 27.2059 L1346.13 72.576 L1338.68 72.576 L1338.68 65.6084 Q1335.96 69.7404 1332.36 71.7658 Q1328.79 73.7508 1324.05 73.7508 Q1316.23 73.7508 1312.18 68.8897 Q1308.13 64.0286 1308.13 54.671 M1326.89 26.1121 L1326.89 26.1121 Z" fill="#000000" fill-rule="nonzero" fill-opacity="1" /><path clip-path="url(#clip360)" d="M1390.41 28.5427 L1390.41 35.5912 Q1387.25 33.9709 1383.84 33.1607 Q1380.44 32.3505 1376.79 32.3505 Q1371.24 32.3505 1368.45 34.0519 Q1365.69 35.7533 1365.69 39.156 Q1365.69 41.7486 1367.68 43.2475 Q1369.66 44.7058 1375.66 46.0426 L1378.21 46.6097 Q1386.15 48.3111 1389.47 51.4303 Q1392.84 54.509 1392.84 60.0587 Q1392.84 66.3781 1387.81 70.0644 Q1382.83 73.7508 1374.08 73.7508 Q1370.43 73.7508 1366.46 73.0216 Q1362.54 72.3329 1358.16 70.9151 L1358.16 63.2184 Q1362.29 65.3654 1366.3 66.4591 Q1370.31 67.5124 1374.24 67.5124 Q1379.51 67.5124 1382.34 65.73 Q1385.18 63.9071 1385.18 60.6258 Q1385.18 57.5877 1383.11 55.9673 Q1381.09 54.3469 1374.16 52.8481 L1371.57 52.2405 Q1364.64 50.7821 1361.56 47.7845 Q1358.48 44.7463 1358.48 39.4801 Q1358.48 33.0797 1363.02 29.5959 Q1367.56 26.1121 1375.9 26.1121 Q1380.04 26.1121 1383.68 26.7198 Q1387.33 27.3274 1390.41 28.5427 Z" fill="#000000" fill-rule="nonzero" fill-opacity="1" /><path clip-path="url(#clip360)" d="M1433.63 28.5427 L1433.63 35.5912 Q1430.47 33.9709 1427.07 33.1607 Q1423.66 32.3505 1420.02 32.3505 Q1414.47 32.3505 1411.67 34.0519 Q1408.92 35.7533 1408.92 39.156 Q1408.92 41.7486 1410.9 43.2475 Q1412.89 44.7058 1418.88 46.0426 L1421.44 46.6097 Q1429.38 48.3111 1432.7 51.4303 Q1436.06 54.509 1436.06 60.0587 Q1436.06 66.3781 1431.04 70.0644 Q1426.05 73.7508 1417.3 73.7508 Q1413.66 73.7508 1409.69 73.0216 Q1405.76 72.3329 1401.38 70.9151 L1401.38 63.2184 Q1405.52 65.3654 1409.53 66.4591 Q1413.54 67.5124 1417.47 67.5124 Q1422.73 67.5124 1425.57 65.73 Q1428.4 63.9071 1428.4 60.6258 Q1428.4 57.5877 1426.34 55.9673 Q1424.31 54.3469 1417.38 52.8481 L1414.79 52.2405 Q1407.86 50.7821 1404.79 47.7845 Q1401.71 44.7463 1401.71 39.4801 Q1401.71 33.0797 1406.24 29.5959 Q1410.78 26.1121 1419.13 26.1121 Q1423.26 26.1121 1426.9 26.7198 Q1430.55 27.3274 1433.63 28.5427 Z" fill="#000000" fill-rule="nonzero" fill-opacity="1" /><path clip-path="url(#clip360)" d="M1448.25 12.096 L1456.44 12.096 L1456.44 36.8875 L1486.17 36.8875 L1486.17 12.096 L1494.35 12.096 L1494.35 72.576 L1486.17 72.576 L1486.17 43.7741 L1456.44 43.7741 L1456.44 72.576 L1448.25 72.576 L1448.25 12.096 Z" fill="#000000" fill-rule="nonzero" fill-opacity="1" /><path clip-path="url(#clip360)" d="M1549.12 48.0275 L1549.12 51.6733 L1514.85 51.6733 Q1515.34 59.3701 1519.47 63.421 Q1523.64 67.4314 1531.05 67.4314 Q1535.35 67.4314 1539.36 66.3781 Q1543.41 65.3249 1547.38 63.2184 L1547.38 70.267 Q1543.37 71.9684 1539.15 72.8596 Q1534.94 73.7508 1530.61 73.7508 Q1519.75 73.7508 1513.39 67.4314 Q1507.07 61.1119 1507.07 50.3365 Q1507.07 39.1965 1513.07 32.6746 Q1519.1 26.1121 1529.31 26.1121 Q1538.47 26.1121 1543.77 32.0264 Q1549.12 37.9003 1549.12 48.0275 M1541.67 45.84 Q1541.59 39.7232 1538.22 36.0774 Q1534.9 32.4315 1529.39 32.4315 Q1523.15 32.4315 1519.39 35.9558 Q1515.66 39.4801 1515.09 45.8805 L1541.67 45.84 Z" fill="#000000" fill-rule="nonzero" fill-opacity="1" /><path clip-path="url(#clip360)" d="M1587.64 34.1734 Q1586.39 33.4443 1584.89 33.1202 Q1583.43 32.7556 1581.65 32.7556 Q1575.33 32.7556 1571.93 36.8875 Q1568.56 40.9789 1568.56 48.6757 L1568.56 72.576 L1561.07 72.576 L1561.07 27.2059 L1568.56 27.2059 L1568.56 34.2544 Q1570.91 30.1225 1574.68 28.1376 Q1578.45 26.1121 1583.84 26.1121 Q1584.61 26.1121 1585.54 26.2337 Q1586.47 26.3147 1587.6 26.5172 L1587.64 34.1734 Z" fill="#000000" fill-rule="nonzero" fill-opacity="1" /><path clip-path="url(#clip360)" d="M1629.33 35.9153 Q1632.12 30.8922 1636.01 28.5022 Q1639.9 26.1121 1645.17 26.1121 Q1652.26 26.1121 1656.1 31.0947 Q1659.95 36.0368 1659.95 45.1919 L1659.95 72.576 L1652.46 72.576 L1652.46 45.4349 Q1652.46 38.913 1650.15 35.7533 Q1647.84 32.5936 1643.1 32.5936 Q1637.31 32.5936 1633.95 36.4419 Q1630.58 40.2903 1630.58 46.9338 L1630.58 72.576 L1623.09 72.576 L1623.09 45.4349 Q1623.09 38.8725 1620.78 35.7533 Q1618.47 32.5936 1613.65 32.5936 Q1607.94 32.5936 1604.58 36.4824 Q1601.21 40.3308 1601.21 46.9338 L1601.21 72.576 L1593.72 72.576 L1593.72 27.2059 L1601.21 27.2059 L1601.21 34.2544 Q1603.77 30.082 1607.33 28.0971 Q1610.9 26.1121 1615.8 26.1121 Q1620.74 26.1121 1624.18 28.6237 Q1627.67 31.1352 1629.33 35.9153 Z" fill="#000000" fill-rule="nonzero" fill-opacity="1" /><path clip-path="url(#clip360)" d="M1674.82 27.2059 L1682.27 27.2059 L1682.27 72.576 L1674.82 72.576 L1674.82 27.2059 M1674.82 9.54393 L1682.27 9.54393 L1682.27 18.9825 L1674.82 18.9825 L1674.82 9.54393 Z" fill="#000000" fill-rule="nonzero" fill-opacity="1" /><path clip-path="url(#clip360)" d="M1705.24 14.324 L1705.24 27.2059 L1720.59 27.2059 L1720.59 32.9987 L1705.24 32.9987 L1705.24 57.6282 Q1705.24 63.1779 1706.74 64.7578 Q1708.28 66.3376 1712.94 66.3376 L1720.59 66.3376 L1720.59 72.576 L1712.94 72.576 Q1704.31 72.576 1701.03 69.3758 Q1697.75 66.1351 1697.75 57.6282 L1697.75 32.9987 L1692.28 32.9987 L1692.28 27.2059 L1697.75 27.2059 L1697.75 14.324 L1705.24 14.324 Z" fill="#000000" fill-rule="nonzero" fill-opacity="1" /><path clip-path="url(#clip360)" d="M1769.21 48.0275 L1769.21 51.6733 L1734.93 51.6733 Q1735.42 59.3701 1739.55 63.421 Q1743.73 67.4314 1751.14 67.4314 Q1755.43 67.4314 1759.44 66.3781 Q1763.49 65.3249 1767.46 63.2184 L1767.46 70.267 Q1763.45 71.9684 1759.24 72.8596 Q1755.03 73.7508 1750.69 73.7508 Q1739.84 73.7508 1733.48 67.4314 Q1727.16 61.1119 1727.16 50.3365 Q1727.16 39.1965 1733.15 32.6746 Q1739.19 26.1121 1749.4 26.1121 Q1758.55 26.1121 1763.86 32.0264 Q1769.21 37.9003 1769.21 48.0275 M1761.75 45.84 Q1761.67 39.7232 1758.31 36.0774 Q1754.99 32.4315 1749.48 32.4315 Q1743.24 32.4315 1739.47 35.9558 Q1735.75 39.4801 1735.18 45.8805 L1761.75 45.84 Z" fill="#000000" fill-rule="nonzero" fill-opacity="1" /><path clip-path="url(#clip360)" d="M1781.76 12.096 L1789.95 12.096 L1789.95 37.6572 L1817.09 12.096 L1827.62 12.096 L1797.6 40.2903 L1829.77 72.576 L1818.99 72.576 L1789.95 43.45 L1789.95 72.576 L1781.76 72.576 L1781.76 12.096 Z" fill="#000000" fill-rule="nonzero" fill-opacity="1" /><path clip-path="url(#clip360)" d="M1873.56 45.1919 L1873.56 72.576 L1866.1 72.576 L1866.1 45.4349 Q1866.1 38.994 1863.59 35.7938 Q1861.08 32.5936 1856.06 32.5936 Q1850.02 32.5936 1846.54 36.4419 Q1843.05 40.2903 1843.05 46.9338 L1843.05 72.576 L1835.56 72.576 L1835.56 27.2059 L1843.05 27.2059 L1843.05 34.2544 Q1845.73 30.163 1849.33 28.1376 Q1852.98 26.1121 1857.72 26.1121 Q1865.54 26.1121 1869.55 30.9732 Q1873.56 35.7938 1873.56 45.1919 Z" fill="#000000" fill-rule="nonzero" fill-opacity="1" /><path clip-path="url(#clip360)" d="M1906 32.4315 Q1900.01 32.4315 1896.53 37.1306 Q1893.04 41.7891 1893.04 49.9314 Q1893.04 58.0738 1896.48 62.7728 Q1899.97 67.4314 1906 67.4314 Q1911.96 67.4314 1915.44 62.7323 Q1918.93 58.0333 1918.93 49.9314 Q1918.93 41.8701 1915.44 37.1711 Q1911.96 32.4315 1906 32.4315 M1906 26.1121 Q1915.73 26.1121 1921.28 32.4315 Q1926.83 38.7509 1926.83 49.9314 Q1926.83 61.0714 1921.28 67.4314 Q1915.73 73.7508 1906 73.7508 Q1896.24 73.7508 1890.69 67.4314 Q1885.18 61.0714 1885.18 49.9314 Q1885.18 38.7509 1890.69 32.4315 Q1896.24 26.1121 1906 26.1121 Z" fill="#000000" fill-rule="nonzero" fill-opacity="1" /><path clip-path="url(#clip360)" d="M1946.55 14.324 L1946.55 27.2059 L1961.91 27.2059 L1961.91 32.9987 L1946.55 32.9987 L1946.55 57.6282 Q1946.55 63.1779 1948.05 64.7578 Q1949.59 66.3376 1954.25 66.3376 L1961.91 66.3376 L1961.91 72.576 L1954.25 72.576 Q1945.62 72.576 1942.34 69.3758 Q1939.06 66.1351 1939.06 57.6282 L1939.06 32.9987 L1933.59 32.9987 L1933.59 27.2059 L1939.06 27.2059 L1939.06 14.324 L1946.55 14.324 Z" fill="#000000" fill-rule="nonzero" fill-opacity="1" /><path clip-path="url(#clip360)" d="M2000.63 28.5427 L2000.63 35.5912 Q1997.47 33.9709 1994.07 33.1607 Q1990.67 32.3505 1987.02 32.3505 Q1981.47 32.3505 1978.68 34.0519 Q1975.92 35.7533 1975.92 39.156 Q1975.92 41.7486 1977.91 43.2475 Q1979.89 44.7058 1985.89 46.0426 L1988.44 46.6097 Q1996.38 48.3111 1999.7 51.4303 Q2003.06 54.509 2003.06 60.0587 Q2003.06 66.3781 1998.04 70.0644 Q1993.06 73.7508 1984.31 73.7508 Q1980.66 73.7508 1976.69 73.0216 Q1972.76 72.3329 1968.39 70.9151 L1968.39 63.2184 Q1972.52 65.3654 1976.53 66.4591 Q1980.54 67.5124 1984.47 67.5124 Q1989.74 67.5124 1992.57 65.73 Q1995.41 63.9071 1995.41 60.6258 Q1995.41 57.5877 1993.34 55.9673 Q1991.32 54.3469 1984.39 52.8481 L1981.8 52.2405 Q1974.87 50.7821 1971.79 47.7845 Q1968.71 44.7463 1968.71 39.4801 Q1968.71 33.0797 1973.25 29.5959 Q1977.79 26.1121 1986.13 26.1121 Q1990.26 26.1121 1993.91 26.7198 Q1997.56 27.3274 2000.63 28.5427 Z" fill="#000000" fill-rule="nonzero" fill-opacity="1" /><circle clip-path="url(#clip362)" cx="1250.97" cy="1211.98" r="21.6" fill="#009af9" fill-rule="evenodd" fill-opacity="1" stroke="#000000" stroke-opacity="1" stroke-width="3.2"/>
<circle clip-path="url(#clip362)" cx="1250.97" cy="998.091" r="21.6" fill="#009af9" fill-rule="evenodd" fill-opacity="1" stroke="#000000" stroke-opacity="1" stroke-width="3.2"/>
<circle clip-path="url(#clip362)" cx="1250.97" cy="804.96" r="21.6" fill="#009af9" fill-rule="evenodd" fill-opacity="1" stroke="#000000" stroke-opacity="1" stroke-width="3.2"/>
<circle clip-path="url(#clip362)" cx="1250.97" cy="611.829" r="21.6" fill="#009af9" fill-rule="evenodd" fill-opacity="1" stroke="#000000" stroke-opacity="1" stroke-width="3.2"/>
<circle clip-path="url(#clip362)" cx="1250.97" cy="397.939" r="21.6" fill="#009af9" fill-rule="evenodd" fill-opacity="1" stroke="#000000" stroke-opacity="1" stroke-width="3.2"/>
<circle clip-path="url(#clip362)" cx="1004.21" cy="1051.72" r="21.6" fill="#009af9" fill-rule="evenodd" fill-opacity="1" stroke="#000000" stroke-opacity="1" stroke-width="3.2"/>
<circle clip-path="url(#clip362)" cx="1250.97" cy="1051.72" r="21.6" fill="#009af9" fill-rule="evenodd" fill-opacity="1" stroke="#000000" stroke-opacity="1" stroke-width="3.2"/>
<circle clip-path="url(#clip362)" cx="1497.73" cy="1051.72" r="21.6" fill="#009af9" fill-rule="evenodd" fill-opacity="1" stroke="#000000" stroke-opacity="1" stroke-width="3.2"/>
<circle clip-path="url(#clip362)" cx="1004.21" cy="804.96" r="21.6" fill="#009af9" fill-rule="evenodd" fill-opacity="1" stroke="#000000" stroke-opacity="1" stroke-width="3.2"/>
<circle clip-path="url(#clip362)" cx="1497.73" cy="804.96" r="21.6" fill="#009af9" fill-rule="evenodd" fill-opacity="1" stroke="#000000" stroke-opacity="1" stroke-width="3.2"/>
<circle clip-path="url(#clip362)" cx="1004.21" cy="558.202" r="21.6" fill="#009af9" fill-rule="evenodd" fill-opacity="1" stroke="#000000" stroke-opacity="1" stroke-width="3.2"/>
<circle clip-path="url(#clip362)" cx="1250.97" cy="558.202" r="21.6" fill="#009af9" fill-rule="evenodd" fill-opacity="1" stroke="#000000" stroke-opacity="1" stroke-width="3.2"/>
<circle clip-path="url(#clip362)" cx="1497.73" cy="558.202" r="21.6" fill="#009af9" fill-rule="evenodd" fill-opacity="1" stroke="#000000" stroke-opacity="1" stroke-width="3.2"/>
<circle clip-path="url(#clip362)" cx="843.952" cy="804.96" r="21.6" fill="#009af9" fill-rule="evenodd" fill-opacity="1" stroke="#000000" stroke-opacity="1" stroke-width="3.2"/>
<circle clip-path="url(#clip362)" cx="1057.84" cy="804.96" r="21.6" fill="#009af9" fill-rule="evenodd" fill-opacity="1" stroke="#000000" stroke-opacity="1" stroke-width="3.2"/>
<circle clip-path="url(#clip362)" cx="1444.1" cy="804.96" r="21.6" fill="#009af9" fill-rule="evenodd" fill-opacity="1" stroke="#000000" stroke-opacity="1" stroke-width="3.2"/>
<circle clip-path="url(#clip362)" cx="1657.99" cy="804.96" r="21.6" fill="#009af9" fill-rule="evenodd" fill-opacity="1" stroke="#000000" stroke-opacity="1" stroke-width="3.2"/>
<circle clip-path="url(#clip362)" cx="1250.97" cy="1447.87" r="21.6" fill="#009af9" fill-rule="evenodd" fill-opacity="1" stroke="#000000" stroke-opacity="1" stroke-width="3.2"/>
<circle clip-path="url(#clip362)" cx="1250.97" cy="1261.62" r="21.6" fill="#009af9" fill-rule="evenodd" fill-opacity="1" stroke="#000000" stroke-opacity="1" stroke-width="3.2"/>
<circle clip-path="url(#clip362)" cx="1250.97" cy="1100.84" r="21.6" fill="#009af9" fill-rule="evenodd" fill-opacity="1" stroke="#000000" stroke-opacity="1" stroke-width="3.2"/>
<circle clip-path="url(#clip362)" cx="1250.97" cy="950.739" r="21.6" fill="#009af9" fill-rule="evenodd" fill-opacity="1" stroke="#000000" stroke-opacity="1" stroke-width="3.2"/>
<circle clip-path="url(#clip362)" cx="1250.97" cy="659.181" r="21.6" fill="#009af9" fill-rule="evenodd" fill-opacity="1" stroke="#000000" stroke-opacity="1" stroke-width="3.2"/>
<circle clip-path="url(#clip362)" cx="1250.97" cy="509.08" r="21.6" fill="#009af9" fill-rule="evenodd" fill-opacity="1" stroke="#000000" stroke-opacity="1" stroke-width="3.2"/>
<circle clip-path="url(#clip362)" cx="1250.97" cy="348.295" r="21.6" fill="#009af9" fill-rule="evenodd" fill-opacity="1" stroke="#000000" stroke-opacity="1" stroke-width="3.2"/>
<circle clip-path="url(#clip362)" cx="1250.97" cy="162.047" r="21.6" fill="#009af9" fill-rule="evenodd" fill-opacity="1" stroke="#000000" stroke-opacity="1" stroke-width="3.2"/>
<circle clip-path="url(#clip362)" cx="1004.21" cy="1211.98" r="21.6" fill="#009af9" fill-rule="evenodd" fill-opacity="1" stroke="#000000" stroke-opacity="1" stroke-width="3.2"/>
<circle clip-path="url(#clip362)" cx="1497.73" cy="1211.98" r="21.6" fill="#009af9" fill-rule="evenodd" fill-opacity="1" stroke="#000000" stroke-opacity="1" stroke-width="3.2"/>
<circle clip-path="url(#clip362)" cx="1004.21" cy="998.091" r="21.6" fill="#009af9" fill-rule="evenodd" fill-opacity="1" stroke="#000000" stroke-opacity="1" stroke-width="3.2"/>
<circle clip-path="url(#clip362)" cx="1497.73" cy="998.091" r="21.6" fill="#009af9" fill-rule="evenodd" fill-opacity="1" stroke="#000000" stroke-opacity="1" stroke-width="3.2"/>
<circle clip-path="url(#clip362)" cx="1004.21" cy="611.829" r="21.6" fill="#009af9" fill-rule="evenodd" fill-opacity="1" stroke="#000000" stroke-opacity="1" stroke-width="3.2"/>
<circle clip-path="url(#clip362)" cx="1497.73" cy="611.829" r="21.6" fill="#009af9" fill-rule="evenodd" fill-opacity="1" stroke="#000000" stroke-opacity="1" stroke-width="3.2"/>
<circle clip-path="url(#clip362)" cx="1004.21" cy="397.939" r="21.6" fill="#009af9" fill-rule="evenodd" fill-opacity="1" stroke="#000000" stroke-opacity="1" stroke-width="3.2"/>
<circle clip-path="url(#clip362)" cx="1497.73" cy="397.939" r="21.6" fill="#009af9" fill-rule="evenodd" fill-opacity="1" stroke="#000000" stroke-opacity="1" stroke-width="3.2"/>
<circle clip-path="url(#clip362)" cx="843.952" cy="1051.72" r="21.6" fill="#009af9" fill-rule="evenodd" fill-opacity="1" stroke="#000000" stroke-opacity="1" stroke-width="3.2"/>
<circle clip-path="url(#clip362)" cx="1057.84" cy="1051.72" r="21.6" fill="#009af9" fill-rule="evenodd" fill-opacity="1" stroke="#000000" stroke-opacity="1" stroke-width="3.2"/>
<circle clip-path="url(#clip362)" cx="1444.1" cy="1051.72" r="21.6" fill="#009af9" fill-rule="evenodd" fill-opacity="1" stroke="#000000" stroke-opacity="1" stroke-width="3.2"/>
<circle clip-path="url(#clip362)" cx="1657.99" cy="1051.72" r="21.6" fill="#009af9" fill-rule="evenodd" fill-opacity="1" stroke="#000000" stroke-opacity="1" stroke-width="3.2"/>
<circle clip-path="url(#clip362)" cx="843.952" cy="558.202" r="21.6" fill="#009af9" fill-rule="evenodd" fill-opacity="1" stroke="#000000" stroke-opacity="1" stroke-width="3.2"/>
<circle clip-path="url(#clip362)" cx="1057.84" cy="558.202" r="21.6" fill="#009af9" fill-rule="evenodd" fill-opacity="1" stroke="#000000" stroke-opacity="1" stroke-width="3.2"/>
<circle clip-path="url(#clip362)" cx="1444.1" cy="558.202" r="21.6" fill="#009af9" fill-rule="evenodd" fill-opacity="1" stroke="#000000" stroke-opacity="1" stroke-width="3.2"/>
<circle clip-path="url(#clip362)" cx="1657.99" cy="558.202" r="21.6" fill="#009af9" fill-rule="evenodd" fill-opacity="1" stroke="#000000" stroke-opacity="1" stroke-width="3.2"/>
<circle clip-path="url(#clip362)" cx="608.06" cy="804.96" r="21.6" fill="#009af9" fill-rule="evenodd" fill-opacity="1" stroke="#000000" stroke-opacity="1" stroke-width="3.2"/>
<circle clip-path="url(#clip362)" cx="794.309" cy="804.96" r="21.6" fill="#009af9" fill-rule="evenodd" fill-opacity="1" stroke="#000000" stroke-opacity="1" stroke-width="3.2"/>
<circle clip-path="url(#clip362)" cx="955.093" cy="804.96" r="21.6" fill="#009af9" fill-rule="evenodd" fill-opacity="1" stroke="#000000" stroke-opacity="1" stroke-width="3.2"/>
<circle clip-path="url(#clip362)" cx="1105.19" cy="804.96" r="21.6" fill="#009af9" fill-rule="evenodd" fill-opacity="1" stroke="#000000" stroke-opacity="1" stroke-width="3.2"/>
<circle clip-path="url(#clip362)" cx="1396.75" cy="804.96" r="21.6" fill="#009af9" fill-rule="evenodd" fill-opacity="1" stroke="#000000" stroke-opacity="1" stroke-width="3.2"/>
<circle clip-path="url(#clip362)" cx="1546.85" cy="804.96" r="21.6" fill="#009af9" fill-rule="evenodd" fill-opacity="1" stroke="#000000" stroke-opacity="1" stroke-width="3.2"/>
<circle clip-path="url(#clip362)" cx="1707.64" cy="804.96" r="21.6" fill="#009af9" fill-rule="evenodd" fill-opacity="1" stroke="#000000" stroke-opacity="1" stroke-width="3.2"/>
<circle clip-path="url(#clip362)" cx="1893.89" cy="804.96" r="21.6" fill="#009af9" fill-rule="evenodd" fill-opacity="1" stroke="#000000" stroke-opacity="1" stroke-width="3.2"/>
<path clip-path="url(#clip360)" d="M1859.2 272.585 L2279.3 272.585 L2279.3 168.905 L1859.2 168.905  Z" fill="#ffffff" fill-rule="evenodd" fill-opacity="1"/>
<polyline clip-path="url(#clip360)" style="stroke:#000000; stroke-linecap:round; stroke-linejoin:round; stroke-width:4; stroke-opacity:1; fill:none" points="1859.2,272.585 2279.3,272.585 2279.3,168.905 1859.2,168.905 1859.2,272.585 "/>
<circle clip-path="url(#clip360)" cx="1957.14" cy="220.745" r="21.2677" fill="#009af9" fill-rule="evenodd" fill-opacity="1" stroke="#000000" stroke-opacity="1" stroke-width="3.15077"/>
<path clip-path="url(#clip360)" d="M2077.32 204.599 L2077.32 209.159 Q2074.66 207.886 2072.3 207.261 Q2069.94 206.636 2067.74 206.636 Q2063.92 206.636 2061.83 208.117 Q2059.77 209.599 2059.77 212.33 Q2059.77 214.622 2061.14 215.803 Q2062.53 216.96 2066.37 217.678 L2069.2 218.256 Q2074.43 219.252 2076.9 221.775 Q2079.4 224.275 2079.4 228.488 Q2079.4 233.511 2076.02 236.103 Q2072.67 238.696 2066.16 238.696 Q2063.71 238.696 2060.93 238.14 Q2058.18 237.585 2055.21 236.497 L2055.21 231.682 Q2058.06 233.279 2060.79 234.089 Q2063.52 234.9 2066.16 234.9 Q2070.17 234.9 2072.34 233.326 Q2074.52 231.752 2074.52 228.835 Q2074.52 226.289 2072.95 224.853 Q2071.39 223.418 2067.83 222.701 L2064.98 222.145 Q2059.75 221.103 2057.41 218.881 Q2055.08 216.659 2055.08 212.701 Q2055.08 208.117 2058.29 205.479 Q2061.53 202.84 2067.2 202.84 Q2069.64 202.84 2072.16 203.279 Q2074.68 203.719 2077.32 204.599 Z" fill="#000000" fill-rule="nonzero" fill-opacity="1" /><path clip-path="url(#clip360)" d="M2106.7 217.076 Q2108.29 214.205 2110.51 212.84 Q2112.74 211.474 2115.75 211.474 Q2119.8 211.474 2122 214.321 Q2124.2 217.145 2124.2 222.377 L2124.2 238.025 L2119.91 238.025 L2119.91 222.515 Q2119.91 218.789 2118.59 216.983 Q2117.27 215.178 2114.57 215.178 Q2111.26 215.178 2109.33 217.377 Q2107.41 219.576 2107.41 223.372 L2107.41 238.025 L2103.13 238.025 L2103.13 222.515 Q2103.13 218.765 2101.81 216.983 Q2100.49 215.178 2097.74 215.178 Q2094.47 215.178 2092.55 217.4 Q2090.63 219.599 2090.63 223.372 L2090.63 238.025 L2086.35 238.025 L2086.35 212.099 L2090.63 212.099 L2090.63 216.127 Q2092.09 213.742 2094.13 212.608 Q2096.16 211.474 2098.96 211.474 Q2101.79 211.474 2103.76 212.909 Q2105.75 214.344 2106.7 217.076 Z" fill="#000000" fill-rule="nonzero" fill-opacity="1" /><path clip-path="url(#clip360)" d="M2142.74 215.085 Q2139.31 215.085 2137.32 217.77 Q2135.33 220.432 2135.33 225.085 Q2135.33 229.738 2137.3 232.423 Q2139.29 235.085 2142.74 235.085 Q2146.14 235.085 2148.13 232.4 Q2150.12 229.715 2150.12 225.085 Q2150.12 220.478 2148.13 217.793 Q2146.14 215.085 2142.74 215.085 M2142.74 211.474 Q2148.29 211.474 2151.46 215.085 Q2154.64 218.696 2154.64 225.085 Q2154.64 231.451 2151.46 235.085 Q2148.29 238.696 2142.74 238.696 Q2137.16 238.696 2133.99 235.085 Q2130.84 231.451 2130.84 225.085 Q2130.84 218.696 2133.99 215.085 Q2137.16 211.474 2142.74 211.474 Z" fill="#000000" fill-rule="nonzero" fill-opacity="1" /><path clip-path="url(#clip360)" d="M2161.7 202.006 L2165.95 202.006 L2165.95 238.025 L2161.7 238.025 L2161.7 202.006 Z" fill="#000000" fill-rule="nonzero" fill-opacity="1" /><path clip-path="url(#clip360)" d="M2185.65 240.432 Q2183.85 245.062 2182.13 246.474 Q2180.42 247.886 2177.55 247.886 L2174.15 247.886 L2174.15 244.321 L2176.65 244.321 Q2178.41 244.321 2179.38 243.488 Q2180.35 242.654 2181.53 239.552 L2182.3 237.608 L2171.81 212.099 L2176.32 212.099 L2184.43 232.377 L2192.53 212.099 L2197.04 212.099 L2185.65 240.432 Z" fill="#000000" fill-rule="nonzero" fill-opacity="1" /><path clip-path="url(#clip360)" d="M2214.7 224.992 Q2209.54 224.992 2207.55 226.173 Q2205.56 227.353 2205.56 230.201 Q2205.56 232.469 2207.04 233.812 Q2208.55 235.131 2211.12 235.131 Q2214.66 235.131 2216.79 232.631 Q2218.94 230.108 2218.94 225.941 L2218.94 224.992 L2214.7 224.992 M2223.2 223.233 L2223.2 238.025 L2218.94 238.025 L2218.94 234.089 Q2217.48 236.451 2215.31 237.585 Q2213.13 238.696 2209.98 238.696 Q2206 238.696 2203.64 236.474 Q2201.3 234.228 2201.3 230.478 Q2201.3 226.103 2204.22 223.881 Q2207.16 221.659 2212.97 221.659 L2218.94 221.659 L2218.94 221.242 Q2218.94 218.303 2217 216.705 Q2215.07 215.085 2211.58 215.085 Q2209.36 215.085 2207.25 215.617 Q2205.14 216.15 2203.2 217.215 L2203.2 213.279 Q2205.54 212.377 2207.74 211.937 Q2209.94 211.474 2212.02 211.474 Q2217.64 211.474 2220.42 214.391 Q2223.2 217.307 2223.2 223.233 Z" fill="#000000" fill-rule="nonzero" fill-opacity="1" /><path clip-path="url(#clip360)" d="M2231.81 202.006 L2236.09 202.006 L2236.09 223.279 L2248.8 212.099 L2254.24 212.099 L2240.49 224.228 L2254.82 238.025 L2249.26 238.025 L2236.09 225.363 L2236.09 238.025 L2231.81 238.025 L2231.81 202.006 Z" fill="#000000" fill-rule="nonzero" fill-opacity="1" /></svg>
