<?xml version="1.0" encoding="utf-8"?>
<svg xmlns="http://www.w3.org/2000/svg" xmlns:xlink="http://www.w3.org/1999/xlink" width="600" height="400" viewBox="0 0 2400 1600">
<defs>
  <clipPath id="clip210">
    <rect x="0" y="0" width="2400" height="1600"/>
  </clipPath>
</defs>
<path clip-path="url(#clip210)" d="M0 1600 L2400 1600 L2400 0 L0 0  Z" fill="#ffffff" fill-rule="evenodd" fill-opacity="1"/>
<defs>
  <clipPath id="clip211">
    <rect x="219" y="123" width="2134" height="1301"/>
  </clipPath>
</defs>
<path clip-path="url(#clip210)" d="M219.866 1423.18 L2352.76 1423.18 L2352.76 47.2441 L219.866 47.2441  Z" fill="#ffffff" fill-rule="evenodd" fill-opacity="1"/>
<defs>
  <clipPath id="clip212">
    <rect x="219" y="47" width="2134" height="1377"/>
  </clipPath>
</defs>
<polyline clip-path="url(#clip212)" style="stroke:#000000; stroke-linecap:round; stroke-linejoin:round; stroke-width:2; stroke-opacity:0.1; fill:none" points="629.22,1423.18 629.22,47.2441 "/>
<polyline clip-path="url(#clip212)" style="stroke:#000000; stroke-linecap:round; stroke-linejoin:round; stroke-width:2; stroke-opacity:0.1; fill:none" points="1115.95,1423.18 1115.95,47.2441 "/>
<polyline clip-path="url(#clip212)" style="stroke:#000000; stroke-linecap:round; stroke-linejoin:round; stroke-width:2; stroke-opacity:0.1; fill:none" points="1602.69,1423.18 1602.69,47.2441 "/>
<polyline clip-path="url(#clip212)" style="stroke:#000000; stroke-linecap:round; stroke-linejoin:round; stroke-width:2; stroke-opacity:0.1; fill:none" points="2089.42,1423.18 2089.42,47.2441 "/>
<polyline clip-path="url(#clip212)" style="stroke:#000000; stroke-linecap:round; stroke-linejoin:round; stroke-width:2; stroke-opacity:0.1; fill:none" points="219.866,1423.18 2352.76,1423.18 "/>
<polyline clip-path="url(#clip212)" style="stroke:#000000; stroke-linecap:round; stroke-linejoin:round; stroke-width:2; stroke-opacity:0.1; fill:none" points="219.866,1096.35 2352.76,1096.35 "/>
<polyline clip-path="url(#clip212)" style="stroke:#000000; stroke-linecap:round; stroke-linejoin:round; stroke-width:2; stroke-opacity:0.1; fill:none" points="219.866,769.529 2352.76,769.529 "/>
<polyline clip-path="url(#clip212)" style="stroke:#000000; stroke-linecap:round; stroke-linejoin:round; stroke-width:2; stroke-opacity:0.1; fill:none" points="219.866,442.703 2352.76,442.703 "/>
<polyline clip-path="url(#clip212)" style="stroke:#000000; stroke-linecap:round; stroke-linejoin:round; stroke-width:2; stroke-opacity:0.1; fill:none" points="219.866,115.877 2352.76,115.877 "/>
<polyline clip-path="url(#clip210)" style="stroke:#000000; stroke-linecap:round; stroke-linejoin:round; stroke-width:4; stroke-opacity:1; fill:none" points="219.866,1423.18 2352.76,1423.18 "/>
<polyline clip-path="url(#clip210)" style="stroke:#000000; stroke-linecap:round; stroke-linejoin:round; stroke-width:4; stroke-opacity:1; fill:none" points="629.22,1423.18 629.22,1404.28 "/>
<polyline clip-path="url(#clip210)" style="stroke:#000000; stroke-linecap:round; stroke-linejoin:round; stroke-width:4; stroke-opacity:1; fill:none" points="1115.95,1423.18 1115.95,1404.28 "/>
<polyline clip-path="url(#clip210)" style="stroke:#000000; stroke-linecap:round; stroke-linejoin:round; stroke-width:4; stroke-opacity:1; fill:none" points="1602.69,1423.18 1602.69,1404.28 "/>
<polyline clip-path="url(#clip210)" style="stroke:#000000; stroke-linecap:round; stroke-linejoin:round; stroke-width:4; stroke-opacity:1; fill:none" points="2089.42,1423.18 2089.42,1404.28 "/>
<path clip-path="url(#clip210)" d="M599.162 1468.75 L628.838 1468.75 L628.838 1472.69 L599.162 1472.69 L599.162 1468.75 Z" fill="#000000" fill-rule="nonzero" fill-opacity="1" /><path clip-path="url(#clip210)" d="M642.958 1481.64 L659.277 1481.64 L659.277 1485.58 L637.333 1485.58 L637.333 1481.64 Q639.995 1478.89 644.578 1474.26 Q649.185 1469.61 650.365 1468.27 Q652.611 1465.74 653.49 1464.01 Q654.393 1462.25 654.393 1460.56 Q654.393 1457.8 652.449 1456.07 Q650.527 1454.33 647.426 1454.33 Q645.226 1454.33 642.773 1455.09 Q640.342 1455.86 637.564 1457.41 L637.564 1452.69 Q640.389 1451.55 642.842 1450.97 Q645.296 1450.39 647.333 1450.39 Q652.703 1450.39 655.898 1453.08 Q659.092 1455.77 659.092 1460.26 Q659.092 1462.39 658.282 1464.31 Q657.495 1466.2 655.388 1468.8 Q654.81 1469.47 651.708 1472.69 Q648.606 1475.88 642.958 1481.64 Z" fill="#000000" fill-rule="nonzero" fill-opacity="1" /><path clip-path="url(#clip210)" d="M1115.95 1454.1 Q1112.34 1454.1 1110.51 1457.66 Q1108.71 1461.2 1108.71 1468.33 Q1108.71 1475.44 1110.51 1479.01 Q1112.34 1482.55 1115.95 1482.55 Q1119.59 1482.55 1121.39 1479.01 Q1123.22 1475.44 1123.22 1468.33 Q1123.22 1461.2 1121.39 1457.66 Q1119.59 1454.1 1115.95 1454.1 M1115.95 1450.39 Q1121.76 1450.39 1124.82 1455 Q1127.9 1459.58 1127.9 1468.33 Q1127.9 1477.06 1124.82 1481.67 Q1121.76 1486.25 1115.95 1486.25 Q1110.14 1486.25 1107.07 1481.67 Q1104.01 1477.06 1104.01 1468.33 Q1104.01 1459.58 1107.07 1455 Q1110.14 1450.39 1115.95 1450.39 Z" fill="#000000" fill-rule="nonzero" fill-opacity="1" /><path clip-path="url(#clip210)" d="M1597.34 1481.64 L1613.66 1481.64 L1613.66 1485.58 L1591.72 1485.58 L1591.72 1481.64 Q1594.38 1478.89 1598.96 1474.26 Q1603.57 1469.61 1604.75 1468.27 Q1606.99 1465.74 1607.87 1464.01 Q1608.78 1462.25 1608.78 1460.56 Q1608.78 1457.8 1606.83 1456.07 Q1604.91 1454.33 1601.81 1454.33 Q1599.61 1454.33 1597.16 1455.09 Q1594.73 1455.86 1591.95 1457.41 L1591.95 1452.69 Q1594.77 1451.55 1597.23 1450.97 Q1599.68 1450.39 1601.72 1450.39 Q1607.09 1450.39 1610.28 1453.08 Q1613.48 1455.77 1613.48 1460.26 Q1613.48 1462.39 1612.67 1464.31 Q1611.88 1466.2 1609.77 1468.8 Q1609.19 1469.47 1606.09 1472.69 Q1602.99 1475.88 1597.34 1481.64 Z" fill="#000000" fill-rule="nonzero" fill-opacity="1" /><path clip-path="url(#clip210)" d="M2092.43 1455.09 L2080.63 1473.54 L2092.43 1473.54 L2092.43 1455.09 M2091.21 1451.02 L2097.08 1451.02 L2097.08 1473.54 L2102.02 1473.54 L2102.02 1477.43 L2097.08 1477.43 L2097.08 1485.58 L2092.43 1485.58 L2092.43 1477.43 L2076.83 1477.43 L2076.83 1472.92 L2091.21 1451.02 Z" fill="#000000" fill-rule="nonzero" fill-opacity="1" /><path clip-path="url(#clip210)" d="M1290.85 1532.4 L1277.96 1549.74 L1291.52 1568.04 L1284.61 1568.04 L1274.23 1554.04 L1263.86 1568.04 L1256.95 1568.04 L1270.79 1549.39 L1258.13 1532.4 L1265.03 1532.4 L1274.49 1545.1 L1283.94 1532.4 L1290.85 1532.4 Z" fill="#000000" fill-rule="nonzero" fill-opacity="1" /><path clip-path="url(#clip210)" d="M1302.18 1564.42 L1315.67 1564.42 L1315.67 1568.04 L1296.64 1568.04 L1296.64 1564.54 Q1297.72 1563.56 1299.73 1561.77 Q1310.68 1552.07 1310.68 1549.07 Q1310.68 1546.97 1309.02 1545.7 Q1307.37 1544.4 1304.66 1544.4 Q1303.01 1544.4 1301.06 1544.97 Q1299.12 1545.51 1296.83 1546.62 L1296.83 1542.71 Q1299.28 1541.82 1301.38 1541.37 Q1303.51 1540.93 1305.33 1540.93 Q1309.94 1540.93 1312.71 1543.03 Q1315.48 1545.13 1315.48 1548.56 Q1315.48 1552.99 1304.95 1562.03 Q1303.16 1563.56 1302.18 1564.42 Z" fill="#000000" fill-rule="nonzero" fill-opacity="1" /><polyline clip-path="url(#clip210)" style="stroke:#000000; stroke-linecap:round; stroke-linejoin:round; stroke-width:4; stroke-opacity:1; fill:none" points="219.866,1423.18 219.866,47.2441 "/>
<polyline clip-path="url(#clip210)" style="stroke:#000000; stroke-linecap:round; stroke-linejoin:round; stroke-width:4; stroke-opacity:1; fill:none" points="219.866,1423.18 238.764,1423.18 "/>
<polyline clip-path="url(#clip210)" style="stroke:#000000; stroke-linecap:round; stroke-linejoin:round; stroke-width:4; stroke-opacity:1; fill:none" points="219.866,1096.35 238.764,1096.35 "/>
<polyline clip-path="url(#clip210)" style="stroke:#000000; stroke-linecap:round; stroke-linejoin:round; stroke-width:4; stroke-opacity:1; fill:none" points="219.866,769.529 238.764,769.529 "/>
<polyline clip-path="url(#clip210)" style="stroke:#000000; stroke-linecap:round; stroke-linejoin:round; stroke-width:4; stroke-opacity:1; fill:none" points="219.866,442.703 238.764,442.703 "/>
<polyline clip-path="url(#clip210)" style="stroke:#000000; stroke-linecap:round; stroke-linejoin:round; stroke-width:4; stroke-opacity:1; fill:none" points="219.866,115.877 238.764,115.877 "/>
<path clip-path="url(#clip210)" d="M126.691 1408.98 Q123.08 1408.98 121.251 1412.54 Q119.445 1416.08 119.445 1423.21 Q119.445 1430.32 121.251 1433.89 Q123.08 1437.43 126.691 1437.43 Q130.325 1437.43 132.13 1433.89 Q133.959 1430.32 133.959 1423.21 Q133.959 1416.08 132.13 1412.54 Q130.325 1408.98 126.691 1408.98 M126.691 1405.27 Q132.501 1405.27 135.556 1409.88 Q138.635 1414.46 138.635 1423.21 Q138.635 1431.94 135.556 1436.55 Q132.501 1441.13 126.691 1441.13 Q120.88 1441.13 117.802 1436.55 Q114.746 1431.94 114.746 1423.21 Q114.746 1414.46 117.802 1409.88 Q120.88 1405.27 126.691 1405.27 Z" fill="#000000" fill-rule="nonzero" fill-opacity="1" /><path clip-path="url(#clip210)" d="M146.853 1434.58 L151.737 1434.58 L151.737 1440.46 L146.853 1440.46 L146.853 1434.58 Z" fill="#000000" fill-rule="nonzero" fill-opacity="1" /><path clip-path="url(#clip210)" d="M171.922 1408.98 Q168.311 1408.98 166.482 1412.54 Q164.677 1416.08 164.677 1423.21 Q164.677 1430.32 166.482 1433.89 Q168.311 1437.43 171.922 1437.43 Q175.556 1437.43 177.362 1433.89 Q179.19 1430.32 179.19 1423.21 Q179.19 1416.08 177.362 1412.54 Q175.556 1408.98 171.922 1408.98 M171.922 1405.27 Q177.732 1405.27 180.788 1409.88 Q183.866 1414.46 183.866 1423.21 Q183.866 1431.94 180.788 1436.55 Q177.732 1441.13 171.922 1441.13 Q166.112 1441.13 163.033 1436.55 Q159.978 1431.94 159.978 1423.21 Q159.978 1414.46 163.033 1409.88 Q166.112 1405.27 171.922 1405.27 Z" fill="#000000" fill-rule="nonzero" fill-opacity="1" /><path clip-path="url(#clip210)" d="M127.917 1082.15 Q124.306 1082.15 122.478 1085.72 Q120.672 1089.26 120.672 1096.39 Q120.672 1103.5 122.478 1107.06 Q124.306 1110.6 127.917 1110.6 Q131.552 1110.6 133.357 1107.06 Q135.186 1103.5 135.186 1096.39 Q135.186 1089.26 133.357 1085.72 Q131.552 1082.15 127.917 1082.15 M127.917 1078.45 Q133.728 1078.45 136.783 1083.06 Q139.862 1087.64 139.862 1096.39 Q139.862 1105.12 136.783 1109.72 Q133.728 1114.31 127.917 1114.31 Q122.107 1114.31 119.029 1109.72 Q115.973 1105.12 115.973 1096.39 Q115.973 1087.64 119.029 1083.06 Q122.107 1078.45 127.917 1078.45 Z" fill="#000000" fill-rule="nonzero" fill-opacity="1" /><path clip-path="url(#clip210)" d="M148.079 1107.75 L152.964 1107.75 L152.964 1113.63 L148.079 1113.63 L148.079 1107.75 Z" fill="#000000" fill-rule="nonzero" fill-opacity="1" /><path clip-path="url(#clip210)" d="M163.959 1109.7 L171.598 1109.7 L171.598 1083.33 L163.288 1085 L163.288 1080.74 L171.552 1079.07 L176.227 1079.07 L176.227 1109.7 L183.866 1109.7 L183.866 1113.63 L163.959 1113.63 L163.959 1109.7 Z" fill="#000000" fill-rule="nonzero" fill-opacity="1" /><path clip-path="url(#clip210)" d="M128.288 755.327 Q124.677 755.327 122.848 758.892 Q121.043 762.434 121.043 769.563 Q121.043 776.67 122.848 780.235 Q124.677 783.776 128.288 783.776 Q131.922 783.776 133.728 780.235 Q135.556 776.67 135.556 769.563 Q135.556 762.434 133.728 758.892 Q131.922 755.327 128.288 755.327 M128.288 751.624 Q134.098 751.624 137.154 756.23 Q140.232 760.813 140.232 769.563 Q140.232 778.29 137.154 782.897 Q134.098 787.48 128.288 787.48 Q122.478 787.48 119.399 782.897 Q116.343 778.29 116.343 769.563 Q116.343 760.813 119.399 756.23 Q122.478 751.624 128.288 751.624 Z" fill="#000000" fill-rule="nonzero" fill-opacity="1" /><path clip-path="url(#clip210)" d="M148.45 780.929 L153.334 780.929 L153.334 786.809 L148.45 786.809 L148.45 780.929 Z" fill="#000000" fill-rule="nonzero" fill-opacity="1" /><path clip-path="url(#clip210)" d="M167.547 782.873 L183.866 782.873 L183.866 786.809 L161.922 786.809 L161.922 782.873 Q164.584 780.119 169.167 775.489 Q173.774 770.837 174.954 769.494 Q177.2 766.971 178.079 765.235 Q178.982 763.475 178.982 761.786 Q178.982 759.031 177.038 757.295 Q175.116 755.559 172.014 755.559 Q169.815 755.559 167.362 756.323 Q164.931 757.087 162.153 758.638 L162.153 753.915 Q164.977 752.781 167.431 752.202 Q169.885 751.624 171.922 751.624 Q177.292 751.624 180.487 754.309 Q183.681 756.994 183.681 761.485 Q183.681 763.614 182.871 765.536 Q182.084 767.434 179.977 770.026 Q179.399 770.698 176.297 773.915 Q173.195 777.11 167.547 782.873 Z" fill="#000000" fill-rule="nonzero" fill-opacity="1" /><path clip-path="url(#clip210)" d="M127.339 428.502 Q123.728 428.502 121.899 432.067 Q120.093 435.608 120.093 442.738 Q120.093 449.844 121.899 453.409 Q123.728 456.951 127.339 456.951 Q130.973 456.951 132.779 453.409 Q134.607 449.844 134.607 442.738 Q134.607 435.608 132.779 432.067 Q130.973 428.502 127.339 428.502 M127.339 424.798 Q133.149 424.798 136.204 429.405 Q139.283 433.988 139.283 442.738 Q139.283 451.465 136.204 456.071 Q133.149 460.654 127.339 460.654 Q121.529 460.654 118.45 456.071 Q115.394 451.465 115.394 442.738 Q115.394 433.988 118.45 429.405 Q121.529 424.798 127.339 424.798 Z" fill="#000000" fill-rule="nonzero" fill-opacity="1" /><path clip-path="url(#clip210)" d="M147.501 454.103 L152.385 454.103 L152.385 459.983 L147.501 459.983 L147.501 454.103 Z" fill="#000000" fill-rule="nonzero" fill-opacity="1" /><path clip-path="url(#clip210)" d="M176.737 441.349 Q180.093 442.066 181.968 444.335 Q183.866 446.604 183.866 449.937 Q183.866 455.053 180.348 457.853 Q176.829 460.654 170.348 460.654 Q168.172 460.654 165.857 460.215 Q163.565 459.798 161.112 458.941 L161.112 454.428 Q163.056 455.562 165.371 456.14 Q167.686 456.719 170.209 456.719 Q174.607 456.719 176.899 454.983 Q179.214 453.247 179.214 449.937 Q179.214 446.881 177.061 445.168 Q174.931 443.432 171.112 443.432 L167.084 443.432 L167.084 439.59 L171.297 439.59 Q174.746 439.59 176.575 438.224 Q178.403 436.835 178.403 434.242 Q178.403 431.58 176.505 430.168 Q174.63 428.733 171.112 428.733 Q169.19 428.733 166.991 429.15 Q164.792 429.567 162.153 430.446 L162.153 426.28 Q164.815 425.539 167.13 425.168 Q169.468 424.798 171.528 424.798 Q176.852 424.798 179.954 427.229 Q183.056 429.636 183.056 433.756 Q183.056 436.627 181.413 438.617 Q179.769 440.585 176.737 441.349 Z" fill="#000000" fill-rule="nonzero" fill-opacity="1" /><path clip-path="url(#clip210)" d="M126.205 101.676 Q122.593 101.676 120.765 105.241 Q118.959 108.783 118.959 115.912 Q118.959 123.019 120.765 126.583 Q122.593 130.125 126.205 130.125 Q129.839 130.125 131.644 126.583 Q133.473 123.019 133.473 115.912 Q133.473 108.783 131.644 105.241 Q129.839 101.676 126.205 101.676 M126.205 97.9725 Q132.015 97.9725 135.07 102.579 Q138.149 107.162 138.149 115.912 Q138.149 124.639 135.07 129.245 Q132.015 133.829 126.205 133.829 Q120.394 133.829 117.316 129.245 Q114.26 124.639 114.26 115.912 Q114.26 107.162 117.316 102.579 Q120.394 97.9725 126.205 97.9725 Z" fill="#000000" fill-rule="nonzero" fill-opacity="1" /><path clip-path="url(#clip210)" d="M146.366 127.278 L151.251 127.278 L151.251 133.157 L146.366 133.157 L146.366 127.278 Z" fill="#000000" fill-rule="nonzero" fill-opacity="1" /><path clip-path="url(#clip210)" d="M174.283 102.672 L162.477 121.12 L174.283 121.12 L174.283 102.672 M173.056 98.5975 L178.936 98.5975 L178.936 121.12 L183.866 121.12 L183.866 125.009 L178.936 125.009 L178.936 133.157 L174.283 133.157 L174.283 125.009 L158.681 125.009 L158.681 120.495 L173.056 98.5975 Z" fill="#000000" fill-rule="nonzero" fill-opacity="1" /><path clip-path="url(#clip210)" d="M21.7677 848.522 L58.7206 848.522 L58.7206 840.755 Q58.7206 830.92 54.2646 826.369 Q49.8086 821.786 40.1964 821.786 Q30.6479 821.786 26.2237 826.369 Q21.7677 830.92 21.7677 840.755 L21.7677 848.522 M16.4842 854.951 L16.4842 841.742 Q16.4842 827.928 22.2451 821.467 Q27.9743 815.006 40.1964 815.006 Q52.4822 815.006 58.2432 821.499 Q64.0042 827.992 64.0042 841.742 L64.0042 854.951 L16.4842 854.951 Z" fill="#000000" fill-rule="nonzero" fill-opacity="1" /><path clip-path="url(#clip210)" d="M44.7161 774.52 L47.5806 774.52 L47.5806 801.447 Q53.6281 801.065 56.8109 797.819 Q59.9619 794.54 59.9619 788.716 Q59.9619 785.342 59.1344 782.191 Q58.3069 779.008 56.6518 775.889 L62.1899 775.889 Q63.5267 779.04 64.227 782.35 Q64.9272 785.66 64.9272 789.066 Q64.9272 797.596 59.9619 802.593 Q54.9967 807.558 46.5303 807.558 Q37.7774 807.558 32.6531 802.848 Q27.4968 798.105 27.4968 790.084 Q27.4968 782.891 32.1438 778.722 Q36.7589 774.52 44.7161 774.52 M42.9973 780.377 Q38.1912 780.44 35.3266 783.082 Q32.4621 785.692 32.4621 790.021 Q32.4621 794.922 35.2312 797.882 Q38.0002 800.811 43.0292 801.256 L42.9973 780.377 Z" fill="#000000" fill-rule="nonzero" fill-opacity="1" /><path clip-path="url(#clip210)" d="M42.4881 735.276 L64.0042 735.276 L64.0042 741.132 L42.679 741.132 Q37.6183 741.132 35.1038 743.105 Q32.5894 745.079 32.5894 749.026 Q32.5894 753.768 35.6131 756.505 Q38.6368 759.243 43.8567 759.243 L64.0042 759.243 L64.0042 765.131 L28.3562 765.131 L28.3562 759.243 L33.8944 759.243 Q30.6797 757.142 29.0883 754.309 Q27.4968 751.445 27.4968 747.721 Q27.4968 741.578 31.3163 738.427 Q35.1038 735.276 42.4881 735.276 Z" fill="#000000" fill-rule="nonzero" fill-opacity="1" /><path clip-path="url(#clip210)" d="M29.4065 700.869 L34.9447 700.869 Q33.6716 703.352 33.035 706.025 Q32.3984 708.699 32.3984 711.563 Q32.3984 715.924 33.7352 718.12 Q35.072 720.284 37.7456 720.284 Q39.7826 720.284 40.9603 718.725 Q42.1061 717.165 43.1565 712.455 L43.6021 710.449 Q44.9389 704.211 47.3897 701.601 Q49.8086 698.959 54.1691 698.959 Q59.1344 698.959 62.0308 702.906 Q64.9272 706.821 64.9272 713.696 Q64.9272 716.56 64.3543 719.68 Q63.8132 722.767 62.6992 726.204 L56.6518 726.204 Q58.3387 722.958 59.198 719.807 Q60.0256 716.656 60.0256 713.569 Q60.0256 709.431 58.6251 707.203 Q57.1929 704.975 54.6147 704.975 Q52.2276 704.975 50.9545 706.598 Q49.6813 708.19 48.5037 713.632 L48.0262 715.669 Q46.8804 721.112 44.5251 723.531 Q42.138 725.95 38.0002 725.95 Q32.9713 725.95 30.2341 722.385 Q27.4968 718.82 27.4968 712.264 Q27.4968 709.017 27.9743 706.153 Q28.4517 703.288 29.4065 700.869 Z" fill="#000000" fill-rule="nonzero" fill-opacity="1" /><path clip-path="url(#clip210)" d="M28.3562 689.634 L28.3562 683.777 L64.0042 683.777 L64.0042 689.634 L28.3562 689.634 M14.479 689.634 L14.479 683.777 L21.895 683.777 L21.895 689.634 L14.479 689.634 Z" fill="#000000" fill-rule="nonzero" fill-opacity="1" /><path clip-path="url(#clip210)" d="M18.2347 665.73 L28.3562 665.73 L28.3562 653.667 L32.9077 653.667 L32.9077 665.73 L52.2594 665.73 Q56.6199 665.73 57.8613 664.553 Q59.1026 663.343 59.1026 659.683 L59.1026 653.667 L64.0042 653.667 L64.0042 659.683 Q64.0042 666.462 61.4897 669.04 Q58.9434 671.619 52.2594 671.619 L32.9077 671.619 L32.9077 675.915 L28.3562 675.915 L28.3562 671.619 L18.2347 671.619 L18.2347 665.73 Z" fill="#000000" fill-rule="nonzero" fill-opacity="1" /><path clip-path="url(#clip210)" d="M67.3143 631.133 Q73.68 633.615 75.6216 635.971 Q77.5631 638.326 77.5631 642.273 L77.5631 646.951 L72.6615 646.951 L72.6615 643.514 Q72.6615 641.095 71.5157 639.758 Q70.3699 638.421 66.1048 636.798 L63.4312 635.748 L28.3562 650.166 L28.3562 643.96 L56.238 632.82 L28.3562 621.68 L28.3562 615.473 L67.3143 631.133 Z" fill="#000000" fill-rule="nonzero" fill-opacity="1" /><path clip-path="url(#clip212)" d="M337.179 1413.38 L337.179 1423.18 L385.852 1423.18 L385.852 1413.38 L337.179 1413.38 L337.179 1413.38  Z" fill="#009af9" fill-rule="evenodd" fill-opacity="0.7"/>
<polyline clip-path="url(#clip212)" style="stroke:#000000; stroke-linecap:round; stroke-linejoin:round; stroke-width:4; stroke-opacity:0.7; fill:none" points="337.179,1413.38 337.179,1423.18 385.852,1423.18 385.852,1413.38 337.179,1413.38 "/>
<path clip-path="url(#clip212)" d="M385.852 1416.64 L385.852 1423.18 L434.526 1423.18 L434.526 1416.64 L385.852 1416.64 L385.852 1416.64  Z" fill="#009af9" fill-rule="evenodd" fill-opacity="0.7"/>
<polyline clip-path="url(#clip212)" style="stroke:#000000; stroke-linecap:round; stroke-linejoin:round; stroke-width:4; stroke-opacity:0.7; fill:none" points="385.852,1416.64 385.852,1423.18 434.526,1423.18 434.526,1416.64 385.852,1416.64 "/>
<path clip-path="url(#clip212)" d="M434.526 1403.57 L434.526 1423.18 L483.199 1423.18 L483.199 1403.57 L434.526 1403.57 L434.526 1403.57  Z" fill="#009af9" fill-rule="evenodd" fill-opacity="0.7"/>
<polyline clip-path="url(#clip212)" style="stroke:#000000; stroke-linecap:round; stroke-linejoin:round; stroke-width:4; stroke-opacity:0.7; fill:none" points="434.526,1403.57 434.526,1423.18 483.199,1423.18 483.199,1403.57 434.526,1403.57 "/>
<path clip-path="url(#clip212)" d="M483.199 1395.4 L483.199 1423.18 L531.873 1423.18 L531.873 1395.4 L483.199 1395.4 L483.199 1395.4  Z" fill="#009af9" fill-rule="evenodd" fill-opacity="0.7"/>
<polyline clip-path="url(#clip212)" style="stroke:#000000; stroke-linecap:round; stroke-linejoin:round; stroke-width:4; stroke-opacity:0.7; fill:none" points="483.199,1395.4 483.199,1423.18 531.873,1423.18 531.873,1395.4 483.199,1395.4 "/>
<path clip-path="url(#clip212)" d="M531.873 1385.59 L531.873 1423.18 L580.546 1423.18 L580.546 1385.59 L531.873 1385.59 L531.873 1385.59  Z" fill="#009af9" fill-rule="evenodd" fill-opacity="0.7"/>
<polyline clip-path="url(#clip212)" style="stroke:#000000; stroke-linecap:round; stroke-linejoin:round; stroke-width:4; stroke-opacity:0.7; fill:none" points="531.873,1385.59 531.873,1423.18 580.546,1423.18 580.546,1385.59 531.873,1385.59 "/>
<path clip-path="url(#clip212)" d="M580.546 1338.21 L580.546 1423.18 L629.22 1423.18 L629.22 1338.21 L580.546 1338.21 L580.546 1338.21  Z" fill="#009af9" fill-rule="evenodd" fill-opacity="0.7"/>
<polyline clip-path="url(#clip212)" style="stroke:#000000; stroke-linecap:round; stroke-linejoin:round; stroke-width:4; stroke-opacity:0.7; fill:none" points="580.546,1338.21 580.546,1423.18 629.22,1423.18 629.22,1338.21 580.546,1338.21 "/>
<path clip-path="url(#clip212)" d="M629.22 1326.77 L629.22 1423.18 L677.893 1423.18 L677.893 1326.77 L629.22 1326.77 L629.22 1326.77  Z" fill="#009af9" fill-rule="evenodd" fill-opacity="0.7"/>
<polyline clip-path="url(#clip212)" style="stroke:#000000; stroke-linecap:round; stroke-linejoin:round; stroke-width:4; stroke-opacity:0.7; fill:none" points="629.22,1326.77 629.22,1423.18 677.893,1423.18 677.893,1326.77 629.22,1326.77 "/>
<path clip-path="url(#clip212)" d="M677.893 1230.35 L677.893 1423.18 L726.567 1423.18 L726.567 1230.35 L677.893 1230.35 L677.893 1230.35  Z" fill="#009af9" fill-rule="evenodd" fill-opacity="0.7"/>
<polyline clip-path="url(#clip212)" style="stroke:#000000; stroke-linecap:round; stroke-linejoin:round; stroke-width:4; stroke-opacity:0.7; fill:none" points="677.893,1230.35 677.893,1423.18 726.567,1423.18 726.567,1230.35 677.893,1230.35 "/>
<path clip-path="url(#clip212)" d="M726.567 1129.04 L726.567 1423.18 L775.24 1423.18 L775.24 1129.04 L726.567 1129.04 L726.567 1129.04  Z" fill="#009af9" fill-rule="evenodd" fill-opacity="0.7"/>
<polyline clip-path="url(#clip212)" style="stroke:#000000; stroke-linecap:round; stroke-linejoin:round; stroke-width:4; stroke-opacity:0.7; fill:none" points="726.567,1129.04 726.567,1423.18 775.24,1423.18 775.24,1129.04 726.567,1129.04 "/>
<path clip-path="url(#clip212)" d="M775.24 1045.7 L775.24 1423.18 L823.913 1423.18 L823.913 1045.7 L775.24 1045.7 L775.24 1045.7  Z" fill="#009af9" fill-rule="evenodd" fill-opacity="0.7"/>
<polyline clip-path="url(#clip212)" style="stroke:#000000; stroke-linecap:round; stroke-linejoin:round; stroke-width:4; stroke-opacity:0.7; fill:none" points="775.24,1045.7 775.24,1423.18 823.913,1423.18 823.913,1045.7 775.24,1045.7 "/>
<path clip-path="url(#clip212)" d="M823.913 892.088 L823.913 1423.18 L872.587 1423.18 L872.587 892.088 L823.913 892.088 L823.913 892.088  Z" fill="#009af9" fill-rule="evenodd" fill-opacity="0.7"/>
<polyline clip-path="url(#clip212)" style="stroke:#000000; stroke-linecap:round; stroke-linejoin:round; stroke-width:4; stroke-opacity:0.7; fill:none" points="823.913,892.088 823.913,1423.18 872.587,1423.18 872.587,892.088 823.913,892.088 "/>
<path clip-path="url(#clip212)" d="M872.587 720.505 L872.587 1423.18 L921.26 1423.18 L921.26 720.505 L872.587 720.505 L872.587 720.505  Z" fill="#009af9" fill-rule="evenodd" fill-opacity="0.7"/>
<polyline clip-path="url(#clip212)" style="stroke:#000000; stroke-linecap:round; stroke-linejoin:round; stroke-width:4; stroke-opacity:0.7; fill:none" points="872.587,720.505 872.587,1423.18 921.26,1423.18 921.26,720.505 872.587,720.505 "/>
<path clip-path="url(#clip212)" d="M921.26 637.164 L921.26 1423.18 L969.934 1423.18 L969.934 637.164 L921.26 637.164 L921.26 637.164  Z" fill="#009af9" fill-rule="evenodd" fill-opacity="0.7"/>
<polyline clip-path="url(#clip212)" style="stroke:#000000; stroke-linecap:round; stroke-linejoin:round; stroke-width:4; stroke-opacity:0.7; fill:none" points="921.26,637.164 921.26,1423.18 969.934,1423.18 969.934,637.164 921.26,637.164 "/>
<path clip-path="url(#clip212)" d="M969.934 382.24 L969.934 1423.18 L1018.61 1423.18 L1018.61 382.24 L969.934 382.24 L969.934 382.24  Z" fill="#009af9" fill-rule="evenodd" fill-opacity="0.7"/>
<polyline clip-path="url(#clip212)" style="stroke:#000000; stroke-linecap:round; stroke-linejoin:round; stroke-width:4; stroke-opacity:0.7; fill:none" points="969.934,382.24 969.934,1423.18 1018.61,1423.18 1018.61,382.24 969.934,382.24 "/>
<path clip-path="url(#clip212)" d="M1018.61 202.486 L1018.61 1423.18 L1067.28 1423.18 L1067.28 202.486 L1018.61 202.486 L1018.61 202.486  Z" fill="#009af9" fill-rule="evenodd" fill-opacity="0.7"/>
<polyline clip-path="url(#clip212)" style="stroke:#000000; stroke-linecap:round; stroke-linejoin:round; stroke-width:4; stroke-opacity:0.7; fill:none" points="1018.61,202.486 1018.61,1423.18 1067.28,1423.18 1067.28,202.486 1018.61,202.486 "/>
<path clip-path="url(#clip212)" d="M1067.28 212.291 L1067.28 1423.18 L1115.95 1423.18 L1115.95 212.291 L1067.28 212.291 L1067.28 212.291  Z" fill="#009af9" fill-rule="evenodd" fill-opacity="0.7"/>
<polyline clip-path="url(#clip212)" style="stroke:#000000; stroke-linecap:round; stroke-linejoin:round; stroke-width:4; stroke-opacity:0.7; fill:none" points="1067.28,212.291 1067.28,1423.18 1115.95,1423.18 1115.95,212.291 1067.28,212.291 "/>
<path clip-path="url(#clip212)" d="M1115.95 47.2441 L1115.95 1423.18 L1164.63 1423.18 L1164.63 47.2441 L1115.95 47.2441 L1115.95 47.2441  Z" fill="#009af9" fill-rule="evenodd" fill-opacity="0.7"/>
<polyline clip-path="url(#clip212)" style="stroke:#000000; stroke-linecap:round; stroke-linejoin:round; stroke-width:4; stroke-opacity:0.7; fill:none" points="1115.95,47.2441 1115.95,1423.18 1164.63,1423.18 1164.63,47.2441 1115.95,47.2441 "/>
<path clip-path="url(#clip212)" d="M1164.63 109.341 L1164.63 1423.18 L1213.3 1423.18 L1213.3 109.341 L1164.63 109.341 L1164.63 109.341  Z" fill="#009af9" fill-rule="evenodd" fill-opacity="0.7"/>
<polyline clip-path="url(#clip212)" style="stroke:#000000; stroke-linecap:round; stroke-linejoin:round; stroke-width:4; stroke-opacity:0.7; fill:none" points="1164.63,109.341 1164.63,1423.18 1213.3,1423.18 1213.3,109.341 1164.63,109.341 "/>
<path clip-path="url(#clip212)" d="M1213.3 177.974 L1213.3 1423.18 L1261.97 1423.18 L1261.97 177.974 L1213.3 177.974 L1213.3 177.974  Z" fill="#009af9" fill-rule="evenodd" fill-opacity="0.7"/>
<polyline clip-path="url(#clip212)" style="stroke:#000000; stroke-linecap:round; stroke-linejoin:round; stroke-width:4; stroke-opacity:0.7; fill:none" points="1213.3,177.974 1213.3,1423.18 1261.97,1423.18 1261.97,177.974 1213.3,177.974 "/>
<path clip-path="url(#clip212)" d="M1261.97 191.047 L1261.97 1423.18 L1310.65 1423.18 L1310.65 191.047 L1261.97 191.047 L1261.97 191.047  Z" fill="#009af9" fill-rule="evenodd" fill-opacity="0.7"/>
<polyline clip-path="url(#clip212)" style="stroke:#000000; stroke-linecap:round; stroke-linejoin:round; stroke-width:4; stroke-opacity:0.7; fill:none" points="1261.97,191.047 1261.97,1423.18 1310.65,1423.18 1310.65,191.047 1261.97,191.047 "/>
<path clip-path="url(#clip212)" d="M1310.65 424.728 L1310.65 1423.18 L1359.32 1423.18 L1359.32 424.728 L1310.65 424.728 L1310.65 424.728  Z" fill="#009af9" fill-rule="evenodd" fill-opacity="0.7"/>
<polyline clip-path="url(#clip212)" style="stroke:#000000; stroke-linecap:round; stroke-linejoin:round; stroke-width:4; stroke-opacity:0.7; fill:none" points="1310.65,424.728 1310.65,1423.18 1359.32,1423.18 1359.32,424.728 1310.65,424.728 "/>
<path clip-path="url(#clip212)" d="M1359.32 550.556 L1359.32 1423.18 L1407.99 1423.18 L1407.99 550.556 L1359.32 550.556 L1359.32 550.556  Z" fill="#009af9" fill-rule="evenodd" fill-opacity="0.7"/>
<polyline clip-path="url(#clip212)" style="stroke:#000000; stroke-linecap:round; stroke-linejoin:round; stroke-width:4; stroke-opacity:0.7; fill:none" points="1359.32,550.556 1359.32,1423.18 1407.99,1423.18 1407.99,550.556 1359.32,550.556 "/>
<path clip-path="url(#clip212)" d="M1407.99 702.529 L1407.99 1423.18 L1456.67 1423.18 L1456.67 702.529 L1407.99 702.529 L1407.99 702.529  Z" fill="#009af9" fill-rule="evenodd" fill-opacity="0.7"/>
<polyline clip-path="url(#clip212)" style="stroke:#000000; stroke-linecap:round; stroke-linejoin:round; stroke-width:4; stroke-opacity:0.7; fill:none" points="1407.99,702.529 1407.99,1423.18 1456.67,1423.18 1456.67,702.529 1407.99,702.529 "/>
<path clip-path="url(#clip212)" d="M1456.67 869.21 L1456.67 1423.18 L1505.34 1423.18 L1505.34 869.21 L1456.67 869.21 L1456.67 869.21  Z" fill="#009af9" fill-rule="evenodd" fill-opacity="0.7"/>
<polyline clip-path="url(#clip212)" style="stroke:#000000; stroke-linecap:round; stroke-linejoin:round; stroke-width:4; stroke-opacity:0.7; fill:none" points="1456.67,869.21 1456.67,1423.18 1505.34,1423.18 1505.34,869.21 1456.67,869.21 "/>
<path clip-path="url(#clip212)" d="M1505.34 1021.18 L1505.34 1423.18 L1554.02 1423.18 L1554.02 1021.18 L1505.34 1021.18 L1505.34 1021.18  Z" fill="#009af9" fill-rule="evenodd" fill-opacity="0.7"/>
<polyline clip-path="url(#clip212)" style="stroke:#000000; stroke-linecap:round; stroke-linejoin:round; stroke-width:4; stroke-opacity:0.7; fill:none" points="1505.34,1021.18 1505.34,1423.18 1554.02,1423.18 1554.02,1021.18 1505.34,1021.18 "/>
<path clip-path="url(#clip212)" d="M1554.02 1112.7 L1554.02 1423.18 L1602.69 1423.18 L1602.69 1112.7 L1554.02 1112.7 L1554.02 1112.7  Z" fill="#009af9" fill-rule="evenodd" fill-opacity="0.7"/>
<polyline clip-path="url(#clip212)" style="stroke:#000000; stroke-linecap:round; stroke-linejoin:round; stroke-width:4; stroke-opacity:0.7; fill:none" points="1554.02,1112.7 1554.02,1423.18 1602.69,1423.18 1602.69,1112.7 1554.02,1112.7 "/>
<path clip-path="url(#clip212)" d="M1602.69 1168.26 L1602.69 1423.18 L1651.36 1423.18 L1651.36 1168.26 L1602.69 1168.26 L1602.69 1168.26  Z" fill="#009af9" fill-rule="evenodd" fill-opacity="0.7"/>
<polyline clip-path="url(#clip212)" style="stroke:#000000; stroke-linecap:round; stroke-linejoin:round; stroke-width:4; stroke-opacity:0.7; fill:none" points="1602.69,1168.26 1602.69,1423.18 1651.36,1423.18 1651.36,1168.26 1602.69,1168.26 "/>
<path clip-path="url(#clip212)" d="M1651.36 1287.55 L1651.36 1423.18 L1700.04 1423.18 L1700.04 1287.55 L1651.36 1287.55 L1651.36 1287.55  Z" fill="#009af9" fill-rule="evenodd" fill-opacity="0.7"/>
<polyline clip-path="url(#clip212)" style="stroke:#000000; stroke-linecap:round; stroke-linejoin:round; stroke-width:4; stroke-opacity:0.7; fill:none" points="1651.36,1287.55 1651.36,1423.18 1700.04,1423.18 1700.04,1287.55 1651.36,1287.55 "/>
<path clip-path="url(#clip212)" d="M1700.04 1321.86 L1700.04 1423.18 L1748.71 1423.18 L1748.71 1321.86 L1700.04 1321.86 L1700.04 1321.86  Z" fill="#009af9" fill-rule="evenodd" fill-opacity="0.7"/>
<polyline clip-path="url(#clip212)" style="stroke:#000000; stroke-linecap:round; stroke-linejoin:round; stroke-width:4; stroke-opacity:0.7; fill:none" points="1700.04,1321.86 1700.04,1423.18 1748.71,1423.18 1748.71,1321.86 1700.04,1321.86 "/>
<path clip-path="url(#clip212)" d="M1748.71 1343.11 L1748.71 1423.18 L1797.38 1423.18 L1797.38 1343.11 L1748.71 1343.11 L1748.71 1343.11  Z" fill="#009af9" fill-rule="evenodd" fill-opacity="0.7"/>
<polyline clip-path="url(#clip212)" style="stroke:#000000; stroke-linecap:round; stroke-linejoin:round; stroke-width:4; stroke-opacity:0.7; fill:none" points="1748.71,1343.11 1748.71,1423.18 1797.38,1423.18 1797.38,1343.11 1748.71,1343.11 "/>
<path clip-path="url(#clip212)" d="M1797.38 1388.86 L1797.38 1423.18 L1846.06 1423.18 L1846.06 1388.86 L1797.38 1388.86 L1797.38 1388.86  Z" fill="#009af9" fill-rule="evenodd" fill-opacity="0.7"/>
<polyline clip-path="url(#clip212)" style="stroke:#000000; stroke-linecap:round; stroke-linejoin:round; stroke-width:4; stroke-opacity:0.7; fill:none" points="1797.38,1388.86 1797.38,1423.18 1846.06,1423.18 1846.06,1388.86 1797.38,1388.86 "/>
<path clip-path="url(#clip212)" d="M1846.06 1382.33 L1846.06 1423.18 L1894.73 1423.18 L1894.73 1382.33 L1846.06 1382.33 L1846.06 1382.33  Z" fill="#009af9" fill-rule="evenodd" fill-opacity="0.7"/>
<polyline clip-path="url(#clip212)" style="stroke:#000000; stroke-linecap:round; stroke-linejoin:round; stroke-width:4; stroke-opacity:0.7; fill:none" points="1846.06,1382.33 1846.06,1423.18 1894.73,1423.18 1894.73,1382.33 1846.06,1382.33 "/>
<path clip-path="url(#clip212)" d="M1894.73 1415.01 L1894.73 1423.18 L1943.4 1423.18 L1943.4 1415.01 L1894.73 1415.01 L1894.73 1415.01  Z" fill="#009af9" fill-rule="evenodd" fill-opacity="0.7"/>
<polyline clip-path="url(#clip212)" style="stroke:#000000; stroke-linecap:round; stroke-linejoin:round; stroke-width:4; stroke-opacity:0.7; fill:none" points="1894.73,1415.01 1894.73,1423.18 1943.4,1423.18 1943.4,1415.01 1894.73,1415.01 "/>
<path clip-path="url(#clip212)" d="M1943.4 1413.38 L1943.4 1423.18 L1992.08 1423.18 L1992.08 1413.38 L1943.4 1413.38 L1943.4 1413.38  Z" fill="#009af9" fill-rule="evenodd" fill-opacity="0.7"/>
<polyline clip-path="url(#clip212)" style="stroke:#000000; stroke-linecap:round; stroke-linejoin:round; stroke-width:4; stroke-opacity:0.7; fill:none" points="1943.4,1413.38 1943.4,1423.18 1992.08,1423.18 1992.08,1413.38 1943.4,1413.38 "/>
<path clip-path="url(#clip212)" d="M1992.08 1418.28 L1992.08 1423.18 L2040.75 1423.18 L2040.75 1418.28 L1992.08 1418.28 L1992.08 1418.28  Z" fill="#009af9" fill-rule="evenodd" fill-opacity="0.7"/>
<polyline clip-path="url(#clip212)" style="stroke:#000000; stroke-linecap:round; stroke-linejoin:round; stroke-width:4; stroke-opacity:0.7; fill:none" points="1992.08,1418.28 1992.08,1423.18 2040.75,1423.18 2040.75,1418.28 1992.08,1418.28 "/>
<path clip-path="url(#clip212)" d="M2040.75 1419.91 L2040.75 1423.18 L2089.42 1423.18 L2089.42 1419.91 L2040.75 1419.91 L2040.75 1419.91  Z" fill="#009af9" fill-rule="evenodd" fill-opacity="0.7"/>
<polyline clip-path="url(#clip212)" style="stroke:#000000; stroke-linecap:round; stroke-linejoin:round; stroke-width:4; stroke-opacity:0.7; fill:none" points="2040.75,1419.91 2040.75,1423.18 2089.42,1423.18 2089.42,1419.91 2040.75,1419.91 "/>
<path clip-path="url(#clip212)" d="M2089.42 1423.18 L2089.42 1423.18 L2138.1 1423.18 L2138.1 1423.18 L2089.42 1423.18 L2089.42 1423.18  Z" fill="#009af9" fill-rule="evenodd" fill-opacity="0.7"/>
<polyline clip-path="url(#clip212)" style="stroke:#000000; stroke-linecap:round; stroke-linejoin:round; stroke-width:4; stroke-opacity:0.7; fill:none" points="2089.42,1423.18 2089.42,1423.18 2138.1,1423.18 2089.42,1423.18 "/>
<path clip-path="url(#clip212)" d="M2138.1 1421.55 L2138.1 1423.18 L2186.77 1423.18 L2186.77 1421.55 L2138.1 1421.55 L2138.1 1421.55  Z" fill="#009af9" fill-rule="evenodd" fill-opacity="0.7"/>
<polyline clip-path="url(#clip212)" style="stroke:#000000; stroke-linecap:round; stroke-linejoin:round; stroke-width:4; stroke-opacity:0.7; fill:none" points="2138.1,1421.55 2138.1,1423.18 2186.77,1423.18 2186.77,1421.55 2138.1,1421.55 "/>
<path clip-path="url(#clip212)" d="M2186.77 1421.55 L2186.77 1423.18 L2235.44 1423.18 L2235.44 1421.55 L2186.77 1421.55 L2186.77 1421.55  Z" fill="#009af9" fill-rule="evenodd" fill-opacity="0.7"/>
<polyline clip-path="url(#clip212)" style="stroke:#000000; stroke-linecap:round; stroke-linejoin:round; stroke-width:4; stroke-opacity:0.7; fill:none" points="2186.77,1421.55 2186.77,1423.18 2235.44,1423.18 2235.44,1421.55 2186.77,1421.55 "/>
<circle clip-path="url(#clip212)" style="fill:#009af9; stroke:none; fill-opacity:0" cx="361.516" cy="1413.38" r="2"/>
<circle clip-path="url(#clip212)" style="fill:#009af9; stroke:none; fill-opacity:0" cx="410.189" cy="1416.64" r="2"/>
<circle clip-path="url(#clip212)" style="fill:#009af9; stroke:none; fill-opacity:0" cx="458.863" cy="1403.57" r="2"/>
<circle clip-path="url(#clip212)" style="fill:#009af9; stroke:none; fill-opacity:0" cx="507.536" cy="1395.4" r="2"/>
<circle clip-path="url(#clip212)" style="fill:#009af9; stroke:none; fill-opacity:0" cx="556.209" cy="1385.59" r="2"/>
<circle clip-path="url(#clip212)" style="fill:#009af9; stroke:none; fill-opacity:0" cx="604.883" cy="1338.21" r="2"/>
<circle clip-path="url(#clip212)" style="fill:#009af9; stroke:none; fill-opacity:0" cx="653.556" cy="1326.77" r="2"/>
<circle clip-path="url(#clip212)" style="fill:#009af9; stroke:none; fill-opacity:0" cx="702.23" cy="1230.35" r="2"/>
<circle clip-path="url(#clip212)" style="fill:#009af9; stroke:none; fill-opacity:0" cx="750.903" cy="1129.04" r="2"/>
<circle clip-path="url(#clip212)" style="fill:#009af9; stroke:none; fill-opacity:0" cx="799.577" cy="1045.7" r="2"/>
<circle clip-path="url(#clip212)" style="fill:#009af9; stroke:none; fill-opacity:0" cx="848.25" cy="892.088" r="2"/>
<circle clip-path="url(#clip212)" style="fill:#009af9; stroke:none; fill-opacity:0" cx="896.924" cy="720.505" r="2"/>
<circle clip-path="url(#clip212)" style="fill:#009af9; stroke:none; fill-opacity:0" cx="945.597" cy="637.164" r="2"/>
<circle clip-path="url(#clip212)" style="fill:#009af9; stroke:none; fill-opacity:0" cx="994.27" cy="382.24" r="2"/>
<circle clip-path="url(#clip212)" style="fill:#009af9; stroke:none; fill-opacity:0" cx="1042.94" cy="202.486" r="2"/>
<circle clip-path="url(#clip212)" style="fill:#009af9; stroke:none; fill-opacity:0" cx="1091.62" cy="212.291" r="2"/>
<circle clip-path="url(#clip212)" style="fill:#009af9; stroke:none; fill-opacity:0" cx="1140.29" cy="47.2441" r="2"/>
<circle clip-path="url(#clip212)" style="fill:#009af9; stroke:none; fill-opacity:0" cx="1188.96" cy="109.341" r="2"/>
<circle clip-path="url(#clip212)" style="fill:#009af9; stroke:none; fill-opacity:0" cx="1237.64" cy="177.974" r="2"/>
<circle clip-path="url(#clip212)" style="fill:#009af9; stroke:none; fill-opacity:0" cx="1286.31" cy="191.047" r="2"/>
<circle clip-path="url(#clip212)" style="fill:#009af9; stroke:none; fill-opacity:0" cx="1334.98" cy="424.728" r="2"/>
<circle clip-path="url(#clip212)" style="fill:#009af9; stroke:none; fill-opacity:0" cx="1383.66" cy="550.556" r="2"/>
<circle clip-path="url(#clip212)" style="fill:#009af9; stroke:none; fill-opacity:0" cx="1432.33" cy="702.529" r="2"/>
<circle clip-path="url(#clip212)" style="fill:#009af9; stroke:none; fill-opacity:0" cx="1481" cy="869.21" r="2"/>
<circle clip-path="url(#clip212)" style="fill:#009af9; stroke:none; fill-opacity:0" cx="1529.68" cy="1021.18" r="2"/>
<circle clip-path="url(#clip212)" style="fill:#009af9; stroke:none; fill-opacity:0" cx="1578.35" cy="1112.7" r="2"/>
<circle clip-path="url(#clip212)" style="fill:#009af9; stroke:none; fill-opacity:0" cx="1627.03" cy="1168.26" r="2"/>
<circle clip-path="url(#clip212)" style="fill:#009af9; stroke:none; fill-opacity:0" cx="1675.7" cy="1287.55" r="2"/>
<circle clip-path="url(#clip212)" style="fill:#009af9; stroke:none; fill-opacity:0" cx="1724.37" cy="1321.86" r="2"/>
<circle clip-path="url(#clip212)" style="fill:#009af9; stroke:none; fill-opacity:0" cx="1773.05" cy="1343.11" r="2"/>
<circle clip-path="url(#clip212)" style="fill:#009af9; stroke:none; fill-opacity:0" cx="1821.72" cy="1388.86" r="2"/>
<circle clip-path="url(#clip212)" style="fill:#009af9; stroke:none; fill-opacity:0" cx="1870.39" cy="1382.33" r="2"/>
<circle clip-path="url(#clip212)" style="fill:#009af9; stroke:none; fill-opacity:0" cx="1919.07" cy="1415.01" r="2"/>
<circle clip-path="url(#clip212)" style="fill:#009af9; stroke:none; fill-opacity:0" cx="1967.74" cy="1413.38" r="2"/>
<circle clip-path="url(#clip212)" style="fill:#009af9; stroke:none; fill-opacity:0" cx="2016.41" cy="1418.28" r="2"/>
<circle clip-path="url(#clip212)" style="fill:#009af9; stroke:none; fill-opacity:0" cx="2065.09" cy="1419.91" r="2"/>
<circle clip-path="url(#clip212)" style="fill:#009af9; stroke:none; fill-opacity:0" cx="2113.76" cy="1423.18" r="2"/>
<circle clip-path="url(#clip212)" style="fill:#009af9; stroke:none; fill-opacity:0" cx="2162.43" cy="1421.55" r="2"/>
<circle clip-path="url(#clip212)" style="fill:#009af9; stroke:none; fill-opacity:0" cx="2211.11" cy="1421.55" r="2"/>
<polyline clip-path="url(#clip212)" style="stroke:#e26f46; stroke-linecap:round; stroke-linejoin:round; stroke-width:8; stroke-opacity:1; fill:none" points="385.852,1416.55 400.602,1415.12 415.351,1413.42 430.101,1411.4 444.851,1409.02 459.6,1406.22 474.35,1402.94 489.099,1399.12 503.849,1394.68 518.598,1389.54 533.348,1383.62 548.097,1376.83 562.847,1369.07 577.596,1360.25 592.346,1350.25 607.095,1338.98 621.845,1326.33 636.594,1312.18 651.344,1296.43 666.093,1278.97 680.843,1259.71 695.593,1238.57 710.342,1215.44 725.092,1190.28 739.841,1163.03 754.591,1133.66 769.34,1102.15 784.09,1068.52 798.839,1032.8 813.589,995.058 828.338,955.389 843.088,913.918 857.837,870.804 872.587,826.236 887.336,780.437 902.086,733.662 916.835,686.195 931.585,638.349 946.334,590.46 961.084,542.888 975.834,496.011 990.583,450.218 1005.33,405.907 1020.08,363.477 1034.83,323.324 1049.58,285.835 1064.33,251.381 1079.08,220.309 1093.83,192.941 1108.58,169.563 1123.33,150.424 1138.08,135.731 1152.83,125.642 1167.58,120.269 1182.33,119.671 1197.08,123.854 1211.83,132.772 1226.58,146.327 1241.33,164.372 1256.07,186.712 1270.82,213.108 1285.57,243.283 1300.32,276.923 1315.07,313.687 1329.82,353.21 1344.57,395.107 1359.32,438.986 1374.07,484.446 1388.82,531.089 1403.57,578.523 1418.32,626.367 1433.07,674.256 1447.82,721.849 1462.57,768.824 1477.32,814.892 1492.07,859.79 1506.82,903.287 1521.57,945.184 1536.32,985.317 1551.07,1023.55 1565.81,1059.78 1580.56,1093.94 1595.31,1125.98 1610.06,1155.89 1624.81,1183.67 1639.56,1209.35 1654.31,1232.97 1669.06,1254.61 1683.81,1274.33 1698.56,1292.23 1713.31,1308.39 1728.06,1322.93 1742.81,1335.95 1757.56,1347.56 1772.31,1357.86 1787.06,1366.97 1801.81,1374.98 1816.56,1382.01 1831.31,1388.13 1846.06,1393.46 "/>
<path clip-path="url(#clip210)" d="M1587.38 248.629 L2281.66 248.629 L2281.66 93.1086 L1587.38 93.1086  Z" fill="#ffffff" fill-rule="evenodd" fill-opacity="1"/>
<polyline clip-path="url(#clip210)" style="stroke:#000000; stroke-linecap:round; stroke-linejoin:round; stroke-width:4; stroke-opacity:1; fill:none" points="1587.38,248.629 2281.66,248.629 2281.66,93.1086 1587.38,93.1086 1587.38,248.629 "/>
<path clip-path="url(#clip210)" d="M1611.08 165.685 L1753.27 165.685 L1753.27 124.213 L1611.08 124.213 L1611.08 165.685  Z" fill="#009af9" fill-rule="evenodd" fill-opacity="0.7"/>
<polyline clip-path="url(#clip210)" style="stroke:#000000; stroke-linecap:round; stroke-linejoin:round; stroke-width:4; stroke-opacity:1; fill:none" points="1611.08,165.685 1753.27,165.685 1753.27,124.213 1611.08,124.213 1611.08,165.685 "/>
<path clip-path="url(#clip210)" d="M1804.84 130.331 L1804.84 135.261 Q1802.48 133.062 1799.79 131.974 Q1797.13 130.886 1794.12 130.886 Q1788.19 130.886 1785.05 134.52 Q1781.9 138.132 1781.9 144.983 Q1781.9 151.812 1785.05 155.446 Q1788.19 159.057 1794.12 159.057 Q1797.13 159.057 1799.79 157.969 Q1802.48 156.881 1804.84 154.682 L1804.84 159.567 Q1802.38 161.233 1799.63 162.067 Q1796.9 162.9 1793.84 162.9 Q1786 162.9 1781.48 158.108 Q1776.97 153.293 1776.97 144.983 Q1776.97 136.65 1781.48 131.858 Q1786 127.044 1793.84 127.044 Q1796.94 127.044 1799.68 127.877 Q1802.43 128.687 1804.84 130.331 Z" fill="#000000" fill-rule="nonzero" fill-opacity="1" /><path clip-path="url(#clip210)" d="M1821.92 139.289 Q1818.5 139.289 1816.5 141.974 Q1814.51 144.636 1814.51 149.289 Q1814.51 153.942 1816.48 156.627 Q1818.47 159.289 1821.92 159.289 Q1825.32 159.289 1827.31 156.604 Q1829.31 153.918 1829.31 149.289 Q1829.31 144.682 1827.31 141.997 Q1825.32 139.289 1821.92 139.289 M1821.92 135.678 Q1827.48 135.678 1830.65 139.289 Q1833.82 142.9 1833.82 149.289 Q1833.82 155.655 1830.65 159.289 Q1827.48 162.9 1821.92 162.9 Q1816.34 162.9 1813.17 159.289 Q1810.02 155.655 1810.02 149.289 Q1810.02 142.9 1813.17 139.289 Q1816.34 135.678 1821.92 135.678 Z" fill="#000000" fill-rule="nonzero" fill-opacity="1" /><path clip-path="url(#clip210)" d="M1862.43 146.581 L1862.43 162.229 L1858.17 162.229 L1858.17 146.719 Q1858.17 143.039 1856.74 141.21 Q1855.3 139.382 1852.43 139.382 Q1848.98 139.382 1846.99 141.581 Q1845 143.78 1845 147.576 L1845 162.229 L1840.72 162.229 L1840.72 136.303 L1845 136.303 L1845 140.331 Q1846.53 137.993 1848.59 136.835 Q1850.67 135.678 1853.38 135.678 Q1857.85 135.678 1860.14 138.456 Q1862.43 141.21 1862.43 146.581 Z" fill="#000000" fill-rule="nonzero" fill-opacity="1" /><path clip-path="url(#clip210)" d="M1887.99 140.238 L1887.99 126.21 L1892.25 126.21 L1892.25 162.229 L1887.99 162.229 L1887.99 158.34 Q1886.64 160.655 1884.58 161.789 Q1882.55 162.9 1879.68 162.9 Q1874.98 162.9 1872.01 159.15 Q1869.07 155.4 1869.07 149.289 Q1869.07 143.178 1872.01 139.428 Q1874.98 135.678 1879.68 135.678 Q1882.55 135.678 1884.58 136.812 Q1886.64 137.923 1887.99 140.238 M1873.47 149.289 Q1873.47 153.988 1875.39 156.673 Q1877.34 159.335 1880.72 159.335 Q1884.1 159.335 1886.04 156.673 Q1887.99 153.988 1887.99 149.289 Q1887.99 144.59 1886.04 141.928 Q1884.1 139.243 1880.72 139.243 Q1877.34 139.243 1875.39 141.928 Q1873.47 144.59 1873.47 149.289 Z" fill="#000000" fill-rule="nonzero" fill-opacity="1" /><path clip-path="url(#clip210)" d="M1901.02 136.303 L1905.28 136.303 L1905.28 162.229 L1901.02 162.229 L1901.02 136.303 M1901.02 126.21 L1905.28 126.21 L1905.28 131.604 L1901.02 131.604 L1901.02 126.21 Z" fill="#000000" fill-rule="nonzero" fill-opacity="1" /><path clip-path="url(#clip210)" d="M1918.4 128.942 L1918.4 136.303 L1927.18 136.303 L1927.18 139.613 L1918.4 139.613 L1918.4 153.687 Q1918.4 156.858 1919.26 157.761 Q1920.14 158.664 1922.8 158.664 L1927.18 158.664 L1927.18 162.229 L1922.8 162.229 Q1917.87 162.229 1916 160.4 Q1914.12 158.548 1914.12 153.687 L1914.12 139.613 L1911 139.613 L1911 136.303 L1914.12 136.303 L1914.12 128.942 L1918.4 128.942 Z" fill="#000000" fill-rule="nonzero" fill-opacity="1" /><path clip-path="url(#clip210)" d="M1932.78 136.303 L1937.04 136.303 L1937.04 162.229 L1932.78 162.229 L1932.78 136.303 M1932.78 126.21 L1937.04 126.21 L1937.04 131.604 L1932.78 131.604 L1932.78 126.21 Z" fill="#000000" fill-rule="nonzero" fill-opacity="1" /><path clip-path="url(#clip210)" d="M1955.99 139.289 Q1952.57 139.289 1950.58 141.974 Q1948.59 144.636 1948.59 149.289 Q1948.59 153.942 1950.56 156.627 Q1952.55 159.289 1955.99 159.289 Q1959.4 159.289 1961.39 156.604 Q1963.38 153.918 1963.38 149.289 Q1963.38 144.682 1961.39 141.997 Q1959.4 139.289 1955.99 139.289 M1955.99 135.678 Q1961.55 135.678 1964.72 139.289 Q1967.89 142.9 1967.89 149.289 Q1967.89 155.655 1964.72 159.289 Q1961.55 162.9 1955.99 162.9 Q1950.42 162.9 1947.24 159.289 Q1944.1 155.655 1944.1 149.289 Q1944.1 142.9 1947.24 139.289 Q1950.42 135.678 1955.99 135.678 Z" fill="#000000" fill-rule="nonzero" fill-opacity="1" /><path clip-path="url(#clip210)" d="M1996.5 146.581 L1996.5 162.229 L1992.24 162.229 L1992.24 146.719 Q1992.24 143.039 1990.81 141.21 Q1989.37 139.382 1986.5 139.382 Q1983.05 139.382 1981.06 141.581 Q1979.07 143.78 1979.07 147.576 L1979.07 162.229 L1974.79 162.229 L1974.79 136.303 L1979.07 136.303 L1979.07 140.331 Q1980.6 137.993 1982.66 136.835 Q1984.74 135.678 1987.45 135.678 Q1991.92 135.678 1994.21 138.456 Q1996.5 141.21 1996.5 146.581 Z" fill="#000000" fill-rule="nonzero" fill-opacity="1" /><path clip-path="url(#clip210)" d="M2016.78 149.196 Q2011.62 149.196 2009.63 150.377 Q2007.64 151.557 2007.64 154.405 Q2007.64 156.673 2009.12 158.016 Q2010.62 159.335 2013.19 159.335 Q2016.74 159.335 2018.86 156.835 Q2021.02 154.312 2021.02 150.145 L2021.02 149.196 L2016.78 149.196 M2025.28 147.437 L2025.28 162.229 L2021.02 162.229 L2021.02 158.293 Q2019.56 160.655 2017.38 161.789 Q2015.21 162.9 2012.06 162.9 Q2008.08 162.9 2005.72 160.678 Q2003.38 158.432 2003.38 154.682 Q2003.38 150.307 2006.3 148.085 Q2009.24 145.863 2015.05 145.863 L2021.02 145.863 L2021.02 145.446 Q2021.02 142.507 2019.07 140.909 Q2017.15 139.289 2013.66 139.289 Q2011.43 139.289 2009.33 139.821 Q2007.22 140.354 2005.28 141.419 L2005.28 137.483 Q2007.61 136.581 2009.81 136.141 Q2012.01 135.678 2014.1 135.678 Q2019.72 135.678 2022.5 138.594 Q2025.28 141.511 2025.28 147.437 Z" fill="#000000" fill-rule="nonzero" fill-opacity="1" /><path clip-path="url(#clip210)" d="M2034.05 126.21 L2038.31 126.21 L2038.31 162.229 L2034.05 162.229 L2034.05 126.21 Z" fill="#000000" fill-rule="nonzero" fill-opacity="1" /><path clip-path="url(#clip210)" d="M2083.19 128.803 L2083.19 133.363 Q2080.53 132.09 2078.17 131.465 Q2075.81 130.84 2073.61 130.84 Q2069.79 130.84 2067.71 132.321 Q2065.65 133.803 2065.65 136.534 Q2065.65 138.826 2067.01 140.007 Q2068.4 141.164 2072.24 141.882 L2075.07 142.46 Q2080.3 143.456 2082.78 145.979 Q2085.28 148.479 2085.28 152.692 Q2085.28 157.715 2081.9 160.307 Q2078.54 162.9 2072.04 162.9 Q2069.58 162.9 2066.8 162.344 Q2064.05 161.789 2061.09 160.701 L2061.09 155.886 Q2063.93 157.483 2066.67 158.293 Q2069.4 159.104 2072.04 159.104 Q2076.04 159.104 2078.22 157.53 Q2080.39 155.956 2080.39 153.039 Q2080.39 150.493 2078.82 149.057 Q2077.27 147.622 2073.7 146.905 L2070.86 146.349 Q2065.62 145.307 2063.29 143.085 Q2060.95 140.863 2060.95 136.905 Q2060.95 132.321 2064.17 129.682 Q2067.41 127.044 2073.08 127.044 Q2075.51 127.044 2078.03 127.483 Q2080.55 127.923 2083.19 128.803 Z" fill="#000000" fill-rule="nonzero" fill-opacity="1" /><path clip-path="url(#clip210)" d="M2104.17 149.196 Q2099 149.196 2097.01 150.377 Q2095.02 151.557 2095.02 154.405 Q2095.02 156.673 2096.5 158.016 Q2098.01 159.335 2100.58 159.335 Q2104.12 159.335 2106.25 156.835 Q2108.4 154.312 2108.4 150.145 L2108.4 149.196 L2104.17 149.196 M2112.66 147.437 L2112.66 162.229 L2108.4 162.229 L2108.4 158.293 Q2106.94 160.655 2104.77 161.789 Q2102.59 162.9 2099.44 162.9 Q2095.46 162.9 2093.1 160.678 Q2090.76 158.432 2090.76 154.682 Q2090.76 150.307 2093.68 148.085 Q2096.62 145.863 2102.43 145.863 L2108.4 145.863 L2108.4 145.446 Q2108.4 142.507 2106.46 140.909 Q2104.54 139.289 2101.04 139.289 Q2098.82 139.289 2096.71 139.821 Q2094.61 140.354 2092.66 141.419 L2092.66 137.483 Q2095 136.581 2097.2 136.141 Q2099.4 135.678 2101.48 135.678 Q2107.11 135.678 2109.88 138.594 Q2112.66 141.511 2112.66 147.437 Z" fill="#000000" fill-rule="nonzero" fill-opacity="1" /><path clip-path="url(#clip210)" d="M2141.62 141.28 Q2143.22 138.409 2145.44 137.044 Q2147.66 135.678 2150.67 135.678 Q2154.72 135.678 2156.92 138.525 Q2159.12 141.349 2159.12 146.581 L2159.12 162.229 L2154.84 162.229 L2154.84 146.719 Q2154.84 142.993 2153.52 141.187 Q2152.2 139.382 2149.49 139.382 Q2146.18 139.382 2144.26 141.581 Q2142.34 143.78 2142.34 147.576 L2142.34 162.229 L2138.05 162.229 L2138.05 146.719 Q2138.05 142.969 2136.73 141.187 Q2135.42 139.382 2132.66 139.382 Q2129.4 139.382 2127.48 141.604 Q2125.55 143.803 2125.55 147.576 L2125.55 162.229 L2121.27 162.229 L2121.27 136.303 L2125.55 136.303 L2125.55 140.331 Q2127.01 137.946 2129.05 136.812 Q2131.09 135.678 2133.89 135.678 Q2136.71 135.678 2138.68 137.113 Q2140.67 138.548 2141.62 141.28 Z" fill="#000000" fill-rule="nonzero" fill-opacity="1" /><path clip-path="url(#clip210)" d="M2171.73 158.34 L2171.73 172.09 L2167.45 172.09 L2167.45 136.303 L2171.73 136.303 L2171.73 140.238 Q2173.08 137.923 2175.11 136.812 Q2177.17 135.678 2180.02 135.678 Q2184.74 135.678 2187.68 139.428 Q2190.65 143.178 2190.65 149.289 Q2190.65 155.4 2187.68 159.15 Q2184.74 162.9 2180.02 162.9 Q2177.17 162.9 2175.11 161.789 Q2173.08 160.655 2171.73 158.34 M2186.23 149.289 Q2186.23 144.59 2184.28 141.928 Q2182.36 139.243 2178.98 139.243 Q2175.6 139.243 2173.66 141.928 Q2171.73 144.59 2171.73 149.289 Q2171.73 153.988 2173.66 156.673 Q2175.6 159.335 2178.98 159.335 Q2182.36 159.335 2184.28 156.673 Q2186.23 153.988 2186.23 149.289 Z" fill="#000000" fill-rule="nonzero" fill-opacity="1" /><path clip-path="url(#clip210)" d="M2197.71 126.21 L2201.97 126.21 L2201.97 162.229 L2197.71 162.229 L2197.71 126.21 Z" fill="#000000" fill-rule="nonzero" fill-opacity="1" /><path clip-path="url(#clip210)" d="M2233.05 148.201 L2233.05 150.284 L2213.47 150.284 Q2213.75 154.682 2216.11 156.997 Q2218.49 159.289 2222.73 159.289 Q2225.18 159.289 2227.47 158.687 Q2229.79 158.085 2232.06 156.881 L2232.06 160.909 Q2229.77 161.881 2227.36 162.391 Q2224.95 162.9 2222.47 162.9 Q2216.27 162.9 2212.64 159.289 Q2209.03 155.678 2209.03 149.52 Q2209.03 143.155 2212.45 139.428 Q2215.9 135.678 2221.73 135.678 Q2226.97 135.678 2230 139.057 Q2233.05 142.414 2233.05 148.201 M2228.79 146.951 Q2228.75 143.456 2226.83 141.372 Q2224.93 139.289 2221.78 139.289 Q2218.22 139.289 2216.06 141.303 Q2213.93 143.317 2213.61 146.974 L2228.79 146.951 Z" fill="#000000" fill-rule="nonzero" fill-opacity="1" /><path clip-path="url(#clip210)" d="M2256.57 137.067 L2256.57 141.094 Q2254.77 140.169 2252.82 139.706 Q2250.88 139.243 2248.79 139.243 Q2245.62 139.243 2244.03 140.215 Q2242.45 141.187 2242.45 143.131 Q2242.45 144.613 2243.59 145.469 Q2244.72 146.303 2248.15 147.067 L2249.6 147.391 Q2254.14 148.363 2256.04 150.145 Q2257.96 151.905 2257.96 155.076 Q2257.96 158.687 2255.09 160.793 Q2252.24 162.9 2247.24 162.9 Q2245.16 162.9 2242.89 162.483 Q2240.65 162.09 2238.15 161.28 L2238.15 156.881 Q2240.51 158.108 2242.8 158.733 Q2245.09 159.335 2247.34 159.335 Q2250.35 159.335 2251.97 158.317 Q2253.59 157.275 2253.59 155.4 Q2253.59 153.664 2252.41 152.738 Q2251.25 151.812 2247.29 150.956 L2245.81 150.608 Q2241.85 149.775 2240.09 148.062 Q2238.33 146.326 2238.33 143.317 Q2238.33 139.659 2240.92 137.669 Q2243.52 135.678 2248.28 135.678 Q2250.65 135.678 2252.73 136.025 Q2254.81 136.372 2256.57 137.067 Z" fill="#000000" fill-rule="nonzero" fill-opacity="1" /><polyline clip-path="url(#clip210)" style="stroke:#e26f46; stroke-linecap:round; stroke-linejoin:round; stroke-width:8; stroke-opacity:1; fill:none" points="1611.08,196.789 1753.27,196.789 "/>
<path clip-path="url(#clip210)" d="M1804.84 182.171 L1804.84 187.101 Q1802.48 184.902 1799.79 183.814 Q1797.13 182.726 1794.12 182.726 Q1788.19 182.726 1785.05 186.36 Q1781.9 189.972 1781.9 196.823 Q1781.9 203.652 1785.05 207.286 Q1788.19 210.897 1794.12 210.897 Q1797.13 210.897 1799.79 209.809 Q1802.48 208.721 1804.84 206.522 L1804.84 211.407 Q1802.38 213.073 1799.63 213.907 Q1796.9 214.74 1793.84 214.74 Q1786 214.74 1781.48 209.948 Q1776.97 205.133 1776.97 196.823 Q1776.97 188.49 1781.48 183.698 Q1786 178.884 1793.84 178.884 Q1796.94 178.884 1799.68 179.717 Q1802.43 180.527 1804.84 182.171 Z" fill="#000000" fill-rule="nonzero" fill-opacity="1" /><path clip-path="url(#clip210)" d="M1821.92 191.129 Q1818.5 191.129 1816.5 193.814 Q1814.51 196.476 1814.51 201.129 Q1814.51 205.782 1816.48 208.467 Q1818.47 211.129 1821.92 211.129 Q1825.32 211.129 1827.31 208.444 Q1829.31 205.758 1829.31 201.129 Q1829.31 196.522 1827.31 193.837 Q1825.32 191.129 1821.92 191.129 M1821.92 187.518 Q1827.48 187.518 1830.65 191.129 Q1833.82 194.74 1833.82 201.129 Q1833.82 207.495 1830.65 211.129 Q1827.48 214.74 1821.92 214.74 Q1816.34 214.74 1813.17 211.129 Q1810.02 207.495 1810.02 201.129 Q1810.02 194.74 1813.17 191.129 Q1816.34 187.518 1821.92 187.518 Z" fill="#000000" fill-rule="nonzero" fill-opacity="1" /><path clip-path="url(#clip210)" d="M1862.43 198.421 L1862.43 214.069 L1858.17 214.069 L1858.17 198.559 Q1858.17 194.879 1856.74 193.05 Q1855.3 191.222 1852.43 191.222 Q1848.98 191.222 1846.99 193.421 Q1845 195.62 1845 199.416 L1845 214.069 L1840.72 214.069 L1840.72 188.143 L1845 188.143 L1845 192.171 Q1846.53 189.833 1848.59 188.675 Q1850.67 187.518 1853.38 187.518 Q1857.85 187.518 1860.14 190.296 Q1862.43 193.05 1862.43 198.421 Z" fill="#000000" fill-rule="nonzero" fill-opacity="1" /><path clip-path="url(#clip210)" d="M1887.99 192.078 L1887.99 178.05 L1892.25 178.05 L1892.25 214.069 L1887.99 214.069 L1887.99 210.18 Q1886.64 212.495 1884.58 213.629 Q1882.55 214.74 1879.68 214.74 Q1874.98 214.74 1872.01 210.99 Q1869.07 207.24 1869.07 201.129 Q1869.07 195.018 1872.01 191.268 Q1874.98 187.518 1879.68 187.518 Q1882.55 187.518 1884.58 188.652 Q1886.64 189.763 1887.99 192.078 M1873.47 201.129 Q1873.47 205.828 1875.39 208.513 Q1877.34 211.175 1880.72 211.175 Q1884.1 211.175 1886.04 208.513 Q1887.99 205.828 1887.99 201.129 Q1887.99 196.43 1886.04 193.768 Q1884.1 191.083 1880.72 191.083 Q1877.34 191.083 1875.39 193.768 Q1873.47 196.43 1873.47 201.129 Z" fill="#000000" fill-rule="nonzero" fill-opacity="1" /><path clip-path="url(#clip210)" d="M1901.02 188.143 L1905.28 188.143 L1905.28 214.069 L1901.02 214.069 L1901.02 188.143 M1901.02 178.05 L1905.28 178.05 L1905.28 183.444 L1901.02 183.444 L1901.02 178.05 Z" fill="#000000" fill-rule="nonzero" fill-opacity="1" /><path clip-path="url(#clip210)" d="M1918.4 180.782 L1918.4 188.143 L1927.18 188.143 L1927.18 191.453 L1918.4 191.453 L1918.4 205.527 Q1918.4 208.698 1919.26 209.601 Q1920.14 210.504 1922.8 210.504 L1927.18 210.504 L1927.18 214.069 L1922.8 214.069 Q1917.87 214.069 1916 212.24 Q1914.12 210.388 1914.12 205.527 L1914.12 191.453 L1911 191.453 L1911 188.143 L1914.12 188.143 L1914.12 180.782 L1918.4 180.782 Z" fill="#000000" fill-rule="nonzero" fill-opacity="1" /><path clip-path="url(#clip210)" d="M1932.78 188.143 L1937.04 188.143 L1937.04 214.069 L1932.78 214.069 L1932.78 188.143 M1932.78 178.05 L1937.04 178.05 L1937.04 183.444 L1932.78 183.444 L1932.78 178.05 Z" fill="#000000" fill-rule="nonzero" fill-opacity="1" /><path clip-path="url(#clip210)" d="M1955.99 191.129 Q1952.57 191.129 1950.58 193.814 Q1948.59 196.476 1948.59 201.129 Q1948.59 205.782 1950.56 208.467 Q1952.55 211.129 1955.99 211.129 Q1959.4 211.129 1961.39 208.444 Q1963.38 205.758 1963.38 201.129 Q1963.38 196.522 1961.39 193.837 Q1959.4 191.129 1955.99 191.129 M1955.99 187.518 Q1961.55 187.518 1964.72 191.129 Q1967.89 194.74 1967.89 201.129 Q1967.89 207.495 1964.72 211.129 Q1961.55 214.74 1955.99 214.74 Q1950.42 214.74 1947.24 211.129 Q1944.1 207.495 1944.1 201.129 Q1944.1 194.74 1947.24 191.129 Q1950.42 187.518 1955.99 187.518 Z" fill="#000000" fill-rule="nonzero" fill-opacity="1" /><path clip-path="url(#clip210)" d="M1996.5 198.421 L1996.5 214.069 L1992.24 214.069 L1992.24 198.559 Q1992.24 194.879 1990.81 193.05 Q1989.37 191.222 1986.5 191.222 Q1983.05 191.222 1981.06 193.421 Q1979.07 195.62 1979.07 199.416 L1979.07 214.069 L1974.79 214.069 L1974.79 188.143 L1979.07 188.143 L1979.07 192.171 Q1980.6 189.833 1982.66 188.675 Q1984.74 187.518 1987.45 187.518 Q1991.92 187.518 1994.21 190.296 Q1996.5 193.05 1996.5 198.421 Z" fill="#000000" fill-rule="nonzero" fill-opacity="1" /><path clip-path="url(#clip210)" d="M2016.78 201.036 Q2011.62 201.036 2009.63 202.217 Q2007.64 203.397 2007.64 206.245 Q2007.64 208.513 2009.12 209.856 Q2010.62 211.175 2013.19 211.175 Q2016.74 211.175 2018.86 208.675 Q2021.02 206.152 2021.02 201.985 L2021.02 201.036 L2016.78 201.036 M2025.28 199.277 L2025.28 214.069 L2021.02 214.069 L2021.02 210.133 Q2019.56 212.495 2017.38 213.629 Q2015.21 214.74 2012.06 214.74 Q2008.08 214.74 2005.72 212.518 Q2003.38 210.272 2003.38 206.522 Q2003.38 202.147 2006.3 199.925 Q2009.24 197.703 2015.05 197.703 L2021.02 197.703 L2021.02 197.286 Q2021.02 194.347 2019.07 192.749 Q2017.15 191.129 2013.66 191.129 Q2011.43 191.129 2009.33 191.661 Q2007.22 192.194 2005.28 193.259 L2005.28 189.323 Q2007.61 188.421 2009.81 187.981 Q2012.01 187.518 2014.1 187.518 Q2019.72 187.518 2022.5 190.434 Q2025.28 193.351 2025.28 199.277 Z" fill="#000000" fill-rule="nonzero" fill-opacity="1" /><path clip-path="url(#clip210)" d="M2034.05 178.05 L2038.31 178.05 L2038.31 214.069 L2034.05 214.069 L2034.05 178.05 Z" fill="#000000" fill-rule="nonzero" fill-opacity="1" /><path clip-path="url(#clip210)" d="M2067.15 183.351 L2067.15 210.226 L2072.8 210.226 Q2079.95 210.226 2083.26 206.985 Q2086.6 203.745 2086.6 196.754 Q2086.6 189.809 2083.26 186.592 Q2079.95 183.351 2072.8 183.351 L2067.15 183.351 M2062.48 179.509 L2072.08 179.509 Q2082.13 179.509 2086.83 183.698 Q2091.53 187.865 2091.53 196.754 Q2091.53 205.689 2086.8 209.879 Q2082.08 214.069 2072.08 214.069 L2062.48 214.069 L2062.48 179.509 Z" fill="#000000" fill-rule="nonzero" fill-opacity="1" /><path clip-path="url(#clip210)" d="M2120.97 200.041 L2120.97 202.124 L2101.39 202.124 Q2101.67 206.522 2104.03 208.837 Q2106.41 211.129 2110.65 211.129 Q2113.1 211.129 2115.39 210.527 Q2117.71 209.925 2119.98 208.721 L2119.98 212.749 Q2117.68 213.721 2115.28 214.231 Q2112.87 214.74 2110.39 214.74 Q2104.19 214.74 2100.55 211.129 Q2096.94 207.518 2096.94 201.36 Q2096.94 194.995 2100.37 191.268 Q2103.82 187.518 2109.65 187.518 Q2114.88 187.518 2117.92 190.897 Q2120.97 194.254 2120.97 200.041 M2116.71 198.791 Q2116.67 195.296 2114.74 193.212 Q2112.85 191.129 2109.7 191.129 Q2106.13 191.129 2103.98 193.143 Q2101.85 195.157 2101.53 198.814 L2116.71 198.791 Z" fill="#000000" fill-rule="nonzero" fill-opacity="1" /><path clip-path="url(#clip210)" d="M2149.51 198.421 L2149.51 214.069 L2145.25 214.069 L2145.25 198.559 Q2145.25 194.879 2143.82 193.05 Q2142.38 191.222 2139.51 191.222 Q2136.06 191.222 2134.07 193.421 Q2132.08 195.62 2132.08 199.416 L2132.08 214.069 L2127.8 214.069 L2127.8 188.143 L2132.08 188.143 L2132.08 192.171 Q2133.61 189.833 2135.67 188.675 Q2137.75 187.518 2140.46 187.518 Q2144.93 187.518 2147.22 190.296 Q2149.51 193.05 2149.51 198.421 Z" fill="#000000" fill-rule="nonzero" fill-opacity="1" /><path clip-path="url(#clip210)" d="M2174.54 188.907 L2174.54 192.934 Q2172.73 192.009 2170.79 191.546 Q2168.84 191.083 2166.76 191.083 Q2163.59 191.083 2161.99 192.055 Q2160.42 193.027 2160.42 194.971 Q2160.42 196.453 2161.55 197.309 Q2162.68 198.143 2166.11 198.907 L2167.57 199.231 Q2172.1 200.203 2174 201.985 Q2175.92 203.745 2175.92 206.916 Q2175.92 210.527 2173.05 212.633 Q2170.21 214.74 2165.21 214.74 Q2163.12 214.74 2160.85 214.323 Q2158.61 213.93 2156.11 213.12 L2156.11 208.721 Q2158.47 209.948 2160.76 210.573 Q2163.05 211.175 2165.3 211.175 Q2168.31 211.175 2169.93 210.157 Q2171.55 209.115 2171.55 207.24 Q2171.55 205.504 2170.37 204.578 Q2169.21 203.652 2165.25 202.796 L2163.77 202.448 Q2159.81 201.615 2158.05 199.902 Q2156.29 198.166 2156.29 195.157 Q2156.29 191.499 2158.89 189.509 Q2161.48 187.518 2166.25 187.518 Q2168.61 187.518 2170.69 187.865 Q2172.78 188.212 2174.54 188.907 Z" fill="#000000" fill-rule="nonzero" fill-opacity="1" /><path clip-path="url(#clip210)" d="M2182.71 188.143 L2186.97 188.143 L2186.97 214.069 L2182.71 214.069 L2182.71 188.143 M2182.71 178.05 L2186.97 178.05 L2186.97 183.444 L2182.71 183.444 L2182.71 178.05 Z" fill="#000000" fill-rule="nonzero" fill-opacity="1" /><path clip-path="url(#clip210)" d="M2200.09 180.782 L2200.09 188.143 L2208.86 188.143 L2208.86 191.453 L2200.09 191.453 L2200.09 205.527 Q2200.09 208.698 2200.95 209.601 Q2201.83 210.504 2204.49 210.504 L2208.86 210.504 L2208.86 214.069 L2204.49 214.069 Q2199.56 214.069 2197.68 212.24 Q2195.81 210.388 2195.81 205.527 L2195.81 191.453 L2192.68 191.453 L2192.68 188.143 L2195.81 188.143 L2195.81 180.782 L2200.09 180.782 Z" fill="#000000" fill-rule="nonzero" fill-opacity="1" /><path clip-path="url(#clip210)" d="M2225.25 216.476 Q2223.45 221.106 2221.73 222.518 Q2220.02 223.93 2217.15 223.93 L2213.75 223.93 L2213.75 220.365 L2216.25 220.365 Q2218.01 220.365 2218.98 219.532 Q2219.95 218.698 2221.13 215.596 L2221.9 213.652 L2211.41 188.143 L2215.92 188.143 L2224.03 208.421 L2232.13 188.143 L2236.64 188.143 L2225.25 216.476 Z" fill="#000000" fill-rule="nonzero" fill-opacity="1" /></svg>
